<svg id="Frame_3326" data-name="Frame 3326" xmlns="http://www.w3.org/2000/svg" width="146.402" height="115.969" viewBox="0 0 146.402 115.969">
  <g id="Group">
    <path id="Vector" d="M.091,0,0,.073V1.445l.091.091H1.463l.091-.091V.073L1.463,0Z" transform="translate(108.398 62.237)" fill="#006a3b"/>
    <path id="Vector-2" data-name="Vector" d="M4.243.311,4.1.347V8.376a1.943,1.943,0,0,1-1.92,2.195A2.123,2.123,0,0,1,.347,9.839L.274,9.8l-.238.128L0,10.022A2.4,2.4,0,0,0,2.231,11.6c1.536,0,3.219-.695,3.219-3.548V.091L5.377,0Z" transform="translate(104.429 65.145)" fill="#006a3b"/>
    <path id="Vector-3" data-name="Vector" d="M1.463,1.536l.091-.091V.073L1.463,0H.091L0,.073V1.445l.091.091Z" transform="translate(91.371 62.237)" fill="#006a3b"/>
    <path id="Vector-4" data-name="Vector" d="M1.463,1.536l.091-.091V.073L1.463,0H.091L0,.073V1.445l.091.091Z" transform="translate(88.829 62.237)" fill="#006a3b"/>
    <path id="Vector-5" data-name="Vector" d="M6.365,2.871C6.365,1.024,5.011,0,3.182,0S0,1.006,0,2.871V5.724C0,7.572,1.353,8.6,3.182,8.6S6.365,7.59,6.365,5.724ZM5.029,5.45A1.727,1.727,0,0,1,3.182,7.407,1.711,1.711,0,0,1,1.335,5.45v-2.3A1.7,1.7,0,0,1,3.182,1.207,1.7,1.7,0,0,1,5.029,3.146Z" transform="translate(87.695 64.925)" fill="#006a3b"/>
    <path id="Vector-6" data-name="Vector" d="M.146.293.073.311,0,.384V13.04A2.892,2.892,0,0,0,1.335,10.9V.073L1.225,0Z" transform="translate(102.71 60.481)" fill="#006a3b"/>
    <path id="Vector-7" data-name="Vector" d="M4.28.293,4.133.329V8.376a1.959,1.959,0,0,1-1.92,2.213,2.124,2.124,0,0,1-1.829-.75L.293,9.8l-.256.128L0,10.022A2.4,2.4,0,0,0,2.231,11.6c1.536,0,3.219-.695,3.219-3.548V.091L5.377,0Z" transform="translate(93.968 65.145)" fill="#006a3b"/>
    <path id="Vector-8" data-name="Vector" d="M6.291.219l-1.1.293A4.541,4.541,0,0,0,3.292,0,3,3,0,0,0,0,2.871V5.688A2.729,2.729,0,0,0,2.816,8.6a2.233,2.233,0,0,0,2.3-1.3l-.091.732V8.6a1.943,1.943,0,0,1-1.92,2.195,2.105,2.105,0,0,1-1.829-.732l-.091-.037-.238.128-.037.091a2.4,2.4,0,0,0,2.231,1.573c1.536,0,3.219-.695,3.219-3.548V.311Zm-1.244,6.8a2.749,2.749,0,0,1-1.664.384A1.863,1.863,0,0,1,1.335,5.468v-2.3A1.9,1.9,0,0,1,3.329,1.207a1.543,1.543,0,0,1,1.7,1.756v4.06Z" transform="translate(112.604 64.925)" fill="#006a3b"/>
    <path id="Vector-9" data-name="Vector" d="M.146.293.073.311,0,.384V13.04A2.892,2.892,0,0,0,1.335,10.9V.073L1.225,0Z" transform="translate(81.148 60.481)" fill="#006a3b"/>
    <path id="Vector-10" data-name="Vector" d="M35.795.11,35.722.037l-1.1.293-.073.018-.073.073V11.248l.146.494H25.462a.854.854,0,0,1-.439-.658V7.626c0-1.28.713-1.957,1.737-1.957h1.518a3.789,3.789,0,0,1,1.884.457l.091-.055.055-.219a2.106,2.106,0,0,0-2.195-1.39H26.742a2.765,2.765,0,0,0-3.018,2.871v2.945a1.694,1.694,0,0,0,.622,1.445H18.969V9.492c0-1.865-1.353-2.871-3.182-2.871S12.6,7.626,12.6,9.492v2.231H7.411V.091L7.319,0l-1.1.311L6.149.329,6.076.4v12c0,1.262-.384,2.652-2.634,2.652-2.871,0-2.688-2.4-2.688-2.4a3.874,3.874,0,0,1,.073-.86,3.107,3.107,0,0,1,.347-.969l-.037-.11-.165-.073-.11.037A3.937,3.937,0,0,0,0,13.095s-.256,3.2,3.475,3.2c3.9,0,3.9-3.219,3.9-3.219h5.432a2.993,2.993,0,0,0,2.963,1.683,2.993,2.993,0,0,0,2.963-1.683H34.99l1.116-.256.091-.091-.421-1.463Zm-18.143,11.5a1.731,1.731,0,0,1-1.865,1.957,1.711,1.711,0,0,1-1.847-1.957V9.785a1.7,1.7,0,0,1,1.847-1.939,1.718,1.718,0,0,1,1.865,1.939Z" transform="translate(42.737 60.445)" fill="#006a3b"/>
    <path id="Vector-11" data-name="Vector" d="M.055,0,0,.055v.8L.055.914h.8L.9.86v-.8L.86,0Z" transform="translate(53.769 115.055)" fill="#8a6d43"/>
    <path id="Vector-12" data-name="Vector" d="M.055,0,0,.055v.8L.055.914h.8L.914.86v-.8L.86,0Z" transform="translate(5.45 115.055)" fill="#8a6d43"/>
    <path id="Vector-13" data-name="Vector" d="M.055,0,0,.055v.8L.055.914h.8L.9.86v-.8L.86,0Z" transform="translate(52.288 115.055)" fill="#8a6d43"/>
    <path id="Vector-14" data-name="Vector" d="M.055,0,0,.055v.8L.055.914h.8L.9.86v-.8L.86,0Z" transform="translate(6.931 115.055)" fill="#8a6d43"/>
    <path id="Vector-15" data-name="Vector" d="M.037,0,0,.055v.8L.037.914h.8L.9.86v-.8L.841,0Z" transform="translate(59.494 115.055)" fill="#8a6d43"/>
    <path id="Vector-16" data-name="Vector" d="M14.229.037,14.174,0l-.64.165L13.5.183l-.037.037v6.31l.091.293H7.864a.543.543,0,0,1-.256-.384V4.426A.994.994,0,0,1,8.632,3.292H9.51a2.344,2.344,0,0,1,1.1.256l.055-.018L10.7,3.4a1.212,1.212,0,0,0-1.28-.8h-.8A1.608,1.608,0,0,0,6.858,4.261V5.98a.984.984,0,0,0,.366.841H3.182V2.762l-.055-.037-.64.165L2.4,2.908V7.59c0,.732-.384,1.28-1.116,1.28A1.2,1.2,0,0,1,.219,8.431L.165,8.413l-.146.073L0,8.541a1.675,1.675,0,0,0,1.5.914c.86,0,1.609-.384,1.683-1.884H13.808l.658-.165.055-.055-.238-.841Z" transform="translate(61.89 106.441)" fill="#8a6d43"/>
    <path id="Vector-17" data-name="Vector" d="M.091.165.055.183,0,.219V7.59A1.654,1.654,0,0,0,.768,6.346V.037L.732,0Z" transform="translate(77.618 106.441)" fill="#8a6d43"/>
    <path id="Vector-18" data-name="Vector" d="M15.2.512,15.143.476,14.5.64l-.037.018-.055.055V4.3l.091.293H10.534A.918.918,0,0,1,9.492,3.548V.53L9.437.494,8.8.658,8.76.677,8.705.732V3.566A.918.918,0,0,1,7.663,4.609H4.773A.918.918,0,0,1,3.731,3.566V.183L3.676.128l-.64.165A2.725,2.725,0,0,0,1.92,0,1.756,1.756,0,0,0,0,1.664V3.31A1.582,1.582,0,0,0,1.646,4.993,1.354,1.354,0,0,0,3,4.243,1.386,1.386,0,0,0,4.408,5.377H7.992A1.425,1.425,0,0,0,9.09,4.9a1.4,1.4,0,0,0,1.1.476h4.536l.658-.165.055-.055L15.2,4.316V.512ZM2.963,4.042a1.643,1.643,0,0,1-.969.219A1.084,1.084,0,0,1,.8,3.127V1.792A1.1,1.1,0,0,1,1.975.658a.9.9,0,0,1,.988,1.024V4.042Z" transform="translate(46.216 108.691)" fill="#8a6d43"/>
    <path id="Vector-19" data-name="Vector" d="M.841.9.9.841V.055L.841,0h-.8L0,.055V.841L.037.9Z" transform="translate(48.685 106.88)" fill="#8a6d43"/>
    <path id="Vector-20" data-name="Vector" d="M.841.9.9.841V.055L.841,0h-.8L0,.055V.841L.037.9Z" transform="translate(47.204 106.88)" fill="#8a6d43"/>
    <path id="Vector-21" data-name="Vector" d="M.841.9.9.841V.055L.841,0h-.8L0,.055V.841L.037.9Z" transform="translate(0.988 106.88)" fill="#8a6d43"/>
    <path id="Vector-22" data-name="Vector" d="M.841.9.9.841V.055L.841,0h-.8L0,.055V.841L.037.9Z" transform="translate(2.469 106.88)" fill="#8a6d43"/>
    <path id="Vector-23" data-name="Vector" d="M23.812.037,23.757,0l-.64.165L23.08.183l-.055.037v6.31l.073.293H21.014a4.67,4.67,0,0,1-1.28-.183,2.088,2.088,0,0,0,.11-.713v-2.6h-.018l-.073-.055-.622.165-.037.018-.018.018V5.761a.969.969,0,0,1-1.024,1.116,4.956,4.956,0,0,1-1.006-.219,2.5,2.5,0,0,0,.11-.677V3.292L17.1,3.237l-.622.165-.037.018-.037.037V5.724c0,.823-.384,1.134-.933,1.134a5.941,5.941,0,0,1-.988-.219V3.292l-.073-.055L13.79,3.4l-.037.018-.037.037V6.419l-.091.347H8.139a.494.494,0,0,1-.256-.384V4.371A.994.994,0,0,1,8.907,3.237h.878a2.344,2.344,0,0,1,1.1.256l.055-.018.018-.128a1.235,1.235,0,0,0-1.28-.8h-.8A1.6,1.6,0,0,0,7.114,4.206V5.926a1,1,0,0,0,.366.841H4.28c-.347,0-.476-.055-.567-.146V2.707L3.676,2.67l-.64.165A2.607,2.607,0,0,0,1.92,2.524,1.756,1.756,0,0,0,0,4.188V5.834a1.607,1.607,0,0,0,1.646,1.7,1.32,1.32,0,0,0,1.335-.75l-.055.421v.329a1.128,1.128,0,0,1-1.134,1.28A1.2,1.2,0,0,1,.732,8.376L.677,8.358.53,8.431l-.018.055a1.656,1.656,0,0,0,1.5.914c.878,0,1.646-.4,1.683-1.993a1.858,1.858,0,0,0,.677.128h9.693l.055-.037.274-.75a1.28,1.28,0,0,0,1.353.786,1.218,1.218,0,0,0,1.189-.713,1.489,1.489,0,0,0,1.408.713,1.394,1.394,0,0,0,1.262-.713,1.461,1.461,0,0,0,1.335.713h2.378l.658-.165.055-.055-.238-.841V.037ZM2.945,6.675a1.643,1.643,0,0,1-.969.219A1.094,1.094,0,0,1,.786,5.761V4.408a1.1,1.1,0,0,1,1.17-1.134A.9.9,0,0,1,2.945,4.3Z" transform="translate(16.625 106.441)" fill="#8a6d43"/>
    <path id="Vector-24" data-name="Vector" d="M8.943.53,8.888.494l-.64.165L8.212.677,8.157.732V4.316l.073.293H4.755A.918.918,0,0,1,3.713,3.566V.183L3.658.128l-.64.165A2.725,2.725,0,0,0,1.9,0,1.73,1.73,0,0,0,0,1.664V3.31A1.582,1.582,0,0,0,1.646,4.993a1.412,1.412,0,0,0,1.372-.75A1.386,1.386,0,0,0,4.426,5.377H8.449l.658-.165.037-.055-.238-.841Zm-5.98,1.5V4.078a1.593,1.593,0,0,1-.969.219A1.084,1.084,0,0,1,.8,3.164V1.811A1.1,1.1,0,0,1,1.975.677.9.9,0,0,1,2.963,1.7V2.03Z" transform="translate(0 108.672)" fill="#8a6d43"/>
    <path id="Vector-25" data-name="Vector" d="M4.682,1.664A1.608,1.608,0,0,0,2.926,0h-.8A1.212,1.212,0,0,0,.841.8L.878.933.933.951A2.192,2.192,0,0,1,2.03.695h.878c.6,0,1.006.4,1.006,1.134v2.1l.091.293H1.463a4.07,4.07,0,0,1-1.39-.219L0,4.152a1.465,1.465,0,0,0,1.372.841H4.225l.658-.165.055-.055L4.7,3.932V1.664" transform="translate(10.224 109.038)" fill="#8a6d43"/>
    <path id="Vector-26" data-name="Vector" d="M.091.165.055.183,0,.219V7.59A1.654,1.654,0,0,0,.768,6.346V.037L.695,0Z" transform="translate(41.936 106.441)" fill="#8a6d43"/>
    <path id="Vector-27" data-name="Vector" d="M.86.9.9.841V.055L.86,0h-.8L0,.055V.841L.055.9Z" transform="translate(82.885 106.88)" fill="#8a6d43"/>
    <path id="Vector-28" data-name="Vector" d="M.86.9.914.841V.055L.86,0h-.8L0,.055V.841L.055.9Z" transform="translate(84.366 106.88)" fill="#8a6d43"/>
    <path id="Vector-29" data-name="Vector" d="M.713,0,.091.165.055.183,0,.219V7.59A1.654,1.654,0,0,0,.768,6.346V.037Z" transform="translate(118.182 106.441)" fill="#8a6d43"/>
    <path id="Vector-30" data-name="Vector" d="M34.73.037,34.676,0l-.64.165L34,.183l-.037.037v6.31l.073.293H31.073v-1.3a1.66,1.66,0,0,0-1.847-1.683,1.65,1.65,0,0,0-1.847,1.683v1.3H24.434v-1.3a1.66,1.66,0,0,0-1.847-1.683A1.65,1.65,0,0,0,20.74,5.523v1.3h-2.03c-.567,0-1.042-.219-1.042-1.061V.037L17.63,0l-.64.165-.037.018L16.9.219V5.761a.931.931,0,0,1-1.042,1.061H13.113a.984.984,0,0,0,.366-.841V4.9a1.608,1.608,0,0,0-1.756-1.664H8.139c-.622,0-.9-.293-.9-.951V1.865c.018-.622.293-.9.9-.9h.53a2.344,2.344,0,0,1,1.1.256l.055-.018.018-.128a1.235,1.235,0,0,0-1.28-.8H8.139a1.487,1.487,0,0,0-1.664,1.5v.658a1.487,1.487,0,0,0,1.664,1.5h3.548c.6,0,1.006.4,1.006,1.134V6.438a.543.543,0,0,1-.256.384H4.773c-.567,0-1.042-.219-1.042-1.061V2.4l-.055-.055-.64.183A2.618,2.618,0,0,0,1.92,2.231,1.756,1.756,0,0,0,0,3.9V5.542A1.592,1.592,0,0,0,1.646,7.224,1.354,1.354,0,0,0,3,6.474,1.387,1.387,0,0,0,4.408,7.59H16.131a1.372,1.372,0,0,0,1.1-.476,1.425,1.425,0,0,0,1.1.476h2.487a1.733,1.733,0,0,0,1.719.988,1.733,1.733,0,0,0,1.719-.988h3.255a1.733,1.733,0,0,0,1.719.988,1.733,1.733,0,0,0,1.719-.988h3.329l.658-.146.055-.055-.238-.841V.037ZM2.945,4.261V6.31a1.593,1.593,0,0,1-.969.219A1.084,1.084,0,0,1,.786,5.4V4.042a1.1,1.1,0,0,1,1.17-1.134.9.9,0,0,1,.988,1.024Zm20.7,2.487a1.08,1.08,0,1,1-2.158,0V5.688a1.08,1.08,0,1,1,2.158,0Zm6.657,0a1.08,1.08,0,1,1-2.158,0V5.688a1.08,1.08,0,1,1,2.158,0Z" transform="translate(81.934 106.441)" fill="#8a6d43"/>
    <path id="Vector-31" data-name="Vector" d="M6.291.219l-1.1.293A4.541,4.541,0,0,0,3.292,0,3,3,0,0,0,0,2.871V5.688A2.729,2.729,0,0,0,2.816,8.6a2.233,2.233,0,0,0,2.3-1.3l-.091.732V8.6a1.943,1.943,0,0,1-1.92,2.195,2.105,2.105,0,0,1-1.829-.732l-.091-.037-.238.128-.037.091a2.4,2.4,0,0,0,2.231,1.573c1.536,0,3.219-.695,3.219-3.548V.311Zm-1.244,6.8a2.749,2.749,0,0,1-1.664.384A1.863,1.863,0,0,1,1.335,5.468v-2.3A1.9,1.9,0,0,1,3.329,1.207a1.543,1.543,0,0,1,1.7,1.756v4.06Z" transform="translate(112.604 88.17)" fill="#006a3b"/>
    <path id="Vector-32" data-name="Vector" d="M1.445,1.518l.091-.073V.073L1.445,0H.091L0,.073V1.445l.091.073Z" transform="translate(3.475 84.622)" fill="#006a3b"/>
    <path id="Vector-33" data-name="Vector" d="M1.445,1.518l.073-.073V.073L1.445,0H.073L0,.073V1.445l.073.073Z" transform="translate(1.134 84.622)" fill="#006a3b"/>
    <path id="Vector-34" data-name="Vector" d="M21.087,6.931a5.132,5.132,0,0,1-.567.146,1.547,1.547,0,0,1-.439.073H18.2a1.854,1.854,0,0,1-1.372-.494,2.021,2.021,0,0,1-.476-1.445V3.127a2.021,2.021,0,0,1,.476-1.445A1.8,1.8,0,0,1,18.2,1.189a1.86,1.86,0,0,1,1.335.476,1.955,1.955,0,0,1,.512,1.372l.073.091h1.17l.073-.091V2.853a2.874,2.874,0,0,0-.238-1.225,2.715,2.715,0,0,0-.658-.9A2.965,2.965,0,0,0,19.459.183a4.445,4.445,0,0,0-2.524,0A2.965,2.965,0,0,0,15.93.732a2.539,2.539,0,0,0-.658.9,2.874,2.874,0,0,0-.238,1.225V5.487a2.76,2.76,0,0,0,.494,1.664H11.211V.2L11.138.128,9.986.293,9.913.4V7.169H6.054V.329L5.98.238,4.9.53C4.719.439,4.517.366,4.334.293a4.715,4.715,0,0,0-.6-.183A3.15,3.15,0,0,0,3.018.037,3.6,3.6,0,0,0,1.829.219,2.881,2.881,0,0,0,.878.768a2.5,2.5,0,0,0-.64.9A3.18,3.18,0,0,0,0,2.89v2.8A2.911,2.911,0,0,0,.732,7.846a2.468,2.468,0,0,0,1.811.732,3.323,3.323,0,0,0,1.042-.146,2.881,2.881,0,0,0,.677-.366,2.584,2.584,0,0,0,.384-.421,3.681,3.681,0,0,0,.183-.329l-.073.878v.366H19.606a2.8,2.8,0,0,0,.933-.128A2.766,2.766,0,0,0,21.2,8.1a1.3,1.3,0,0,0,.4-.439,4.33,4.33,0,0,0,.238-.622l-.073-.274A2.619,2.619,0,0,0,21.087,6.931Zm-16.35.055c-.073.018-.183.055-.329.091s-.311.091-.476.128-.329.073-.476.11a1.608,1.608,0,0,1-.366.055,2.631,2.631,0,0,1-.677-.091,1.594,1.594,0,0,1-.567-.329,1.432,1.432,0,0,1-.384-.6,2.628,2.628,0,0,1-.146-.9v-2.3A2.021,2.021,0,0,1,1.792,1.7a1.639,1.639,0,0,1,1.244-.494,1.522,1.522,0,0,1,1.7,1.737V6.986Z" transform="translate(0.037 87.75)" fill="#006a3b"/>
    <path id="Vector-35" data-name="Vector" d="M1.445,1.518l.091-.073V.073L1.445,0H.091L0,.073V1.445l.091.073Z" transform="translate(36.925 84.604)" fill="#006a3b"/>
    <path id="Vector-36" data-name="Vector" d="M1.445,1.518l.073-.073V.073L1.445,0H.073L0,.073V1.445l.073.073Z" transform="translate(39.284 84.604)" fill="#006a3b"/>
    <path id="Vector-37" data-name="Vector" d="M.073,0,0,.091V1.445l.073.091H1.445l.073-.091V.091L1.445,0Z" transform="translate(45.557 98.339)" fill="#006a3b"/>
    <path id="Vector-38" data-name="Vector" d="M26.7,10.864V7.444a2.874,2.874,0,0,0-.238-1.225,2.715,2.715,0,0,0-.658-.9A2.965,2.965,0,0,0,24.8,4.773a3.972,3.972,0,0,0-1.262-.183H22.331a2.919,2.919,0,0,0-.951.128,2.457,2.457,0,0,0-.658.329,1.668,1.668,0,0,0-.439.439,1.927,1.927,0,0,0-.238.476l.073.274c.238-.091.457-.165.677-.238l.549-.165a1.563,1.563,0,0,1,.457-.073h1.756a1.922,1.922,0,0,1,1.372.476A2.021,2.021,0,0,1,25.4,7.681V11.65l.018.073H16.368V4.773L16.3,4.7l-1.152.165-.073.091v6.767H11.376V9.492c0-1.865-1.353-2.871-3.182-2.871S5.011,7.626,5.011,9.492v2.231H2.926a1.356,1.356,0,0,1-1.134-.494A1.948,1.948,0,0,1,1.3,9.785V.073L1.225,0,.073.165,0,.256v9.931a2.874,2.874,0,0,0,.238,1.225A2.468,2.468,0,0,0,.9,12.29a2.8,2.8,0,0,0,1.006.549,2.906,2.906,0,0,0,1.079.183H5.249A2.993,2.993,0,0,0,8.212,14.7a2.993,2.993,0,0,0,2.963-1.683H26.1l.988-.146.073-.091-.4-1.445v-.476ZM10.022,11.6a1.731,1.731,0,0,1-1.865,1.957A1.711,1.711,0,0,1,6.31,11.6V9.766A1.7,1.7,0,0,1,8.157,7.828a1.718,1.718,0,0,1,1.865,1.939Z" transform="translate(23.172 83.196)" fill="#006a3b"/>
    <path id="Vector-39" data-name="Vector" d="M6.931.183,6.84.274V9.766a1.948,1.948,0,0,1-.494,1.445,1.81,1.81,0,0,1-1.353.494H4.426l-.146-.512V.073L4.206,0,3.054.165,2.981.256V11.632l.037.073H1.756a1.563,1.563,0,0,1-.457-.073c-.183-.055-.366-.11-.549-.146-.2-.073-.439-.146-.677-.238L0,11.522a2.011,2.011,0,0,0,.219.6,1.832,1.832,0,0,0,.421.421,2.736,2.736,0,0,0,1.573.476h2.78a3.972,3.972,0,0,0,1.262-.183,2.965,2.965,0,0,0,1.006-.549,2.641,2.641,0,0,0,.658-.878,2.874,2.874,0,0,0,.238-1.225V.073L8.084,0Z" transform="translate(51.557 83.196)" fill="#006a3b"/>
    <path id="Vector-40" data-name="Vector" d="M.091.165,0,.256V12.8l.073.073H1.244l.073-.073V.055L1.244,0Z" transform="translate(62.329 83.214)" fill="#006a3b"/>
    <path id="Vector-41" data-name="Vector" d="M1.445,1.518l.073-.073V.073L1.445,0H.073L0,.073V1.445l.073.073Z" transform="translate(69.955 84.622)" fill="#006a3b"/>
    <path id="Vector-42" data-name="Vector" d="M1.463,1.518l.073-.073V.073L1.463,0H.091L0,.073V1.445l.091.073Z" transform="translate(72.296 84.622)" fill="#006a3b"/>
    <path id="Vector-43" data-name="Vector" d="M.073,0,0,.091V1.445l.073.091H1.445l.091-.091V.091L1.445,0Z" transform="translate(77.49 98.339)" fill="#006a3b"/>
    <path id="Vector-44" data-name="Vector" d="M.073,0,0,.091V1.445l.073.091H1.445l.073-.091V.091L1.445,0Z" transform="translate(79.849 98.339)" fill="#006a3b"/>
    <path id="Vector-45" data-name="Vector" d="M.091,0,0,.091V1.445l.091.091H1.445l.091-.091V.091L1.445,0Z" transform="translate(8.669 98.339)" fill="#006a3b"/>
    <path id="Vector-46" data-name="Vector" d="M.073,0,0,.091V1.445l.073.091H1.445l.073-.091V.091L1.445,0Z" transform="translate(11.029 98.339)" fill="#006a3b"/>
    <path id="Vector-47" data-name="Vector" d="M1.445,1.518l.091-.073V.073L1.445,0H.073L0,.073V1.445l.073.073Z" transform="translate(94.096 84.622)" fill="#006a3b"/>
    <path id="Vector-48" data-name="Vector" d="M1.445,1.518l.073-.073V.073L1.445,0H.073L0,.073V1.445l.073.073Z" transform="translate(98.12 84.604)" fill="#006a3b"/>
    <path id="Vector-49" data-name="Vector" d="M1.445,1.518l.091-.073V.073L1.445,0H.091L0,.073V1.445l.091.073Z" transform="translate(100.461 84.604)" fill="#006a3b"/>
    <path id="Vector-50" data-name="Vector" d="M.146.293.073.311,0,.384V13.04A2.892,2.892,0,0,0,1.335,10.9V.073L1.225,0Z" transform="translate(108.507 83.214)" fill="#006a3b"/>
    <path id="Vector-51" data-name="Vector" d="M37.053.073,36.98,0l-1.1.293L35.81.311l-.073.073V11.211l.146.494H31.877V4.755L31.8,4.682l-1.152.165-.091.091V11.7H26.683V4.755l-.091-.073-1.152.165-.073.091V11.7h-3.9V9.474c0-1.865-1.353-2.871-3.182-2.871s-3.182,1.006-3.182,2.871V11.7H11.248V4.755l-.091-.073L10,4.847l-.073.091V11.7H6.072V4.865L5.98,4.792,4.9,5.084c-.183-.091-.384-.165-.567-.238a4.715,4.715,0,0,0-.6-.183,3.046,3.046,0,0,0-.713-.073,3.6,3.6,0,0,0-1.189.183,2.881,2.881,0,0,0-.951.549,2.5,2.5,0,0,0-.64.9A3.18,3.18,0,0,0,0,7.444v2.8A2.911,2.911,0,0,0,.732,12.4a2.468,2.468,0,0,0,1.811.732,2.831,2.831,0,0,0,1.042-.165,2.34,2.34,0,0,0,.677-.366,2.584,2.584,0,0,0,.384-.421,2.177,2.177,0,0,0,.183-.311l-.073.713v.512H15.326a2.993,2.993,0,0,0,2.963,1.683,2.993,2.993,0,0,0,2.963-1.683H36.267l1.134-.256.091-.091-.421-1.463ZM4.773,11.522c-.073.018-.183.055-.329.091s-.311.091-.476.128-.329.073-.476.11a1.608,1.608,0,0,1-.366.055,2.631,2.631,0,0,1-.677-.091,1.594,1.594,0,0,1-.567-.329,1.432,1.432,0,0,1-.384-.6,2.628,2.628,0,0,1-.146-.9v-2.3a2.021,2.021,0,0,1,.476-1.445,1.639,1.639,0,0,1,1.244-.494,1.522,1.522,0,0,1,1.7,1.737v4.042Zm15.381.055a1.731,1.731,0,0,1-1.865,1.957,1.711,1.711,0,0,1-1.847-1.957V9.748a1.7,1.7,0,0,1,1.847-1.939,1.718,1.718,0,0,1,1.865,1.939Z" transform="translate(68.839 83.214)" fill="#006a3b"/>
    <path id="Vector-52" data-name="Vector" d="M6.657,6.365c4.17.329,8.084.732,11.723,1.042A37.351,37.351,0,0,0,4.334,0C2.908.53,1.463,1.116,0,1.737A42.634,42.634,0,0,1,6.657,6.365Z" transform="translate(127.583 11.906)" fill="#c0932d"/>
    <path id="Vector-53" data-name="Vector" d="M14.046,0A37.492,37.492,0,0,0,0,7.407c3.6-.311,7.48-.658,11.6-.951A42.309,42.309,0,0,1,18.38,1.719C16.9,1.116,15.454.549,14.046,0Z" transform="translate(91.883 11.906)" fill="#c0932d"/>
    <path id="Vector-54" data-name="Vector" d="M14.393.394A34.243,34.243,0,0,0,0,1.217c2.615.732,5.322,1.609,8.065,2.652A47.9,47.9,0,0,1,15.82,2.222C15.363,1.582,14.887.979,14.393.394Z" transform="translate(97.845 8.056)" fill="#fcb615"/>
    <path id="Vector-55" data-name="Vector" d="M2.579,3.9Q3.594,5.651,4.444,7.462A144,144,0,0,1,18.728,18.527c-1.664-6-5.852-12.747-12.162-18.106C4.426.256,2.25.091,0,0A42.26,42.26,0,0,1,2.579,3.9Z" transform="translate(127.674 17.85)" fill="#fcb615"/>
    <path id="Vector-56" data-name="Vector" d="M7.754,3.86c2.762-1.042,5.45-1.939,8.065-2.652A34.524,34.524,0,0,0,1.427.385C.951.971.476,1.592,0,2.214A48.742,48.742,0,0,1,7.754,3.86Z" transform="translate(124.163 8.046)" fill="#8a6d43"/>
    <path id="Vector-57" data-name="Vector" d="M18.636,0c-2.25.11-4.462.256-6.6.4C5.8,5.743,1.646,12.436,0,18.4A138.714,138.714,0,0,1,14.284,7.334a39.114,39.114,0,0,1,1.865-3.566A41.935,41.935,0,0,1,18.636,0Z" transform="translate(91.426 17.978)" fill="#8a6d43"/>
    <path id="Vector-58" data-name="Vector" d="M.439.238C.293.165.146.073,0,0,.128,1.481.219,2.963.274,4.481c4.59,7.407,10.717,20.026,12.711,27.47A46.892,46.892,0,0,0,9.346,5.615C6.529,3.749,3.566,1.939.439.238Z" transform="translate(122.773 19.661)" fill="#619b42"/>
    <path id="Vector-59" data-name="Vector" d="M9.986,5.066c0-.037.037-.146.055-.238A36.1,36.1,0,0,0,0,0,46.19,46.19,0,0,1,5.432,5.761c1.39.2,2.816.476,4.243.823C9.785,6.054,9.876,5.56,9.986,5.066Z" transform="translate(106.807 2.707)" fill="#619b42"/>
    <path id="Vector-60" data-name="Vector" d="M0,4.847a.716.716,0,0,1,.055.238c.11.494.219,1.006.311,1.5,1.427-.347,2.853-.622,4.243-.823A46.26,46.26,0,0,1,10.059,0,36.55,36.55,0,0,0,0,4.847Z" transform="translate(120.981 2.67)" fill="#619b42"/>
    <path id="Vector-61" data-name="Vector" d="M13.061.238c-3.127,1.7-6.09,3.511-8.907,5.4A47.034,47.034,0,0,0,.515,31.969c1.993-7.444,8.12-20.081,12.711-27.488.055-1.518.146-3.018.274-4.481A2.483,2.483,0,0,1,13.061.238Z" transform="translate(101.554 19.661)" fill="#619b42"/>
    <path id="Vector-62" data-name="Vector" d="M4.133,7.517A68.476,68.476,0,0,0,2.067,0,69.982,69.982,0,0,0,0,7.535c.695.457,1.39.951,2.067,1.481C2.762,8.468,3.457,7.974,4.133,7.517Z" transform="translate(116.848)" fill="#006a3b"/>
    <path id="Vector-63" data-name="Vector" d="M4.225,0C2.78,2.176,1.408,4.371.146,6.419L.11,6.456C.037,7.9,0,9.382,0,10.864A90.806,90.806,0,0,0,4.225,39.431,90.806,90.806,0,0,0,8.449,10.864c0-1.481-.037-2.944-.091-4.371L8.34,6.474,8.3,6.419C7.041,4.371,5.67,2.176,4.225,0Z" transform="translate(114.689 17.685)" fill="#006a3b"/>
    <path id="Vector-64" data-name="Vector" d="M4.9,3.073C6.163,2.4,7.425,1.792,8.687,1.244,8.376.823,8.065.421,7.754,0A47.9,47.9,0,0,0,0,1.646c1.427.53,2.871,1.116,4.334,1.737C4.517,3.292,4.7,3.164,4.9,3.073Z" transform="translate(105.929 10.26)" fill="#bf7529"/>
    <path id="Vector-65" data-name="Vector" d="M0,1.079c.878.988,1.737,2.03,2.542,3.127,2.25.11,4.444.256,6.566.421A41.433,41.433,0,0,0,2.451,0C1.628.347.8.713,0,1.079Z" transform="translate(125.132 13.643)" fill="#bf7529"/>
    <path id="Vector-66" data-name="Vector" d="M0,1.225c1.262.549,2.524,1.152,3.786,1.829.183.11.366.219.567.329,1.463-.622,2.908-1.189,4.334-1.737A47.9,47.9,0,0,0,.933,0C.6.4.293.8,0,1.225Z" transform="translate(123.23 10.278)" fill="#6d461b"/>
    <path id="Vector-67" data-name="Vector" d="M9.236,1.061C8.413.695,7.608.329,6.785,0A41.173,41.173,0,0,0,0,4.737c2.14-.146,4.334-.293,6.6-.4A33.236,33.236,0,0,1,9.236,1.061Z" transform="translate(103.478 13.662)" fill="#6d461b"/>
    <path id="Vector-68" data-name="Vector" d="M4.883.713C4.7.476,4.536.238,4.353,0,3.091.549,1.829,1.152.567,1.829.384,1.939.2,2.048,0,2.158c.8.347,1.628.695,2.451,1.061C3.219,2.341,4.042,1.5,4.883.713Z" transform="translate(110.263 11.504)" fill="#6a3515"/>
    <path id="Vector-69" data-name="Vector" d="M2.432,3.219c.823-.366,1.628-.732,2.451-1.061-.183-.11-.366-.219-.567-.329C3.054,1.152,1.792.549.53,0,.347.238.183.476,0,.713.823,1.5,1.646,2.341,2.432,3.219Z" transform="translate(122.7 11.504)" fill="#6a3515"/>
    <path id="Vector-70" data-name="Vector" d="M4.1,1.573c.037-.256.091-.494.146-.75C2.816.476,1.39.2,0,0,.494.585.951,1.207,1.445,1.829,2.3,1.7,3.2,1.628,4.1,1.573Z" transform="translate(112.257 8.45)" fill="#5c7233"/>
    <path id="Vector-71" data-name="Vector" d="M5.084.165C3.42.091,1.719.018,0,0,.055.658.128,1.317.183,1.993c.146.073.293.165.439.238,3.127,1.7,6.09,3.511,8.907,5.4A36.858,36.858,0,0,0,7.663,4.06,38.83,38.83,0,0,0,5.084.165Z" transform="translate(122.59 17.685)" fill="#5c7233"/>
    <path id="Vector-72" data-name="Vector" d="M.183,2.963c1.719.018,3.42.091,5.084.165C4.462,2.03,3.6.988,2.725,0,1.829.4.914.823,0,1.262.055,1.811.128,2.378.183,2.963Z" transform="translate(122.407 14.723)" fill="#544f21"/>
    <path id="Vector-73" data-name="Vector" d="M2.67,0C1.774.055.9.146,0,.256c.311.4.622.823.933,1.244.53-.219,1.042-.421,1.573-.622C2.56.567,2.6.274,2.67,0Z" transform="translate(113.683 10.022)" fill="#544f21"/>
    <path id="Vector-74" data-name="Vector" d="M1.5.439C1.518.293,1.555.146,1.573,0,1.042.2.53.4,0,.622c.183.238.347.476.53.713C.841,1.024,1.17.732,1.5.439Z" transform="translate(114.616 10.882)" fill="#302b13"/>
    <path id="Vector-75" data-name="Vector" d="M.677,0C.457.311.219.622,0,.933.146,1.865.274,2.8.384,3.749,1.3,3.31,2.213,2.89,3.109,2.487,2.323,1.628,1.5.786.677,0Z" transform="translate(122.023 12.217)" fill="#302b13"/>
    <path id="Vector-76" data-name="Vector" d="M9.346,1.9c.055-.64.11-1.28.183-1.9C7.773.055,6.054.128,4.353.219A44.712,44.712,0,0,0,1.865,3.987C1.17,5.157.567,6.346,0,7.553c2.816-1.884,5.779-3.694,8.907-5.4C9.053,2.067,9.2,1.993,9.346,1.9Z" transform="translate(105.728 17.759)" fill="#3b4e26"/>
    <path id="Vector-77" data-name="Vector" d="M.165,1.573c.9.055,1.774.146,2.652.256C3.292,1.207,3.768.6,4.243,0,2.853.2,1.445.476,0,.823.073,1.061.11,1.317.165,1.573Z" transform="translate(121.328 8.45)" fill="#3b4e26"/>
    <path id="Vector-78" data-name="Vector" d="M2.652,0A41.941,41.941,0,0,0,0,3.255c1.7-.091,3.42-.165,5.176-.219.055-.6.128-1.189.2-1.792C4.462.823,3.548.4,2.652,0Z" transform="translate(110.062 14.723)" fill="#30351b"/>
    <path id="Vector-79" data-name="Vector" d="M1.719,1.5c.311-.421.622-.823.933-1.244C1.756.146.878.055,0,0,.055.293.11.567.146.86.658,1.079,1.189,1.28,1.719,1.5Z" transform="translate(121.511 10.004)" fill="#30351b"/>
    <path id="Vector-80" data-name="Vector" d="M.073.439c.329.293.658.585.969.9.183-.238.347-.476.53-.713C1.042.4.512.2,0,0A3.662,3.662,0,0,0,.073.439Z" transform="translate(121.657 10.882)" fill="#302814"/>
    <path id="Vector-81" data-name="Vector" d="M3.109.951C2.89.64,2.652.311,2.432,0,1.591.786.786,1.628,0,2.506q1.344.6,2.743,1.262C2.835,2.816,2.963,1.865,3.109.951Z" transform="translate(112.714 12.217)" fill="#302814"/>
    <path id="Vector-82" data-name="Vector" d="M.969.9C.658.585.329.293,0,0,.11.6.2,1.207.293,1.829.512,1.518.732,1.207.969.9Z" transform="translate(121.73 11.321)" fill="#162213"/>
    <path id="Vector-83" data-name="Vector" d="M0,.9c.219.311.457.622.677.951C.768,1.225.86.6.969,0,.64.293.311.585,0,.9Z" transform="translate(115.146 11.321)" fill="#162213"/>
    <path id="Vector-84" data-name="Vector" d="M.366,0A.976.976,0,0,0,.311.238C.2.732.11,1.244,0,1.737c.512.128,1.042.274,1.555.421.293-.238.585-.457.86-.677C1.737.951,1.061.457.366,0Z" transform="translate(116.482 7.517)" fill="#01542c"/>
    <path id="Vector-85" data-name="Vector" d="M0,0C1.427,2.195,2.8,4.371,4.078,6.419l.037.055c-.055-1.518-.146-3.018-.274-4.481C2.542,1.3,1.262.64,0,0Z" transform="translate(118.932 17.685)" fill="#01542c"/>
    <path id="Vector-86" data-name="Vector" d="M1.7.421C1.189.274.658.128.146,0,.091.256.055.494,0,.75.457.713.9.695,1.353.695,1.481.6,1.591.512,1.7.421Z" transform="translate(116.335 9.254)" fill="#064321"/>
    <path id="Vector-87" data-name="Vector" d="M0,.014c1.262.64,2.542,1.3,3.841,1.993C3.786,1.331,3.731.672,3.658.014,2.451,0,1.225,0,0,.014Z" transform="translate(118.932 17.672)" fill="#064321"/>
    <path id="Vector-88" data-name="Vector" d="M.732.64C.988.421,1.262.2,1.518,0L.165.055C.11.347.055.622,0,.914.238.823.494.713.732.64Z" transform="translate(116.188 9.967)" fill="#0e2b17"/>
    <path id="Vector-89" data-name="Vector" d="M3.658,1.7C3.6,1.134,3.53.567,3.475,0,2.323.549,1.17,1.1,0,1.7v.018C1.225,1.683,2.451,1.683,3.658,1.7Z" transform="translate(118.932 15.985)" fill="#0b2c19"/>
    <path id="Vector-90" data-name="Vector" d="M.073.274A3.662,3.662,0,0,0,0,.713C.274.476.53.219.8,0,.567.073.311.183.073.274Z" transform="translate(116.116 10.607)" fill="#0c1c0f"/>
    <path id="Vector-91" data-name="Vector" d="M0,4.517c1.17-.585,2.323-1.152,3.475-1.7C3.365,1.865,3.237.914,3.091,0,2.03,1.481.988,3,0,4.517Z" transform="translate(118.932 13.15)" fill="#0a1d11"/>
    <path id="Vector-92" data-name="Vector" d="M4.115,0Q2.195.96.274,1.975C.146,3.438.055,4.938,0,6.456l.037-.037C1.3,4.371,2.67,2.176,4.115,0Z" transform="translate(114.799 17.685)" fill="#01542c"/>
    <path id="Vector-93" data-name="Vector" d="M.878,2.158c.53-.146,1.042-.293,1.555-.421-.091-.512-.2-1.006-.311-1.5A2.385,2.385,0,0,1,2.067,0C1.372.476.695.951,0,1.481.293,1.7.585,1.92.878,2.158Z" transform="translate(118.913 7.517)" fill="#01542c"/>
    <path id="Vector-94" data-name="Vector" d="M0,1.993C1.3,1.3,2.56.64,3.841,0,2.615.018,1.39.055.183.091.11.732.055,1.353,0,1.993Z" transform="translate(115.073 17.667)" fill="#0d2d19"/>
    <path id="Vector-95" data-name="Vector" d="M1.7.75C1.646.494,1.609.238,1.555,0,1.042.128.512.256,0,.421.11.512.219.6.347.695.786.695,1.244.713,1.7.75Z" transform="translate(119.792 9.273)" fill="#0d2d19"/>
    <path id="Vector-96" data-name="Vector" d="M.786.658c.238.091.494.183.75.274C1.481.64,1.427.366,1.372.073.914.037.457.018,0,0,.274.219.53.421.786.658Z" transform="translate(120.121 9.949)" fill="#0d1f12"/>
    <path id="Vector-97" data-name="Vector" d="M3.658,1.683C2.487,1.1,1.335.53.2,0,.128.585.055,1.189,0,1.792,1.189,1.737,2.414,1.719,3.658,1.683Z" transform="translate(115.256 15.985)" fill="#0b1f12"/>
    <path id="Vector-98" data-name="Vector" d="M0,2.816c1.152.549,2.3,1.1,3.457,1.683C2.451,2.981,1.427,1.463.366,0,.238.914.11,1.865,0,2.816Z" transform="translate(115.439 13.168)" fill="#0c190f"/>
    <path id="Vector-99" data-name="Vector" d="M.75.274C.512.183.256.091,0,0,.274.238.549.476.823.732.786.567.768.421.75.274Z" transform="translate(120.907 10.607)" fill="#0e190e"/>
    <path id="Vector-100" data-name="Vector" d="M.86.914H.9C1.17.823,1.463.75,1.737.677,1.445.439,1.152.219.86,0,.567.219.274.457,0,.677.274.75.567.841.841.914Z" transform="translate(118.054 9.016)" fill="#094722"/>
    <path id="Vector-101" data-name="Vector" d="M1.189.238C.914.146.622.073.347,0,.219.091.11.183,0,.274.4.256.786.238,1.189.238Z" transform="translate(117.707 9.693)" fill="#0c311b"/>
    <path id="Vector-102" data-name="Vector" d="M1.975,0c-.4,0-.786.018-1.189.037C.53.256.256.457,0,.677.677.439,1.335.219,1.993,0Z" transform="translate(116.92 9.931)" fill="#0e2113"/>
    <path id="Vector-103" data-name="Vector" d="M1.189.274C1.079.183.969.091.841,0,.567.073.274.165,0,.238.4.256.8.274,1.189.274Z" transform="translate(118.932 9.675)" fill="#122314"/>
    <path id="Vector-104" data-name="Vector" d="M2.012.677C1.756.457,1.5.238,1.225.037.823.018.439,0,.037,0H0C.695.2,1.353.421,2.012.677Z" transform="translate(118.895 9.931)" fill="#0e1b0f"/>
    <path id="Vector-105" data-name="Vector" d="M5.907,1.408C5.633,1.17,5.359.914,5.084.677,4.426.439,3.767.2,3.091,0,2.432.2,1.756.439,1.1.677c-.274.238-.53.476-.8.713-.11.6-.2,1.225-.293,1.847,1.061,1.481,2.085,3,3.091,4.5h.018C4.115,6.218,5.139,4.7,6.2,3.219,6.108,2.634,6.017,2.012,5.907,1.408Z" transform="translate(115.823 9.912)" fill="#090e0a"/>
  </g>
</svg>
