<svg id="Frame_3323" data-name="Frame 3323" xmlns="http://www.w3.org/2000/svg" width="204.409" height="76" viewBox="0 0 204.409 76">
  <g id="moj-logo_1" data-name="moj-logo 1">
    <g id="x37_uoDrF.tif" data-name="x37 uoDrF.tif" transform="translate(131.699)">
      <g id="Group">
        <path id="Vector" d="M36.207,0l.3.6a7.423,7.423,0,0,0,1.8,2.1,5.583,5.583,0,0,0,2.8,1c.7.1,1.4.1,2.2.2a19.189,19.189,0,0,1,8,2.5,13.426,13.426,0,0,1,5.1,5.2,1,1,0,0,0,.5.4,32.875,32.875,0,0,1,5.1,1.5,16.784,16.784,0,0,1,5.3,3.1,15.249,15.249,0,0,1,4.5,6.4,23.9,23.9,0,0,1,.8,2.5c0,.1.1.3.1.4V75.8c0,.2-.1.2-.2.2H.311c-.4,0-.3,0-.3-.3V26.5a8.611,8.611,0,0,1,.9-3.9A14.148,14.148,0,0,1,4.31,18a21.874,21.874,0,0,1,8.4-5,24.473,24.473,0,0,1,2.9-.8.552.552,0,0,0,.5-.3,14.028,14.028,0,0,1,7.3-6.3,18.774,18.774,0,0,1,4.5-1.2c1.1-.2,2.3-.3,3.4-.4a5.755,5.755,0,0,0,1.7-.6,7.179,7.179,0,0,0,2.7-2.5A4,4,0,0,0,36.207,0Z" fill="#037c5a"/>
        <path id="Vector-2" data-name="Vector" d="M69.8,54.8v9.6c0,.1,0,.1-.1.1H63.2c-.1,0-.2,0-.2-.2V61.1c0-.2,0-.2-.2-.2H53.3c-.2,0-.3,0-.3-.3V57.5c0-.1,0-.1-.1-.1H16.7a.213.213,0,0,0-.2.2v3.2c0,.2,0,.2-.2.2-2.4,0-4.7,0-7.1-.1H6.8c-.3,0-.3,0-.3.3v3.3c0,.1,0,.1-.1.1H.2c-.2,0-.2,0-.2-.2V25.7a10.4,10.4,0,0,1,1.4-5.2,14.929,14.929,0,0,1,3.9-4.4,22.574,22.574,0,0,1,9.5-4.5,1.156,1.156,0,0,0,.7-.5,13.1,13.1,0,0,1,7-5.9A19.539,19.539,0,0,1,27.1,4c1-.2,2-.3,3-.4A4.418,4.418,0,0,0,31.7,3,7.492,7.492,0,0,0,34.3.6c.1-.1.1-.2.2-.3s.1-.2.2-.3c.1.1.1.2.2.3A5.158,5.158,0,0,0,36.2,2a5.285,5.285,0,0,0,2.9,1.4c.5.1,1.1.1,1.6.2a19.221,19.221,0,0,1,8.1,2.2,13.116,13.116,0,0,1,5.4,5.3c.1.2.2.3.4.3a27.705,27.705,0,0,1,6.2,1.9,17.241,17.241,0,0,1,5.6,4.1,16.672,16.672,0,0,1,3.1,5.5c0,.1.1.2.1.3a5.867,5.867,0,0,1,.4,2.3V53.7h-.1a5.552,5.552,0,0,1-.4-1.2c-.9-3.5-1.8-6.9-2.7-10.4-.8-3.2-1.7-6.4-2.5-9.6-.3-1.1-.6-2.1-.8-3.2-.1-.4-.1-.4-.5-.4-1,0-.8,0-1-.8-.1-.4-.1-.4-.5-.5h-.7a.366.366,0,0,1-.4-.4v-.1c-.1-.6-.1-.6-.7-.6h-.3c-.3,0-.4-.1-.5-.4,0-.1,0-.1-.1-.2,0-.3-.2-.4-.5-.4a20.351,20.351,0,0,1-6.5-1.9c-.9-.5-1.8-1-2.7-1.6a4.192,4.192,0,0,0-.7-.5,8.437,8.437,0,0,0-1.1-.9,7.867,7.867,0,0,0-3-.8,10.807,10.807,0,0,0-3.1.2,13.064,13.064,0,0,0-4.6,2.2,6.951,6.951,0,0,0-1,.8c-.2.2-.3.2-.5,0a15.867,15.867,0,0,0-4.5-2.7,10.464,10.464,0,0,0-3.6-.6,8.659,8.659,0,0,0-3.2.6,3.777,3.777,0,0,0-1.6,1.2l-.1.1a19.083,19.083,0,0,1-4.5,2.3A23.259,23.259,0,0,1,12.5,25c-.3,0-.4.1-.4.4-.1.7,0,.8-.9.9a.659.659,0,0,0-.7.6c-.1.4-.2.4-.5.5-.2,0-.4.1-.6.1a.264.264,0,0,0-.3.3c-.1.2-.1.5-.2.7s-.2.3-.4.3H8c-.3,0-.4.1-.5.4-.8,3-1.7,6.1-2.5,9.1-.7,2.7-1.5,5.3-2.2,8-.7,2.4-1.3,4.8-2,7.2a1.7,1.7,0,0,0-.1.7,1.176,1.176,0,0,0,1,1.1H2c2.9,0,5.8.1,8.8,0,3.3-.1,6.6,0,10-.1,3.3-.1,6.5,0,9.8-.1.6,0,1.3-.1,1.9-.1a.907.907,0,0,1,.7.3,2.807,2.807,0,0,0,1.4,1,2.639,2.639,0,0,0,2.8-.8.907.907,0,0,1,.8-.4c1.8,0,3.6.1,5.4.1H47c1.2.1,2.3,0,3.5.1,1.1.1,2.3,0,3.4.1,1.2.1,2.4,0,3.6.1,1.1.1,2.2,0,3.3.1,1.2.1,2.4,0,3.6.1,1.1.1,2.2,0,3.3,0,.3,0,.6.1,1,.1a1.147,1.147,0,0,0,1.1-.6c-.2-.2-.2-.3,0-.4Z" transform="translate(1.605 1.6)" fill="#fff"/>
        <path id="Vector-3" data-name="Vector" d="M69.41,33.6a1.146,1.146,0,0,1-.7.8.6.6,0,0,1-.4.1c-2,0-4-.1-6-.1-1.7,0-3.4-.1-5.1-.1-2.3,0-4.6-.1-6.9-.1s-4.6-.1-6.9-.1c-2.1,0-4.1-.1-6.2-.1-.2,0-.3,0-.4.2a2.676,2.676,0,0,1-2.3,1.2,2.573,2.573,0,0,1-2.1-1.2.713.713,0,0,0-.6-.3c-3.3,0-6.7,0-10,.1-2.8,0-5.7,0-8.5.1-3.7,0-7.5,0-11.2.1h-.8a1.23,1.23,0,0,1-1.3-1.5,5,5,0,0,1,.4-1.3c2.1-7.5,4.2-15.1,6.3-22.6.1-.3.2-.6.3-.9,0-.2.1-.2.3-.2a2.2,2.2,0,0,0,.8-.1c.2,0,.2-.1.3-.2a2.889,2.889,0,0,0,.2-.9.217.217,0,0,1,.2-.2c.3,0,.6-.1,1-.1a.214.214,0,0,0,.2-.2c0-.2.1-.4.1-.6s.1-.2.3-.2c.3,0,.6-.1.9-.1.1,0,.2,0,.2-.2s.1-.5.1-.7c0-.3,0-.3.3-.3a24.05,24.05,0,0,0,7.1-1.9,20.2,20.2,0,0,0,2.5-1.4.1.1,0,0,0,.1-.1c.1.1.3,0,.4.1.7,1.5,1.3,3,2,4.6l4.5,10.5c.9,2.2,1.9,4.4,2.8,6.5,0,.1.1.2,0,.3a.185.185,0,0,1-.3,0,9.292,9.292,0,0,1-.5-1c-2.1-4.9-4.2-9.9-6.3-14.8-.8-1.8-1.6-3.6-2.3-5.5,0-.1-.1-.1-.1-.2-.4.9-.8,1.8-1.3,2.7-.6,1.3-1.2,2.6-1.8,3.8-.7,1.6-1.4,3.2-2.2,4.7q-1.05,2.25-2.1,4.5c-.8,1.8-1.6,3.5-2.4,5.3,0,.1-.1.2-.2.3h-.3c-.1-.1,0-.2.1-.3,1.4-3.1,2.9-6.3,4.3-9.4,1.3-2.9,2.7-5.8,4-8.7.4-.8.7-1.7,1.1-2.5,0-.1.1-.2.1-.3-.4.2-.7.4-1.1.6a19.068,19.068,0,0,1-5,1.9,24.941,24.941,0,0,1-2.9.5.265.265,0,0,0-.3.3c-.3,1.8-.9,3.5-1.3,5.3-.9,3.4-1.9,6.8-2.8,10.3-.8,2.9-1.6,5.9-2.4,8.8-.3,1-.6,2-.8,3-.1.3,0,.3.2.4a25.134,25.134,0,0,0,2.9.4,9.516,9.516,0,0,0,1.7,0,27.192,27.192,0,0,0,4.9-.6c.2,0,.5-.2.7-.2a35.3,35.3,0,0,1,7.2-2.1,17.124,17.124,0,0,1,11.1,1.8,7.366,7.366,0,0,1,1.2.7c.2.1.2.1.2-.1V4.294c.1-.3.2-.3.4-.1.1.2,0,.4,0,.6v27.1c0,.1-.1.3.1.4a.525.525,0,0,0,.4-.2,20.3,20.3,0,0,1,6.8-2.3,20.942,20.942,0,0,1,2.6-.2,19.064,19.064,0,0,1,5.8.9c1.3.4,2.6.9,3.9,1.4a19.361,19.361,0,0,0,5.3,1.2,15.828,15.828,0,0,0,5.3-.593c.2-.1.3-.2.2-.4q-1.947-7.352-3.9-14.7c-1-3.7-2-7.5-3-11.2-.1-.4-.2-.8-.3-1.2-.1-.6-.2-.6-.7-.7a24.279,24.279,0,0,1-5.1-1.4A13.558,13.558,0,0,1,48.71.8l-.1-.1.1.1c1.3,2.9,2.5,5.8,3.8,8.8,1.4,3.3,2.8,6.6,4.2,9.8.3.8.7,1.6,1,2.4.1.1.2.3.1.4h-.2c-.1-.1-.1-.2-.2-.3-.9-2.1-1.9-4.3-2.8-6.4-1.4-3.3-2.8-6.6-4.3-9.9-.6-1.5-1.3-3-1.9-4.4,0-.1-.1-.2-.1-.3-.2.5-.5,1-.7,1.4-.6,1.3-1.2,2.6-1.8,4q-1.049,2.25-2.1,4.5-.9,1.95-1.8,3.9c-.6,1.3-1.2,2.6-1.8,3.8q-.75,1.651-1.5,3.3c0,.1-.1.2-.1.3a.368.368,0,0,1-.3.1c-.1-.1,0-.2,0-.4q.75-1.651,1.5-3.3c.8-1.8,1.6-3.6,2.4-5.3q1.049-2.25,2.1-4.5c.7-1.5,1.4-3.1,2.1-4.6.5-1,.9-2,1.4-3.1.1-.2.2-.4.3-.6,0-.1-.1-.3,0-.4a.514.514,0,0,1,.4.2,18.134,18.134,0,0,0,7.3,3.4,18.472,18.472,0,0,0,2.3.4c.2,0,.3.1.4.3,0,.2.1.3.1.5s.1.2.3.2a2.757,2.757,0,0,1,.9.1c.2,0,.2,0,.3.3a4.331,4.331,0,0,0,.1.5.217.217,0,0,0,.2.2h1c.2,0,.2.1.3.2.1.3.1.6.2.8a.216.216,0,0,0,.2.2h.8c.3,0,.3,0,.3.2l1.5,5.7c1.6,6,3.1,12,4.7,18,.1.3.2.7.3,1v.2a1.356,1.356,0,0,1,0,.9C69.51,33.5,69.51,33.6,69.41,33.6Z" transform="translate(1.897 22.802)" fill="#1d1d1b"/>
        <path id="Vector-4" data-name="Vector" d="M11.3,4.9c.2.1.2.2.3.3A8.015,8.015,0,0,1,13,9.1c.1.6.1,1.2.2,1.8a1.132,1.132,0,0,0,1.2,1.1,1.269,1.269,0,0,0,.6-.1,7.194,7.194,0,0,0,2.4-1c-.4-.6-.9-.7-1.7-.5a1.229,1.229,0,0,1,.5-1,1.929,1.929,0,0,1,1-.3,7.19,7.19,0,0,1,2.9.3c.4.1.4.3.3.6a.775.775,0,0,1-.4.4,9.162,9.162,0,0,0-1,.5c-.2.1-.2.1-.1.3a.554.554,0,0,0,.5.3,2.507,2.507,0,0,0,1.7-.1.874.874,0,0,0,.5-.9c-.3-2-.5-4.1-.8-6.1a27.306,27.306,0,0,0-.4-2.8,1.314,1.314,0,0,1,.3-1,19.222,19.222,0,0,0,1,2h-.4c-.1,0-.2,0-.2.2.1.4.1.9.2,1.3q.15,1.35.3,2.7c.1.8.2,1.5.3,2.3a4.909,4.909,0,0,1-.1,2.1,1.828,1.828,0,0,1-1.4,1.4,2.622,2.622,0,0,1-1.5-.2,2.682,2.682,0,0,1-.8-.7.368.368,0,0,0-.3-.1,6.657,6.657,0,0,1-1.9.9,4.032,4.032,0,0,1-1.5.3,2.377,2.377,0,0,1-.8-.2c-.3-.1-.4-.3-.5-.6a2.91,2.91,0,0,1-.2-.9,1.268,1.268,0,0,0-.1-.6h-.1a7.338,7.338,0,0,1-3,2.8c-.1.1-.3.1-.4.2a1.965,1.965,0,0,1-1.3.1.957.957,0,0,1-.8-.8,1.387,1.387,0,0,1,0-.9v-.4c-.1.1-.3.2-.4.3A9.442,9.442,0,0,1,4.6,13a5.68,5.68,0,0,1-2.2.4A2.376,2.376,0,0,1,0,10.9,3.689,3.689,0,0,1,.6,8.8c.1-.1.2-.3.3-.4,0,.2-.1.3-.1.4a4.71,4.71,0,0,0-.4,1.7,1.723,1.723,0,0,0,1.3,1.8,4.607,4.607,0,0,0,2.6,0,14.23,14.23,0,0,0,1.8-.8A16.583,16.583,0,0,0,8.2,9.9a.513.513,0,0,0,.2-.4A21.245,21.245,0,0,0,8.2,7C8.1,6.2,8.1,5.5,8,4.7c-.1-.9-.2-1.8-.3-2.6-.1-.5-.1-1.1-.2-1.6V.2c.1-.1.2-.2.3-.2s.1.1.2.2c.2.6.4,1.1.6,1.7V2c-.1,0-.2-.2-.4-.2V2c.1,1.6.3,3.2.4,4.7,0,.6.1,1.2.1,1.8a5.945,5.945,0,0,1-.2,1.3,2.372,2.372,0,0,1-.9,1.3c-.1.1-.2.2-.2.3a1.671,1.671,0,0,0,.1.7.666.666,0,0,0,.7.5,2.531,2.531,0,0,0,1.2-.2,10.033,10.033,0,0,0,2.5-1.7,5.563,5.563,0,0,0,.7-.9.6.6,0,0,0,.1-.4,15.728,15.728,0,0,0-1.1-3.7c-.1-.1-.1-.2-.1-.4C11.3,5.6,11.3,5.3,11.3,4.9Z" transform="translate(13.611 60.4)" fill="#fff"/>
        <path id="Vector-5" data-name="Vector" d="M0,8.8,3.3,7.3C4.7,6.6,6.1,5.8,7.5,5q.45-.3.9-.6a1.05,1.05,0,0,0,.5-.9A.887.887,0,0,0,8.8,3,11.966,11.966,0,0,1,7.7,1.1,1.129,1.129,0,0,1,7.6.3.364.364,0,0,1,7.7,0c.3.2.5.5.8.7.1.1,0,.2,0,.3a.187.187,0,0,0,0,.3,5.4,5.4,0,0,0,.6.8,2.025,2.025,0,0,1,.3,1.1c0,.3-.1.6-.1.9a1.449,1.449,0,0,1-.7,1c-.2.1-.4.3-.6.4l-.2.2a2.391,2.391,0,0,0,0,1.2,1.177,1.177,0,0,0,1.1,1,2.743,2.743,0,0,0,1.3-.2,10.712,10.712,0,0,0,3.2-2.4c.1-.1.1-.2.2-.3a.3.3,0,0,0,0-.4.366.366,0,0,0-.3-.1,4.81,4.81,0,0,1-1.2.1c-.6-.1-1-.5-.7-1.2,0-.1.1-.2.1-.3a1.05,1.05,0,0,1,1.8-.3A2.674,2.674,0,0,1,14,4.2a.366.366,0,0,0,.1.3,1.376,1.376,0,0,1-.3,1.2,8.774,8.774,0,0,1-2.9,2.5,3.75,3.75,0,0,1-1.8.5A1.444,1.444,0,0,1,7.5,7.2V5.8c-.1,0-.2.1-.3.1A27.55,27.55,0,0,1,4.3,7.6a4.418,4.418,0,0,1-1.6.6A10.218,10.218,0,0,1,0,8.8Z" transform="translate(44.707 65.099)" fill="#fff"/>
        <path id="Vector-6" data-name="Vector" d="M.3,3.1c0,.3-.1.6-.1.9A4.772,4.772,0,0,0,.3,5.2a1.407,1.407,0,0,0,1.3,1,2.951,2.951,0,0,0,1.6-.4A10.707,10.707,0,0,0,5.4,4.3c.2-.2.4-.3.5-.5l.3-.3a.9.9,0,0,0,.1-1c-.2-.4-.4-.9-.6-1.3A2.359,2.359,0,0,1,5.5.4V0c.2.1.3.3.5.4s.3.3.5.4V.9c-.1.1-.2.1-.2.2s.1.2.2.3a3.075,3.075,0,0,1,0,2.8.1.1,0,0,1-.1.1A16.133,16.133,0,0,1,4,6.3,4.571,4.571,0,0,1,2.4,7a1.371,1.371,0,0,1-.9,0A1.779,1.779,0,0,1,.4,6.2,2.7,2.7,0,0,1,.1,4.7,1.846,1.846,0,0,1,.3,3.1Z" transform="translate(39.802 66.9)" fill="#fff"/>
        <path id="Vector-7" data-name="Vector" d="M1,11.2C1,10.4.9,9.7.9,8.9.8,7.8.7,6.6.6,5.5.5,4.3.4,3.2.2,2A3.656,3.656,0,0,0,0,.9,1.7,1.7,0,0,1,.1.2.215.215,0,0,1,.3,0C.4,0,.4.1.5.2A5.626,5.626,0,0,1,1.2,2v.2C1,2.1.9,2,.7,2a1.7,1.7,0,0,0,.1.7c.1,1.2.3,2.5.4,3.7a19.419,19.419,0,0,1,.2,2.4A4.076,4.076,0,0,1,1.1,11,.321.321,0,0,1,1,11.2Z" transform="translate(36.407 61)" fill="#fff"/>
        <path id="Vector-8" data-name="Vector" d="M1.348,1.975c-.2-.1-.3-.2-.5-.3v.2c.1,1.2.3,2.4.4,3.6.1,1,.2,1.9.3,2.9a3.735,3.735,0,0,1-.3,2.1c0,.1-.1.1-.1.2h-.1c0-.4-.1-.7-.1-1.1-.1-1.2-.2-2.4-.3-3.5-.2-1.6-.3-3.3-.6-4.9a2.719,2.719,0,0,1,0-.9c0-.1,0-.2.1-.2.1-.1.3-.1.3,0A4.765,4.765,0,0,1,1.348,1.975Z" transform="translate(48.158 60.525)" fill="#fff"/>
        <path id="Vector-9" data-name="Vector" d="M2.8.142c0,.2-.1.3-.1.5a3.566,3.566,0,0,1-.4.9,3.065,3.065,0,0,0-.5.7.1.1,0,0,0,.1.1,1.511,1.511,0,0,1,.7,1.4,1.28,1.28,0,0,1-.1.6,1.374,1.374,0,0,1-.5.8,2,2,0,0,1-.8.4c-.4.1-.7,0-.8-.4v-.2a3.5,3.5,0,0,1,.6-2.2.188.188,0,0,0,0-.3,8.744,8.744,0,0,1-.8-1c-.1-.2-.2-.3-.2-.5v-.5c.4.2.7.4,1.1.6-.2.3-.2.3.1.6a.769.769,0,0,0,.3.2c.4-.6.9-1.2,1.3-1.8Z" transform="translate(40.207 65.558)" fill="#fff"/>
        <path id="Vector-10" data-name="Vector" d="M0,3.745a.749.749,0,0,1,.5-.7c.7-.4,1.3-.8,2-1.2,1-.6,1.9-1.1,2.9-1.7a.1.1,0,0,0,.1-.1c.1,0,.2-.1.2,0a.187.187,0,0,1,0,.3c-.1.1-.2.1-.2.2-1.6.9-3.3,1.8-4.9,2.8a.345.345,0,0,0-.2.1.365.365,0,0,0-.1.3c0,.1.1.1.2.1s.2.1.3.2c0,.1.1.1,0,.2,0,.1-.1.1-.2.1C.1,4.445,0,4.145,0,3.745Z" transform="translate(27.707 63.655)" fill="#fff"/>
        <path id="Vector-11" data-name="Vector" d="M.443,2.1a11.769,11.769,0,0,0,1.3-1,3.175,3.175,0,0,0-1.4.1c-.1,0-.2.1-.3,0s0-.2,0-.3a.845.845,0,0,1,.3-.5,1.748,1.748,0,0,1,1.7-.3c.2.1.2.1.2.3A1.581,1.581,0,0,1,.643,2C.443,2.1.443,2.2.443,2.1Z" transform="translate(23.864 61.3)" fill="#fff"/>
        <path id="Vector-12" data-name="Vector" d="M0,3.5A18.682,18.682,0,0,0,2.3,1.9c.2-.2.4-.3.5-.5,0-.1-.1-.1-.2-.2C2.4,1,2.3.9,2.4.7V.5a.186.186,0,0,1,0-.3c0-.2.1-.2.3-.2A1.451,1.451,0,0,1,3.8.9c.1.2.1.4-.1.5-.1.2-.3.2-.5.1s-.2,0-.3.1A7.02,7.02,0,0,1,0,3.5Z" transform="translate(38.307 60.6)" fill="#fff"/>
        <path id="Vector-13" data-name="Vector" d="M1.5,1.8A4.1,4.1,0,0,1,1.6.7.593.593,0,0,1,1.7.3c.1-.2.2-.3.4-.3s.3.1.4.3c0,.1,0,.1-.1.2H2.1c-.1,0-.2,0-.2.2a1.28,1.28,0,0,0-.1.6,4.052,4.052,0,0,1,0,1.1c0,.1,0,.2-.1.2a.213.213,0,0,1-.2-.2A.753.753,0,0,1,1.3,2c-.1-.1-.1-.3-.2-.4S.9,1.4.8,1.4c-.2,0-.3-.1-.5-.2A.686.686,0,0,1,0,.7.44.44,0,0,1,.5.6.266.266,0,0,1,.8.9c.2.3.3.5.5.8C1.4,1.7,1.4,1.8,1.5,1.8Z" transform="translate(27.907 60.7)" fill="#fff"/>
        <path id="Vector-14" data-name="Vector" d="M1.64,2.468a.265.265,0,0,1-.3-.3c-.1-.2-.2-.4-.3-.6s-.1-.2-.3-.2a.894.894,0,0,1-.5-.1c-.2-.1-.3-.2-.2-.4a.443.443,0,0,1,.4-.3.52.52,0,0,1,.4.2,3.128,3.128,0,0,1,.5.7c0,.1.1.1.2.2,0-.4.1-.7.1-1.1,0-.2,0-.3.1-.4.1-.2.4-.2.6-.1a.189.189,0,0,1,0,.3c-.1,0-.1,0-.2.1-.2,0-.2,0-.3.3C1.74,1.268,1.74,1.868,1.64,2.468Z" transform="translate(44.067 60.332)" fill="#fff"/>
        <path id="Vector-15" data-name="Vector" d="M.2,2.1C.1,2.1,0,2.1,0,2s0-.1.1-.1.1-.1.2-.1c1-.6,2-1.1,2.9-1.7.1,0,.1-.1.2-.1s.2,0,.2.1V.3a.347.347,0,0,1-.2.1C2.4.9,1.5,1.4.5,2A.363.363,0,0,1,.2,2.1Z" transform="translate(54.907 63.796)" fill="#fff"/>
        <path id="Vector-16" data-name="Vector" d="M3.7.2c0,.1-.1.1-.2.2a6.769,6.769,0,0,0-1.1.7c-.6.4-1.2.7-1.9,1.1a.363.363,0,0,1-.3.1c-.1,0-.1,0-.2-.1,0-.1,0-.1.1-.1L.2,2c1-.6,2-1.2,3-1.9.1,0,.1-.1.2-.1C3.6,0,3.7.1,3.7.2Z" transform="translate(43.507 64.4)" fill="#fff"/>
        <path id="Vector-17" data-name="Vector" d="M.2,1.5c-.1,0-.2,0-.2-.1s0-.1.1-.1a.1.1,0,0,0,.1-.1C1.2.8,2.1.5,3.1.1c.1,0,.1,0,.2-.1.1,0,.2,0,.2.1s0,.2-.1.2-.1,0-.2.1c-1,.3-1.9.7-2.9,1A.1.1,0,0,1,.2,1.5Z" transform="translate(50.307 60.096)" fill="#fff"/>
        <path id="Vector-18" data-name="Vector" d="M1.475.675c-.2.2-.3.4-.5.6-.1.1-.1.1-.2,0-.2-.2-.5-.4-.7-.6-.1-.1-.1-.1,0-.2l.4-.4c.1-.1.1-.1.2,0A5.547,5.547,0,0,0,1.475.675Z" transform="translate(51.232 62.425)" fill="#fff"/>
        <path id="Vector-19" data-name="Vector" d="M.331,0c.3.2.6.3.9.5.1,0,.1.1,0,.2l-.3.6c-.2,0-.4-.2-.6-.3-.4-.2-.4-.1-.2-.6C.131.3.231.2.331,0Z" transform="translate(39.975 63.5)" fill="#fff"/>
        <path id="Vector-20" data-name="Vector" d="M.3,0a5.582,5.582,0,0,1,.8.5c.1.1.1.1.1.2C1.1.9,1,1,1,1.2c0,.1-.1.1-.2.1C.6,1.2.3,1,.1.9,0,.9,0,.8,0,.7A3.66,3.66,0,0,0,.3,0Z" transform="translate(41.307 63.2)" fill="#fff"/>
        <path id="Vector-21" data-name="Vector" d="M.239,0V1c0,.6.2.6.7.4h.1a1.435,1.435,0,0,1-.2.7.375.375,0,0,1-.6,0,1.066,1.066,0,0,1-.2-.8A2,2,0,0,1,.239,0Z" transform="translate(17.668 65.7)" fill="#fff"/>
        <path id="Vector-22" data-name="Vector" d="M1.4,1a1.268,1.268,0,0,1-.9.4C.2,1.4,0,1.2.2.9.2.8.3.7.3.6.2.5,0,.5,0,.4V.2C0,0,.1,0,.4,0A.6.6,0,0,0,.5.4.188.188,0,0,1,.5.7.214.214,0,0,1,.3.9c-.1.2-.1.3.1.3a.9.9,0,0,0,.5-.1c.3-.2.4-.2.5-.1Z" transform="translate(30.707 73.1)" fill="#fff"/>
        <path id="Vector-23" data-name="Vector" d="M1.268.641a2.766,2.766,0,0,1,.1.9.216.216,0,0,1-.2-.2c-.1-.1-.1-.2-.2-.3a.637.637,0,0,0-.6-.5c-.1,0-.3-.1-.3-.2-.1-.2-.1-.3.1-.3.2-.1.3,0,.5.1a3.1,3.1,0,0,1,.5.7c.1.1.1-.1.1-.1C1.168.741,1.068.641,1.268.641Z" transform="translate(15.639 69.059)" fill="#fff"/>
        <path id="Vector-24" data-name="Vector" d="M.3.1V.5c0,.4.1.5.4.4H.8a.55.55,0,0,1-.3.5c-.2.1-.4-.1-.5-.3V.7A2.548,2.548,0,0,1,.2,0C.4,0,.3.1.3.1Z" transform="translate(31.907 60.9)" fill="#fff"/>
        <path id="Vector-25" data-name="Vector" d="M.439.075c0,.1-.1.3-.1.4-.1.3,0,.4.3.4h.1v.1c-.1.3-.3.4-.5.3a.365.365,0,0,1-.2-.5.67.67,0,0,1,.4-.7C.339-.025.439-.025.439.075Z" transform="translate(26.968 64.025)" fill="#fff"/>
        <path id="Vector-26" data-name="Vector" d="M.1.075v.6c0,.4.1.4.5.3H.7v.2c-.1.2-.2.3-.4.3a.448.448,0,0,1-.3-.3v-.6a.748.748,0,0,1,.1-.5Z" transform="translate(30.807 66.625)" fill="#fff"/>
        <path id="Vector-27" data-name="Vector" d="M.4.2C.4.4.3.5.3.7.2,1,.3,1,.6,1H.7c-.1.3-.3.4-.5.3S0,1,0,.8A3.029,3.029,0,0,1,.4,0Z" transform="translate(35.507 72.401)" fill="#fff"/>
        <path id="Vector-28" data-name="Vector" d="M.466.115c0,.1-.1.2-.1.3-.1.3-.1.3.2.4h.1v.1c-.2.2-.4.3-.5.2-.2-.1-.2-.3-.1-.6.1-.2.2-.4.4-.4Z" transform="translate(23.241 68.885)" fill="#fff"/>
        <path id="Vector-29" data-name="Vector" d="M.466.3c0,.1-.1.1-.1.2-.1.2,0,.3.2.4h.1c-.1.2-.4.3-.5.2-.2-.1-.2-.3-.1-.6a1.337,1.337,0,0,1,.3-.4.1.1,0,0,0,.1-.1c.1,0,.1,0,.1.1S.566.2.466.3Z" transform="translate(25.041 73.096)" fill="#fff"/>
        <path id="Vector-30" data-name="Vector" d="M.2,0V.3C.2.5.2.6.5.6H.7A.1.1,0,0,1,.6.7C.5.9.3,1,.2.9A.76.76,0,0,1,0,.5.765.765,0,0,1,.2,0Z" transform="translate(54.507 70.2)" fill="#fff"/>
        <path id="Vector-31" data-name="Vector" d="M.2.075c-.1.4-.1.4.2.5,0,.1-.1.1-.1.2-.2.1-.3,0-.3-.2a.365.365,0,0,1,.1-.3c-.1-.1-.1-.2.1-.2Z" transform="translate(19.306 73.425)" fill="#fff"/>
        <path id="Vector-32" data-name="Vector" d="M.1.5C0,.7.1.8.1.9S.1,1,0,1V.3C.1.3,0,.2.1.1L.2,0H.5L.6.1A.1.1,0,0,0,.7.2V.3C.4.5.2.4.1.5Z" transform="translate(16.806 68.5)" fill="#fff"/>
        <path id="Vector-33" data-name="Vector" d="M.2.075c-.1.2,0,.2.2.3-.1.1-.2.2-.3.1a.365.365,0,0,1-.1-.3c0-.1.1-.1.2-.1Z" transform="translate(23.306 65.325)" fill="#fff"/>
        <path id="Vector-34" data-name="Vector" d="M.044.6c.1-.1,0-.2.1-.3a.367.367,0,0,1,.1-.3V.7c-.1.1,0,.2-.1.3,0,.1-.1.1-.1,0C.044.8-.056.7.044.6Z" transform="translate(16.762 69)" fill="#fff"/>
        <path id="Vector-35" data-name="Vector" d="M.1.044v.2a.1.1,0,0,1,.1.1.1.1,0,0,1-.1.1c-.1,0-.1,0-.1-.1a.369.369,0,0,1,.1-.3Z" transform="translate(50.306 73.056)" fill="#fff"/>
        <path id="Vector-36" data-name="Vector" d="M.1.044a.1.1,0,0,1,.1.1.1.1,0,0,1-.1.1c-.1,0-.1,0-.1-.1s0-.1.1-.1Z" transform="translate(50.907 67.556)" fill="#fff"/>
        <path id="Vector-37" data-name="Vector" d="M.3,0h0A.213.213,0,0,1,.1.2C0,.2,0,.2,0,.1.1.1.2,0,.3,0Z" transform="translate(38.007 64.1)" fill="#fff"/>
        <path id="Vector-38" data-name="Vector" d="M.041.3h0c-.1-.2,0-.2.1-.3V.1A.349.349,0,0,0,.041.3Z" transform="translate(23.665 68.7)" fill="#fff"/>
        <path id="Vector-39" data-name="Vector" d="M.1.3C.1.2.1.2,0,.1,0,0,0,0,.1,0A.187.187,0,0,1,.1.3Z" transform="translate(32.107 60.7)" fill="#fff"/>
        <path id="Vector-40" data-name="Vector" d="M0,.1C.1,0,.3.1.4,0,.3.1.1,0,0,.1Z" transform="translate(16.907 68.9)" fill="#fff"/>
        <path id="Vector-41" data-name="Vector" d="M.075.3h0a.187.187,0,0,1,0-.3Z" transform="translate(50.932 67.3)" fill="#fff"/>
        <path id="Vector-42" data-name="Vector" d="M.2,0h0C.2.1.1.1,0,.1A.349.349,0,0,1,.2,0Z" transform="translate(44.507 73.9)" fill="#fff"/>
        <path id="Vector-43" data-name="Vector" d="M.075.2c-.1,0-.1-.1,0,0,0-.1,0-.2.1-.2s.1,0,.1.1C.175.1.075.1.075.2Z" transform="translate(25.532 73.1)" fill="#fff"/>
        <path id="Vector-44" data-name="Vector" d="M0,.3H0C0,.1,0,.1.1,0A.373.373,0,0,1,0,.3Z" transform="translate(23.507 65.099)" fill="#fff"/>
        <path id="Vector-45" data-name="Vector" d="M0,.2C0,.1,0,0,.1,0A.349.349,0,0,1,0,.2Z" transform="translate(25.707 72.901)" fill="#fff"/>
        <path id="Vector-46" data-name="Vector" d="M.045.2a.137.137,0,0,1,0-.2C.145.1.145.2.045.2Z" transform="translate(40.062 69.8)" fill="#fff"/>
        <path id="Vector-47" data-name="Vector" d="M.044.2c0-.1-.1-.1,0,0,0-.1,0-.2.1-.2A.342.342,0,0,0,.044.2Z" transform="translate(19.462 73.3)" fill="#fff"/>
        <path id="Vector-48" data-name="Vector" d="M.1.2A.1.1,0,0,0,0,.1.1.1,0,0,1,.1,0V.2Z" transform="translate(42.907 65.498)" fill="#fff"/>
        <path id="Vector-49" data-name="Vector" d="M.075,0c0,.1.1,0,.1.1L.075,0c0,.1-.1.1,0,0Z" transform="translate(24.232 63.4)" fill="#fff"/>
        <path id="Vector-50" data-name="Vector" d="M.075.2h0v0Z" transform="translate(27.332 63.901)" fill="#fff"/>
        <path id="Vector-51" data-name="Vector" d="M.075.2h0c-.1-.1-.1-.2,0-.2s.1,0,0,.2Z" transform="translate(54.632 70)" fill="#fff"/>
        <path id="Vector-52" data-name="Vector" d="M.044.2a.139.139,0,0,1,0-.2C.144.1.144.2.044.2Z" transform="translate(54.662 69.8)" fill="#fff"/>
        <path id="Vector-53" data-name="Vector" d="M0,.141v-.1C.1.041.1.141,0,.141Z" transform="translate(50.407 72.959)" fill="#fff"/>
        <path id="Vector-54" data-name="Vector" d="M0,.2V0C.1.1.1.2,0,.2Z" transform="translate(35.907 72.4)" fill="#fff"/>
        <path id="Vector-55" data-name="Vector" d="M.3.075H0A.187.187,0,0,1,.3.075Z" transform="translate(16.907 68.625)" fill="#fff"/>
        <path id="Vector-56" data-name="Vector" d="M.2,0h0C.2.1.2.1.1.1S0,.1,0,0C.2.1.2.1.2,0Z" transform="translate(37.806 64.2)" fill="#fff"/>
        <path id="Vector-57" data-name="Vector" d="M0,.15H0c0-.2.1-.2,0,0Z" transform="translate(32.107 73.95)" fill="#fff"/>
        <path id="Vector-58" data-name="Vector" d="M.1,0h0A.1.1,0,0,1,0,.1Z" transform="translate(37.806 64.3)" fill="#fff"/>
        <path id="Vector-59" data-name="Vector" d="M0,.2v0Z" transform="translate(71.407 55.2)" fill="#99ae9d"/>
        <path id="Vector-60" data-name="Vector" d="M.076.1h0c-.1-.1-.1-.1,0-.1Z" transform="translate(17.831 65.599)" fill="#fff"/>
        <path id="Vector-61" data-name="Vector" d="M.1,0C.1.1.1.1,0,.2,0,.1,0,.1.1,0Z" transform="translate(16.707 68.7)" fill="#fff"/>
        <path id="Vector-62" data-name="Vector" d="M0,.075Z" transform="translate(30.907 66.625)" fill="#fff"/>
        <path id="Vector-63" data-name="Vector" d="M0,.1V0C.1,0,0,.1,0,.1Z" transform="translate(17.307 68.8)" fill="#fff"/>
        <path id="Vector-64" data-name="Vector" d="M0,.1V0C.1,0,.1.1,0,.1Z" transform="translate(71.307 56.3)" fill="#96bcab"/>
        <path id="Vector-65" data-name="Vector" d="M0,.075Z" transform="translate(23.807 68.625)" fill="#fff"/>
        <path id="Vector-66" data-name="Vector" d="M0,0Z" transform="translate(23.607 65.1)" fill="#fff"/>
        <path id="Vector-67" data-name="Vector" d="M.044.044Z" transform="translate(17.262 68.756)" fill="#fff"/>
        <path id="Vector-68" data-name="Vector" d="M0,0Z" transform="translate(25.507 73.4)" fill="#dadf21"/>
        <path id="Vector-69" data-name="Vector" d="M.075,0Z" transform="translate(16.832 68.7)" fill="#fff"/>
        <path id="Vector-70" data-name="Vector" d="M.044,0Z" transform="translate(25.462 73.2)" fill="#dadf21"/>
        <path id="Vector-71" data-name="Vector" d="M4.8,12.014c0-1.5-.1-3.1-.1-4.6v-1.2a1.6,1.6,0,0,0-.4.7c-.1.3-.1.5-.2.8,0,.1-.1.2-.1.3-.1.2-.2.2-.4.1a.55.55,0,0,1-.3-.5,2.769,2.769,0,0,1-.1-.9.592.592,0,0,0-.1-.4c-.1.2-.1.5-.2.7s-.1.4-.3.6c-.1.2-.2.2-.4,0a1.78,1.78,0,0,1-.4-.9v-.7c0-.1,0,0-.1,0-.1.1-.2.3-.3.4-.2.1-.3.1-.4-.1a1.078,1.078,0,0,1-.1-.5v-.8c-.1.1-.2.2-.3.3a.76.76,0,0,1-.4.2.4.4,0,0,1-.2-.4,1.689,1.689,0,0,1,.3-1c.1-.1.1-.2.2-.3H.3c-.3,0-.3-.1-.3-.4a.758.758,0,0,1,.2-.4,2.651,2.651,0,0,1,.5-.6c.1-.1.1-.1.1-.3-.1-.2,0-.4.2-.6a2.506,2.506,0,0,1,.7-.4c.2-.1.4-.1.5-.2-.4-.4-.3-.4.1-.6a2.238,2.238,0,0,1,2.1-.1,3,3,0,0,1,.8.4c.2.1.3.1.4,0a3.381,3.381,0,0,1,2-.6,1.7,1.7,0,0,1,.7.1.664.664,0,0,1,.4.5c0,.1.1.1.2.2a2.843,2.843,0,0,1,1.2.4c.4.2.5.5.1.9.5.2.6.6.7,1.1a.662.662,0,0,0-.6-.1.216.216,0,0,0,.2.2,4.178,4.178,0,0,1,.5.9.839.839,0,0,1,0,.7c-.4,0-.5-.4-.8-.4a.139.139,0,0,0,0,.2,1.938,1.938,0,0,1-.1,1.3c-.1.2-.1.2-.3,0-.1-.1-.2-.2-.2-.3-.1-.1-.1-.3-.3-.4,0,.2.1.5.1.7a1.715,1.715,0,0,1-.2,1.2.247.247,0,0,1-.4.1.524.524,0,0,1-.2-.4c-.1-.2-.1-.4-.2-.5,0-.1-.1-.2-.2-.3a4.052,4.052,0,0,1,0,1.1,1.077,1.077,0,0,1-.3.7c-.1.2-.2.2-.3,0a.537.537,0,0,1-.3-.4c-.1-.2-.2-.5-.3-.7s-.1-.4-.3-.5v1.9a11.984,11.984,0,0,0,.1,1.9,11.984,11.984,0,0,0,.1,1.9c.1.2.1.4.2.5a.214.214,0,0,0-.2.2c0,1.1.1,2.3.1,3.4,0,.1,0,.2.2.2s.4,0,.5.2c.1.1.1.1.2,0,.3,0,.4,0,.5.3a.216.216,0,0,0,.2.2c.2,0,.2.2.1.4a.215.215,0,0,1-.2.2l-.1.1a2.618,2.618,0,0,1-1.7.5,13.352,13.352,0,0,0-2,0,.735.735,0,0,1-.6-.2c-.1-.1-.3-.2-.4-.3s-.2-.1-.2-.2c-.1-.2,0-.4.2-.4a.214.214,0,0,0,.2-.2c0-.1.1-.2.3-.2s.4,0,.5-.2a.366.366,0,0,1,.3-.1c.2,0,.2,0,.2-.2v-1.2a12.1,12.1,0,0,0-.1-1.9c0-.2,0-.3-.2-.3C4.7,12.414,4.6,12.214,4.8,12.014Z" transform="translate(30.907 5.086)" fill="#037c5a"/>
        <path id="Vector-72" data-name="Vector" d="M.3,1.994H.1c-.1,0-.1,0-.1-.1a1.818,1.818,0,0,1,1.1-1,5.678,5.678,0,0,1,2.2-.7,10.622,10.622,0,0,1,5,.3,12.919,12.919,0,0,1,4.8,2.8l.1.1c.1.1.1.1.2,0s.2-.2.3-.3a12.572,12.572,0,0,1,5.1-2.7,8.862,8.862,0,0,1,5.8.2c.1,0,.2.1.3.1a3.063,3.063,0,0,1,1.5,1c0,.1.2.3.1.4-.2.1-.3,0-.5-.1a9.469,9.469,0,0,0-3.7-.5,11.569,11.569,0,0,0-4.4,1.2,14.917,14.917,0,0,0-3,1.8c-.3.2-.3.2-.1.5.3.4.7.8,1,1.2.1-.2.1-.3.2-.5a.54.54,0,0,1,.8-.2.861.861,0,0,1,.3,1.4c-.1.1-.2.2-.3.2a.385.385,0,0,0,0,.7c.1.1.2,0,.3,0a.878.878,0,0,1,.7-.1,1.088,1.088,0,0,1,.9,1.1v.5a.988.988,0,0,1-1.2.9,2.281,2.281,0,0,1-1.2-.6,8.064,8.064,0,0,1-1.2-1.4c-.1-.1-.1-.2-.2-.2-.1.1-.3.1-.3.3,0,.4-.1.7-.4.8a.809.809,0,0,1-.9-.5c-.1-.5-.1-.7.4-1,.1-.1.3-.2.4-.3.2-.2.3-.2,0-.4-.3-.3-.5-.6-.8-.9l-.1-.1c-.2-.1-.2-.1-.3.1-.1.3-.3.4-.5.6-.1.1-.2.2-.3.3-.2.2-.2.2,0,.4.2.1.4.3.6.4.1.1.1.2.2.3v.6a.892.892,0,0,1-.8.5.472.472,0,0,1-.5-.5v-.3a.265.265,0,0,0-.3-.3c-.1,0-.2.1-.3.2a4.911,4.911,0,0,1-1.2,1.3,2.382,2.382,0,0,1-1.1.6c-.7.2-1.2-.3-1.3-1a2.161,2.161,0,0,1,.1-.8,1.079,1.079,0,0,1,1.4-.7c.1,0,.1,0,.2.1.2.1.3,0,.4-.2s.1-.3-.1-.4c-.7-.5-.7-1.2,0-1.6.4-.2.6-.1.9.2.1.1.1.3.2.5a13.718,13.718,0,0,0,1.1-1.4.185.185,0,0,0,0-.3c-.1-.1-.2-.1-.3-.2a13.372,13.372,0,0,0-5.4-2.5,10.255,10.255,0,0,0-5.5.2Z" transform="translate(23.407 21.206)" fill="#037c5a"/>
        <path id="Vector-73" data-name="Vector" d="M6.1,3.8c.1.2.3.2.5.2a1.484,1.484,0,0,0,.9-.4c.1-.1.1-.2.2-.3.4.7,1,.4,1.3-.2.1,0,.1,0,.1.1a.375.375,0,0,0,.6,0c.1-.1.1-.2.2-.3a1.388,1.388,0,0,0,.4.3c.3.1.5,0,.5-.3V2.6c-.2-.7-.3-1.4-.5-2.1,0-.1-.1-.3,0-.4,0-.1.1-.1.2-.1a.1.1,0,0,1,.1.1,6.2,6.2,0,0,0,.4.8c.1.1.1.2-.1.2-.1,0-.1.1-.1.2A4.4,4.4,0,0,1,11,2.9v.3a.607.607,0,0,1-.9.4c-.1-.1-.2,0-.3.1-.3.4-.5.4-.9.1-.1.1-.2.2-.3.3a.562.562,0,0,1-.9,0L7.6,4c-.1.1-.1.1-.2.2A1.063,1.063,0,0,1,6,4.3c-.1,0-.1-.1-.2-.1a.188.188,0,0,0-.3,0,1.776,1.776,0,0,1-.7.5c-.1,0-.1.1-.1.2A2.37,2.37,0,0,1,3.3,6.7c-.1,0-.2.1-.3.1a.674.674,0,0,1-.9-.6V6c-.1,0-.1.1-.2.2a2.7,2.7,0,0,1-.8.7C.6,7.2.2,7,0,6.4H.1a.925.925,0,0,0,1.2-.3A12,12,0,0,1,2.4,4.9c.1-.1.2-.2.2-.3.1-.3,0-.4-.2-.4L1.2,3.9a2.092,2.092,0,0,1-.6-.4C.5,3.4.4,3.3.5,3.1.6,3,.7,3,.9,3s.3.1.4.3a.553.553,0,0,0,.5.3c.2,0,.4.1.6.1a.663.663,0,0,1,.6.7,1.613,1.613,0,0,1-.3.9c-.1.1-.2.2-.2.2a.441.441,0,0,0-.1.5.265.265,0,0,0,.3.3,1.163,1.163,0,0,0,1-.2,2.353,2.353,0,0,0,.8-.9c-.2,0-.4.1-.6.1a.472.472,0,0,1-.5-.5.549.549,0,0,1,.4-.6.666.666,0,0,1,.6.1,1.262,1.262,0,0,0,.6.1.341.341,0,0,0,.2-.1c.1-.1.2-.2.1-.3,0-.1-.2-.1-.3-.1H4.5c-.2,0-.3-.1-.2-.3,0-.2.1-.3.3-.4a1.891,1.891,0,0,1,1.8-.3c.2,0,.4.1.4.3s-.1.3-.3.5C6.4,3.6,6.2,3.7,6.1,3.8Z" transform="translate(19.505 13.9)" fill="#1d1d1b"/>
        <path id="Vector-74" data-name="Vector" d="M5.8,1.126l.3-.3c.1-.1.1-.2-.1-.2a5.063,5.063,0,0,0-2.4.4c-.1.1-.3.1-.4.3a3.591,3.591,0,0,1,1.2,1.8,2.092,2.092,0,0,0,.4.6c.1.1.2.2.3.2a.569.569,0,0,0,.7-.4,7.569,7.569,0,0,1,.1-1.5c0-.2,0-.4.3-.5v2.5c0,.4.2.6.6.5.2,0,.3-.1.4-.3a1.376,1.376,0,0,1,1.1-.8v-1.8c0-.1,0-.3.1-.3a.214.214,0,0,1,.2.2,1.884,1.884,0,0,1,.2.8c-.3.1-.3.1-.3.3v.7c.1.1.2,0,.3,0a.552.552,0,0,1,.5.3.43.43,0,0,1-.2.7.541.541,0,0,1-.8-.2c-.1-.1,0-.2-.2-.3H7.7a.773.773,0,0,0-.4.4c.1.1.2,0,.3,0,.4,0,.5.2.6.6a.753.753,0,0,1-.5.7.569.569,0,0,1-.7-.4c-.1-.1-.1-.2-.3-.2H6.6c-.6,0-.8-.1-.9-.7-.1,0-.2.1-.3.1a.868.868,0,0,1-1.2-.4q-.151-.3-.3-.6c0-.1,0-.2-.1-.2a.347.347,0,0,1-.1.2,1.205,1.205,0,0,1-.5.5.694.694,0,0,1-1-.3c-.1-.1-.1-.3-.2-.4,0-.2-.1-.2-.3-.3-.1,0-.2.1-.3.2a.751.751,0,0,0-.2.4.781.781,0,0,1-.4.4.516.516,0,0,1-.7-.3,2.743,2.743,0,0,1-.1-.9.308.308,0,0,1,.1.2.523.523,0,0,0,.2.4c.2.3.4.3.7.1.1-.1.1-.1.2-.2a2.733,2.733,0,0,1,.5-.6c.1-.1.2-.2.3-.2.2,0,.4,0,.4.2,0,.1.1.3.1.4,0,.2.2.3.4.3a.751.751,0,0,0,.5-.1c.1-.1.1-.2.2-.3a1.246,1.246,0,0,0-.1-.6,1.794,1.794,0,0,0-.5-.7.529.529,0,0,1,.1-.8,2.186,2.186,0,0,1,.5-.3,5.48,5.48,0,0,1,2.5-.4h.1c.3,0,.3.2.2.5,0,.1-.1.1-.2.2a.369.369,0,0,1-.4.4Z" transform="translate(45.81 16.274)" fill="#1d1d1b"/>
        <path id="Vector-75" data-name="Vector" d="M.6,3.1c-.1.2-.1.4-.2.6v.2c0,.2.1.3.3.2a.553.553,0,0,0,.5-.3A3.861,3.861,0,0,1,2.9,2.7c-.1-.2-.1-.2-.6-.2A.552.552,0,0,1,2.6,2a1.678,1.678,0,0,1,2.1.2.188.188,0,0,1,0,.3c-.1.1-.2.2-.3.2a1.412,1.412,0,0,1-.6.2,1.132,1.132,0,0,0,1.1.2.607.607,0,0,0,.3-.6c0-.4-.1-.9-.1-1.3V.6A.735.735,0,0,1,5.3,0c.2.3.3.7.5,1-.4.1-.3.4-.3.6V2.7a.367.367,0,0,1-.1.3,1.1,1.1,0,0,1-1,.6.807.807,0,0,1-.9-.4C3.3,3,3.3,3,3.1,3A4.531,4.531,0,0,0,1.2,4.1a1.136,1.136,0,0,1-.8.3C.1,4.4,0,4.3,0,4a1.782,1.782,0,0,1,.6-.9C.6,3,.7,3,.6,3.1Z" transform="translate(40.209 14.7)" fill="#1d1d1b"/>
        <path id="Vector-76" data-name="Vector" d="M4.525,1.214v.4a.215.215,0,0,1-.2.2,2.666,2.666,0,0,1-1.2-.3,1.011,1.011,0,0,1-.5-.4l-.3-.3c-.2-.2-.3-.2-.5,0a1.38,1.38,0,0,0-.3.4c-.1.2-.1.3-.2.5-.1.4-.3.5-.7.5a.634.634,0,0,1-.6-.5v-.2c0-.2-.1-.4.1-.6.1.2.2.5.3.7.2.3.5.2.7-.1.1-.2.2-.4.3-.6a1.814,1.814,0,0,1,.5-.7c.3-.3.5-.3.7.1a1.993,1.993,0,0,0,1.2.8C3.925,1.214,4.225,1.214,4.525,1.214Z" transform="translate(31.182 15.886)" fill="#1e1e1c"/>
        <path id="Vector-77" data-name="Vector" d="M.2,1.6c-.1,0-.2,0-.2-.1V1.1A10.868,10.868,0,0,0,2.4.4c.1,0,.1-.1.2-.2,0-.1.1-.1.2-.1s.1.1.1.2a.51.51,0,0,0,.5.4A.265.265,0,0,0,3.7.4V.2a.2.2,0,1,1,.4,0V.5a.853.853,0,0,1-.7.7A.516.516,0,0,1,2.7.9.1.1,0,0,0,2.6.8,8.468,8.468,0,0,1,.2,1.6Z" transform="translate(37.507 16)" fill="#1e1e1c"/>
        <path id="Vector-78" data-name="Vector" d="M0,1.9a1.381,1.381,0,0,1,.4.3.764.764,0,0,0,.5.2.265.265,0,0,0,.3-.3V1.7A1.7,1.7,0,0,1,1.3,1c.1-.3.3-.4.6-.2a.6.6,0,0,0,.8,0c.2-.1.2-.2.1-.4a.3.3,0,0,1,0-.4C2.9,0,3,0,3,.1a1.017,1.017,0,0,1,.2.9.549.549,0,0,1-.6.4,1.474,1.474,0,0,1-.7-.1c-.2-.1-.3-.1-.4.2a.854.854,0,0,0,0,.7.847.847,0,0,1-.2.7C1,3.1.8,3,.5,2.8A1.144,1.144,0,0,1,0,1.9Z" transform="translate(17.007 17.9)" fill="#1f1e1c"/>
        <path id="Vector-79" data-name="Vector" d="M.338,0a.9.9,0,0,1,.1.5c.1.2.1.4.2.6s.1.3-.2.3h-.1V3.3a1.484,1.484,0,0,1-.3.7V.6Q-.112.3.338,0Z" transform="translate(46.769 15.1)" fill="#22221f"/>
        <path id="Vector-80" data-name="Vector" d="M.2,4.4V3.9C.1,2.8.1,1.8,0,.7A.909.909,0,0,1,.3,0C.4.4.6.7.7,1.1c-.3,0-.3,0-.2.3,0,.6.1,1.2.1,1.8a3.589,3.589,0,0,1-.2,1l-.2.2Z" transform="translate(56.108 18.3)" fill="#1e1e1c"/>
        <path id="Vector-81" data-name="Vector" d="M.8,3.4C.7,3.1.7,2.8.6,2.6A10.926,10.926,0,0,0,.1.9,2.483,2.483,0,0,1,0,0,2.651,2.651,0,0,1,.5.6V.7c-.1.2,0,.3.1.5.1.4.2.7.3,1.1A3.782,3.782,0,0,1,.8,3.4Z" transform="translate(31.207 13.5)" fill="#201f1d"/>
        <path id="Vector-82" data-name="Vector" d="M.8.9A.617.617,0,0,1,.6.2.215.215,0,0,1,.8,0,.214.214,0,0,1,1,.2c.1.1,0,.3.1.4a.367.367,0,0,1,.1.3H1.1C.9.8.9.9.8.9a4.587,4.587,0,0,1-.4.7.52.52,0,0,1-.4.2A1.765,1.765,0,0,0,.8.9Z" transform="translate(22.807 15.1)" fill="#242220"/>
        <path id="Vector-83" data-name="Vector" d="M.6.4h0c.4-.3.4-.3.6.1C1.1.6,1,.7.9.8.7.7.7.5.6.4.5.5.4.7.3.7L0,.4V.3C.1.2.2,0,.3,0,.5.2.5.4.6.4Z" transform="translate(38.207 17.9)" fill="#23211f"/>
        <path id="Vector-84" data-name="Vector" d="M1.2,0a.454.454,0,0,1,0,.5C1.1.7,1.1.8.8.8.7.8.7.8.6.9S.4,1.1.2,1C.1,1,0,.8,0,.6V.5A.1.1,0,0,1,.1.4C.2.4.1.5.1.5.1.6.1.7.2.7S.3.6.4.6A.367.367,0,0,0,.5.3C.6.3.6.4.6.5.7.6.7.6.8.5A4.171,4.171,0,0,0,1.2,0Z" transform="translate(27.209 15.2)" fill="#272523"/>
        <path id="Vector-85" data-name="Vector" d="M.476,1.1c-.1,0-.1-.1-.2-.1C.176.9.078.8.176.7s0-.2-.1-.3a.186.186,0,0,1,0-.3l.1-.1h.1c.1,0,.2.2.3.3s0,.1,0,.2c-.1.1-.1.2,0,.2a.187.187,0,0,1,0,.3A.1.1,0,0,1,.476,1.1Z" transform="translate(47.331 16.9)" fill="#23211f"/>
        <path id="Vector-86" data-name="Vector" d="M0,.575c.1-.1.1-.3.2-.4H.3c.1,0,.2.1.3.1s.1-.1.2-.2c0-.1.1-.1.2,0,.1,0,.1.1.2.1s.1.1.1.2a.349.349,0,0,1-.1.2c-.1,0-.2-.1-.4-.1-.1.1-.1.2-.2.3C.2.775.1.675,0,.575Z" transform="translate(17.207 17.525)" fill="#242422"/>
        <path id="Vector-87" data-name="Vector" d="M.3.564c-.1-.1-.2-.2-.3-.2v-.1c.3-.3.2-.4.6,0l-.3.3c.1.1.2.2.3.2v.1l-.2.2-.1.1C0,.964,0,.964.3.564Z" transform="translate(32.407 14.336)" fill="#242422"/>
        <path id="Vector-88" data-name="Vector" d="M.5,0A.758.758,0,0,0,.3.4C.3.5.4.5.5.5.6.6.6.8.5.8A.3.3,0,0,1,.1.8.367.367,0,0,1,0,.5C0,.3.2.1.5,0Z" transform="translate(41.207 14.3)" fill="#252523"/>
        <path id="Vector-89" data-name="Vector" d="M0,.619a1.534,1.534,0,0,1,1.4-.6,3.486,3.486,0,0,1-1.4.6Z" transform="translate(27.107 18.781)" fill="#262422"/>
        <path id="Vector-90" data-name="Vector" d="M0,.4A7.491,7.491,0,0,1,1.6,0,2.04,2.04,0,0,1,0,.4Z" transform="translate(48.607 15.9)" fill="#2a2624"/>
        <path id="Vector-91" data-name="Vector" d="M.009.7c.1-.1.2-.1.3-.2,0-.1-.1,0-.1,0-.2,0-.3-.1-.1-.3a.764.764,0,0,1,.5-.2.1.1,0,0,1,.1.1.6.6,0,0,1-.1.4,1.072,1.072,0,0,1-.6.2Z" transform="translate(52.798 18.2)" fill="#242422"/>
        <path id="Vector-92" data-name="Vector" d="M1.7.075a3.506,3.506,0,0,1-1.4.6c-.1,0-.2.1-.3,0,0-.1.1-.1.2-.2a4.8,4.8,0,0,1,1.5-.4Z" transform="translate(42.007 14.625)" fill="#2a2726"/>
        <path id="Vector-93" data-name="Vector" d="M1.6.1A7.471,7.471,0,0,1,.3.7H.2C.1.7,0,.7,0,.6A.1.1,0,0,1,.1.5,7.838,7.838,0,0,1,1.5,0,.1.1,0,0,1,1.6.1Z" transform="translate(42.907 15.4)" fill="#282623"/>
        <path id="Vector-94" data-name="Vector" d="M.4,0C.5.1.6.2.7.3.6.4.5.5.3.7A1.363,1.363,0,0,1,0,.3,1.34,1.34,0,0,1,.4,0Z" transform="translate(40.909 17.7)" fill="#252220"/>
        <path id="Vector-95" data-name="Vector" d="M.7,0V.4C.7.5.6.6.5.5.4.5.4.5.3.6S.2.7.1.7,0,.6,0,.5V.3C.2.5.2.5.3.2.4.2.4.4.5.3S.6,0,.7,0Z" transform="translate(18.707 16.9)" fill="#373635"/>
        <path id="Vector-96" data-name="Vector" d="M.6.2h0C.5.4.4.5.4.6-.1.5-.1.4.2,0,.3,0,.4.2.6.2Z" transform="translate(18.102 21.1)" fill="#272725"/>
        <path id="Vector-97" data-name="Vector" d="M.4,0C.4.1.3.2.3.3S.2.5.4.6C.5.6.5.7.4.8.4.9.3.9.2.9S0,.9,0,.8V.5A1,1,0,0,1,.4,0Z" transform="translate(54.807 21.1)" fill="#2b2926"/>
        <path id="Vector-98" data-name="Vector" d="M.041.4h0c-.1-.2,0-.3.1-.4a.748.748,0,0,1,.4.2V.3C.341.6.341.6.041.4Z" transform="translate(18.665 20.9)" fill="#262522"/>
        <path id="Vector-99" data-name="Vector" d="M.2.075h0c0,.5,0,.5.3.4v.1c-.1.2-.2.2-.3.2s-.2-.2-.2-.4c0-.1,0-.2.2-.3-.1.1-.1,0,0,0Z" transform="translate(43.307 18.325)" fill="#353432"/>
        <path id="Vector-100" data-name="Vector" d="M.2.3C.3.4.3.4.5.4V.5C.4.7.3.8.2.7.1.7,0,.5,0,.3A.367.367,0,0,1,.1,0C.3.1.2.2.2.3Z" transform="translate(24.907 19.1)" fill="#32302e"/>
        <path id="Vector-101" data-name="Vector" d="M.2.227a.357.357,0,0,0,.2.1c.1,0,.1,0,.1.1-.1.1-.2.2-.3.2-.1-.1-.2-.2-.2-.3a.365.365,0,0,1,.1-.3C.3-.073.1.127.2.227Z" transform="translate(25.608 15.173)" fill="#292927"/>
        <path id="Vector-102" data-name="Vector" d="M.1,0C.1.1.2.1.1,0,.3,0,.3.1.3.2A.188.188,0,0,1,0,.2C.1.1,0,.1.1,0Z" transform="translate(21.505 16.4)" fill="#443c3a"/>
        <path id="Vector-103" data-name="Vector" d="M.2.1A.367.367,0,0,0,.1.4V.7C0,.5.1.2,0,0,.2,0,.2,0,.2.1Z" transform="translate(31.005 16.8)" fill="#afa4a4"/>
        <path id="Vector-104" data-name="Vector" d="M.1.5C0,.4.1.3,0,.2,0,.1.1.1.1,0A.1.1,0,0,1,.2.1C.2.2.1.4.1.5Z" transform="translate(25.005 18.9)" fill="#534d4c"/>
        <path id="Vector-105" data-name="Vector" d="M.1.6C0,.6,0,.5,0,.4V.2C0,.1,0,.1.1,0Z" transform="translate(25.707 14.8)" fill="#524d4b"/>
        <path id="Vector-106" data-name="Vector" d="M.166.3h0c-.2,0-.2-.1-.1-.3A.763.763,0,0,1,.166.3Z" transform="translate(21.441 16.1)" fill="#635f5d"/>
        <path id="Vector-107" data-name="Vector" d="M0,.1C0,0,0,0,.1,0V.4C0,.3.1.2,0,.1Z" transform="translate(32.607 10.8)" fill="#a7d9c1"/>
        <path id="Vector-108" data-name="Vector" d="M.1.2C.1.1,0,.2,0,.1A.1.1,0,0,0,.1,0H.2A.354.354,0,0,1,.1.2Z" transform="translate(44.407 15.3)" fill="#94807f"/>
        <path id="Vector-109" data-name="Vector" d="M.2,0h0C.2.1.1.1,0,.1A.306.306,0,0,1,.2,0Z" transform="translate(52.608 18.9)" fill="#6a6362"/>
        <path id="Vector-110" data-name="Vector" d="M.1.2A.1.1,0,0,0,0,.1C0,0,0,0,.1,0Z" transform="translate(25.107 18.8)" fill="#bbb0ae"/>
        <path id="Vector-111" data-name="Vector" d="M.075.2h0c-.1-.2-.1-.2,0-.2Z" transform="translate(43.432 18.2)" fill="#a6a09f"/>
        <path id="Vector-112" data-name="Vector" d="M0,.115Z" transform="translate(40.807 17.685)" fill="#867c7b"/>
        <path id="Vector-113" data-name="Vector" d="M.1.125a.1.1,0,0,0-.1-.1S.1-.075.1.125Z" transform="translate(26.005 15.375)" fill="#746362"/>
        <path id="Vector-114" data-name="Vector" d="M.075,0h0C-.025.1-.025,0,.075,0Z" transform="translate(51.532 17.4)" fill="#4d4745"/>
        <path id="Vector-115" data-name="Vector" d="M0,.075c0-.1.1-.1,0,0Z" transform="translate(41.707 14.125)" fill="#958f8e"/>
        <path id="Vector-116" data-name="Vector" d="M0,.115H0c0-.1.1-.2,0,0C.1.015.1.115,0,.115Z" transform="translate(43.707 14.585)" fill="#bbb0af"/>
        <path id="Vector-117" data-name="Vector" d="M0,.044H0C.1-.056.1.044,0,.044Z" transform="translate(55.207 21.056)" fill="#85706f"/>
        <path id="Vector-118" data-name="Vector" d="M0,0V0Z" transform="translate(41.707 14.2)" fill="#4f4441"/>
        <path id="Vector-119" data-name="Vector" d="M0,0V0Z" transform="translate(43.407 18.4)" fill="#403836"/>
        <path id="Vector-120" data-name="Vector" d="M.044,0Z" transform="translate(27.062 19.4)" fill="#5a6b6b"/>
        <path id="Vector-121" data-name="Vector" d="M.075,0Z" transform="translate(51.432 17.5)" fill="#687474"/>
        <path id="Vector-122" data-name="Vector" d="M0,0Z" transform="translate(43.407 18.3)" fill="#403836"/>
        <path id="Vector-123" data-name="Vector" d="M.2,7a.675.675,0,0,0,.6.4c.4.1.7-.1.7-.6V6.6c0-.1,0-.2.1-.2.4-.3.4-.3.6.1A5.258,5.258,0,0,0,3.4,7.9a2.382,2.382,0,0,0,1.1.6.879.879,0,0,0,1.1-.8V7.1a1.06,1.06,0,0,0-1.3-.9c-.1,0-.2.1-.3.1-.2.1-.2.1-.4-.1A.349.349,0,0,1,3.5,6c-.2-.3-.2-.3.1-.5.1-.1.2-.1.3-.2a.775.775,0,0,0,.2-.8.876.876,0,0,0-.7-.6.552.552,0,0,0-.5.3c-.1.2-.2.4-.3.6-.5-.6-.9-1.1-1.4-1.6a.1.1,0,0,1,.1-.1A15.235,15.235,0,0,1,6.7.4,13.435,13.435,0,0,1,10.2,0a15.944,15.944,0,0,1,3,.6c-.4.8-.8,1.7-1.1,2.5-2.9,6.3-5.8,12.7-8.7,19,0,.1,0,.1-.1.2s-.1.2,0,.4a5.352,5.352,0,0,0,1,1.6,11.487,11.487,0,0,0,4.5,3,12.271,12.271,0,0,0,3.8.8,9.835,9.835,0,0,0,5.1-.8,14.189,14.189,0,0,0,3.6-2.4,8.387,8.387,0,0,0,1.6-2.1c.1-.2.1-.3,0-.4l-.6-1.5q-4.2-9.75-8.4-19.5c-.1-.1-.1-.2-.1-.4,0-.1,0-.1.1-.1a8.39,8.39,0,0,0,1.2.8A17.723,17.723,0,0,0,21,4c.7.1,1.3.3,2,.4a.267.267,0,0,1,.3.3c.5,2.1,1.1,4.1,1.6,6.2,1.9,7.1,3.8,14.2,5.7,21.4v.1c.1.1,0,.2-.1.2-.5.1-1,.3-1.5.4a21.838,21.838,0,0,1-3.6.3,21.331,21.331,0,0,1-4.4-.8c-1.3-.4-2.6-.9-4-1.4a24.887,24.887,0,0,0-3.9-1A18.5,18.5,0,0,0,9,29.9,18.7,18.7,0,0,0,.2,32.5a.1.1,0,0,0-.1.1c-.1,0-.1,0-.1-.1V7.3C.1,7.2,0,7,.2,7Z" transform="translate(36.707 22.7)" fill="#f1c250"/>
        <path id="Vector-124" data-name="Vector" d="M17.462.637a12.09,12.09,0,0,1,1.8-.5,10.679,10.679,0,0,1,6.8,1.2,17.482,17.482,0,0,1,2.9,1.8c.1,0,.1.1.2.2-.5.5-.9,1.1-1.4,1.7-.1-.2-.1-.4-.2-.5a.524.524,0,0,0-.9-.2.8.8,0,0,0-.1,1.3,1.409,1.409,0,0,0,.4.3c.1,0,.1.1.1.2a1.332,1.332,0,0,1-.3.5c-.1.1-.1.1-.2,0s-.3-.1-.4-.2a1.027,1.027,0,0,0-1.2.7,1.085,1.085,0,0,0,0,.8,1.013,1.013,0,0,0,1.1.8,2.711,2.711,0,0,0,1.2-.6,5.263,5.263,0,0,0,1.2-1.4c0-.1.1-.1.1-.2l.1-.1c.1.1.2.1.3.2a.367.367,0,0,1,.1.3c0,.2,0,.5.2.6a.854.854,0,0,0,.7,0,1.38,1.38,0,0,0,.4-.3v25.5c-.2,0-.2-.1-.4-.2a20.771,20.771,0,0,0-5.3-2.3,17.6,17.6,0,0,0-5.1-.4,29.416,29.416,0,0,0-7.8,1.8,6.712,6.712,0,0,0-.8.3,8.329,8.329,0,0,1-2.1.6,20.248,20.248,0,0,1-4.9.3,23.254,23.254,0,0,1-3.7-.4c-.3-.1-.3,0-.2-.4,1.3-4.6,2.5-9.1,3.8-13.7,1.2-4.2,2.3-8.5,3.5-12.7.1-.4.1-.8.2-1.1,0-.3.1-.3.3-.3a23.98,23.98,0,0,0,6.5-1.7,19.852,19.852,0,0,0,2.5-1.3c.1-.1.2-.1.3-.2a.365.365,0,0,1-.1.3c-1.1,2.3-2.1,4.6-3.2,7-2.1,4.7-4.3,9.3-6.4,14,0,.1,0,.1-.1.2s0,.3,0,.4a5.672,5.672,0,0,0,1.2,1.8,10.3,10.3,0,0,0,4.1,2.6,14.26,14.26,0,0,0,4.1.9,9.691,9.691,0,0,0,5.8-1.2,11.327,11.327,0,0,0,3.6-2.9,5.67,5.67,0,0,0,.8-1.3c.1-.1.1-.2.2-.3-.1,0-.2,0-.2-.1-.3-.8-.6-1.5-.9-2.3-2.7-6.4-5.4-12.7-8.2-19.1A.781.781,0,0,1,17.462.637Z" transform="translate(6.245 22.563)" fill="#f1c250"/>
        <path id="Vector-125" data-name="Vector" d="M0,21.6c.2-.6.6-1.2.8-1.9C3.8,13.2,6.7,6.8,9.7.3c0-.1.1-.2.1-.3a.365.365,0,0,1,.1.3c3,7.1,6,14.1,9,21.2a.1.1,0,0,0,.1.1c-.1.2-.2.2-.4.1-4.4-.1-8.8,0-13.2-.1H.3C.3,21.7.1,21.7,0,21.6Z" transform="translate(13.707 23.402)" fill="#f1c250"/>
        <path id="Vector-126" data-name="Vector" d="M0,21.3c.6-1.4,1.3-2.7,1.9-4.1C4,12.6,6.2,7.9,8.3,3.3c.5-1,.9-2,1.4-3.1,0-.1,0-.2.2-.2.1.2.1.3.2.5,3,7,6,13.9,9,20.9v.1c-.1.2-.2.1-.3.1-4.5-.1-8.9,0-13.4-.1H.5C.3,21.4.1,21.5,0,21.3Z" transform="translate(40.307 23.7)" fill="#f1c250"/>
        <path id="Vector-127" data-name="Vector" d="M8.131.01c-.2.7-.4,1.4-.6,2q-3.152,11.4-6.3,22.8v.1c0,.2,0,.3.2.4a3.484,3.484,0,0,0,1,.2,11.952,11.952,0,0,0,1.9-.1c.1,0,.2,0,.2-.1,0-.2.1-.1.2-.1a8.529,8.529,0,0,0,1.6-.1c.1,0,.2,0,.2-.1s.1,0,.2,0a27.806,27.806,0,0,0,2.9.1,23.076,23.076,0,0,0,4.6-.5c.2,0,.3-.1.4-.1a48.83,48.83,0,0,1,5.4-1.8,19.539,19.539,0,0,1,5.4-.6,16.651,16.651,0,0,1,8.6,2.6,2.117,2.117,0,0,1,.6.4c.2.1.3.1.4,0a31.824,31.824,0,0,1,3.2-1.6,16.581,16.581,0,0,1,4.9-1.1,20.359,20.359,0,0,1,4.3.1,21.581,21.581,0,0,1,5,1.3c1.3.5,2.6.9,3.9,1.3a16.668,16.668,0,0,0,5.4.6,6.88,6.88,0,0,0,1.4-.2c.1,0,.2-.1.2.1,0,.1.1.1.2.1a6.552,6.552,0,0,0,1.4,0c.1,0,.2-.1.2.2a.1.1,0,0,0,.1.1,14.06,14.06,0,0,0,2.9-.1h.1c.3-.1.3-.2.3-.5-.4-1.4-.7-2.8-1.1-4.1q-2.1-7.95-4.2-15.9c-.4-1.7-.9-3.3-1.3-5,0-.1-.1-.2,0-.3h.8c.1,0,.1.1.1.2.1.5.3,1,.4,1.5,1.4,5.3,2.7,10.6,4.1,15.9.5,2.1,1.1,4.2,1.6,6.3a5.162,5.162,0,0,1,.3,1.2V26a1.157,1.157,0,0,1-.5.7c-.2.1-.3.2-.5.1-1.5,0-3.1-.1-4.6-.1-2,0-3.9-.1-5.9-.1-2.3,0-4.7-.1-7-.1-1.1,0-2.3,0-3.4-.1-2.3,0-4.7-.1-7-.1-1.1,0-2.2,0-3.3-.1-.2,0-.3,0-.4.2a2.261,2.261,0,0,1-1.6,1.1,2.367,2.367,0,0,1-2-.5c-.2-.2-.5-.4-.6-.7-.1-.2-.3-.2-.5-.2h-12.4c-3,0-5.9,0-8.9.1-3.2,0-6.3,0-9.5.1a.9.9,0,0,1-.5-.1.907.907,0,0,1-.6-1.1,12.136,12.136,0,0,1,.5-1.8c2.1-7.6,4.2-15.2,6.3-22.9V.2a.216.216,0,0,1,.2-.2C7.531.01,7.831.01,8.131.01Z" transform="translate(1.876 30.49)" fill="#f1c250"/>
        <path id="Vector-128" data-name="Vector" d="M.46,0c.1.1.2,0,.3,0h4c4.1,0,8.2,0,12.3.1h2.8a.362.362,0,0,1,.3.1c0,.1-.1.2-.1.3a6.2,6.2,0,0,1-1.7,2.2,11.919,11.919,0,0,1-5.5,3,10.307,10.307,0,0,1-3.5.2,11.226,11.226,0,0,1-4-1,11.223,11.223,0,0,1-3.5-2.1A7.626,7.626,0,0,1,.162.5c0-.1,0-.1-.1-.2-.1-.2-.1-.2.2-.2C.26,0,.36,0,.46,0Z" transform="translate(39.847 45)" fill="#037c5a"/>
        <path id="Vector-129" data-name="Vector" d="M.34,0h4.2c4.2,0,8.3,0,12.5.1h2.8c.1.1.2,0,.3.1,0,.1-.1.2-.1.3a8.606,8.606,0,0,1-2.1,2.6,11.154,11.154,0,0,1-5.2,2.6,10.192,10.192,0,0,1-3.5.2A12.53,12.53,0,0,1,5.44,5a11.8,11.8,0,0,1-4-2.5A5.328,5.328,0,0,1,.14.5C.14.4.04.4.04.3c-.1-.2,0-.2.2-.2C.14,0,.24,0,.34,0Z" transform="translate(13.367 45)" fill="#037c5a"/>
        <path id="Vector-130" data-name="Vector" d="M5.7,26.9c.4-.1.7-.2,1.1-.3.3-.1.3-.2.2-.5C5.6,20.9,4.2,15.6,2.8,10.4,1.9,7,1,3.6.1.3A.367.367,0,0,0,0,0,3.4,3.4,0,0,1,1,.1c.1,0,.1,0,.1.1a5.777,5.777,0,0,0,.4,1.4C3,7.4,4.6,13.3,6.1,19.1,6.7,21.6,7.4,24,8,26.5v.1c0,.2,0,.2-.2.2a3.37,3.37,0,0,1-1,.1,2.018,2.018,0,0,1-1.1,0Z" transform="translate(61.907 29.3)" fill="#f1c250"/>
        <path id="Vector-131" data-name="Vector" d="M2.362,26.6a4.951,4.951,0,0,1-2.1-.1c-.3-.1-.3-.1-.2-.3.9-3.4,1.9-6.8,2.8-10.2,1.4-4.9,2.7-9.8,4.1-14.6.1-.4.2-.8.3-1.1a.216.216,0,0,1,.2-.2,2.769,2.769,0,0,0,.9-.1c0,.1-.1.2-.1.3-2.2,7.8-4.3,15.6-6.5,23.5q-.3,1.05-.6,2.1c-.1.3,0,.4.3.5a2,2,0,0,1,.9.2C2.362,26.5,2.462,26.5,2.362,26.6Z" transform="translate(3.245 29.2)" fill="#f1c250"/>
        <path id="Vector-132" data-name="Vector" d="M2.442,27.644a7.487,7.487,0,0,1-2.1-.2c-.1,0-.2,0-.2-.1-.1,0-.2-.1-.1-.3.2-.5.3-1.1.5-1.7,2.1-7.5,4.1-15,6.2-22.5.2-.8.4-1.7.6-2.5.1-.3.1-.3.4-.3a2.139,2.139,0,0,1,.8,0c-.1.3-.2.6-.3.9-2.4,8.6-4.7,17.1-7.1,25.7v.1c-.1.2,0,.3.2.4.5.1.9.2,1.4.3C2.642,27.744,2.542,27.644,2.442,27.644Z" transform="translate(4.765 27.856)" fill="#f1c250"/>
        <path id="Vector-133" data-name="Vector" d="M4.9,27.7c.6-.2,1.2-.3,1.9-.5.1,0,.2-.1.3-.2v-.2c-.3-1.2-.6-2.3-.9-3.5-1.5-5.6-3-11.1-4.5-16.7C1.1,4.5.5,2.3,0,.2V0A2.754,2.754,0,0,1,.9.1c.1,0,.1.1.1.2a.6.6,0,0,0,.1.4.55.55,0,0,0,.2.5c.1,0,.1.1.1.2C2.5,5.5,3.6,9.6,4.6,13.7,5.8,18.2,7,22.6,8.1,27.1c.1.4.1.4-.3.5a6.088,6.088,0,0,1-2.3.3A.849.849,0,0,0,4.9,27.7Z" transform="translate(60.608 28.3)" fill="#f1c250"/>
        <path id="Vector-134" data-name="Vector" d="M.1,2.9a.774.774,0,0,0-.1.3v25c0,.1,0,.1.1.1,0,0-.1.1-.1,0V0A7.372,7.372,0,0,1,1.2,1.3,5.448,5.448,0,0,0,.3,2c-.2.1-.2.2-.3.4A4.331,4.331,0,0,0,.1,2.9Z" transform="translate(36.807 26.8)" fill="#f1c250"/>
        <path id="Vector-135" data-name="Vector" d="M1.1,2.1A10.627,10.627,0,0,0,0,1.2C.4.8.7.4,1.1,0Z" transform="translate(35.407 27)" fill="#f1c250"/>
        <path id="Vector-136" data-name="Vector" d="M0,.1C.1,0,.2.1.2,0A.367.367,0,0,1,.5.1C.4.1.2.2,0,.1Z" transform="translate(7.207 55.4)" fill="#b6832c"/>
        <path id="Vector-137" data-name="Vector" d="M0,.075H0c.1-.1.1-.1.2,0Z" transform="translate(5.607 55.725)" fill="#c9b22d"/>
        <path id="Vector-138" data-name="Vector" d="M.2,0C.1.1.1.1,0,0Z" transform="translate(67.407 56.2)" fill="#bd9f2f"/>
        <path id="Vector-139" data-name="Vector" d="M.1.075h0c0,.1-.1.1-.1,0S.1-.025.1.075Z" transform="translate(65.407 55.925)" fill="#a8842e"/>
        <path id="Vector-140" data-name="Vector" d="M0,.044c.1-.1.1,0,0,0Z" transform="translate(50.307 23.456)" fill="#877b30"/>
        <path id="Vector-141" data-name="Vector" d="M0,0Z" transform="translate(50.307 23.5)" fill="#d0a22b"/>
        <path id="Vector-142" data-name="Vector" d="M1.266.141a.633.633,0,0,1-.6.5.548.548,0,0,1-.6-.4c-.1-.1-.1-.2.1-.2A1.981,1.981,0,0,1,1.266.141Z" transform="translate(31.241 70.459)" fill="#037c5a"/>
        <path id="Vector-143" data-name="Vector" d="M1.1.374a1.41,1.41,0,0,1-.9.1c-.1,0-.2,0-.2-.1a.215.215,0,0,1,.2-.2C.4-.126.9-.026,1.1.374Z" transform="translate(56.409 68.426)" fill="#037c5a"/>
        <path id="Vector-144" data-name="Vector" d="M.4,1.649c-.4,0-.4-.1-.4-.4A1.384,1.384,0,0,1,.6.149c.2-.2.3-.2.5,0a1.825,1.825,0,0,1,.5.7v.3c-.1.2-.2.3-.4.3A3.156,3.156,0,0,1,.4,1.649Z" transform="translate(40.807 68.451)" fill="#037c5a"/>
        <path id="Vector-145" data-name="Vector" d="M.2.5A.213.213,0,0,1,0,.3C0,.1.1,0,.2,0S.4.1.4.3C.5.4.3.5.2.5Z" transform="translate(40.907 61.1)" fill="#037c5a"/>
        <path id="Vector-146" data-name="Vector" d="M.2.041c.1,0,.2.1.1.1,0,.1-.1.1-.2.1s-.1,0-.1-.1C.1.041.1-.059.2.041Z" transform="translate(41.407 61.459)" fill="#037c5a"/>
        <path id="Vector-147" data-name="Vector" d="M.141.2c-.1,0-.2,0-.1-.1,0-.1.1-.1.2-.1s.2,0,.1.1C.341.2.241.2.141.2Z" transform="translate(25.065 17.1)" fill="#e8f1f1"/>
        <path id="Vector-148" data-name="Vector" d="M.2.1C.2.2.1.2.2.1,0,.2,0,.2,0,.1S.1,0,.2,0Z" transform="translate(23.207 18.5)" fill="#ddeae9"/>
        <path id="Vector-149" data-name="Vector" d="M.3.1A.1.1,0,0,1,.2.2C.1.2,0,.2,0,.1S0,0,.1,0C.3,0,.3,0,.3.1Z" transform="translate(54.607 19.9)" fill="#e0e8e8"/>
        <path id="Vector-150" data-name="Vector" d="M.3.1A.1.1,0,0,1,.2.2C.1.2,0,.2,0,.1A.1.1,0,0,1,.1,0C.2,0,.3,0,.3.1Z" transform="translate(53.507 21)" fill="#d4dfdf"/>
        <path id="Vector-151" data-name="Vector" d="M0,0A.214.214,0,0,1,.2.2S.2.3.1.2C0,.2,0,.1,0,0Z" transform="translate(23.607 15.5)" fill="#ced4d4"/>
      </g>
    </g>
    <g id="Group-2" data-name="Group" transform="translate(0 22.1)">
      <path id="Vector-152" data-name="Vector" d="M1.327,8.3c-.1.8-.2,1.7-.3,2.5a8.155,8.155,0,0,0,.3,3.1,3.137,3.137,0,0,0,3.3,2.5,8.3,8.3,0,0,0,4.1-1,32.362,32.362,0,0,0,5.7-4c.5-.4,1-.9,1.5-1.3a2.7,2.7,0,0,0,.7-.8,2.261,2.261,0,0,0,.2-2.6c-.6-1.1-1.1-2.3-1.7-3.4a2.854,2.854,0,0,1-.4-2.2,3.679,3.679,0,0,0,.1-1.1,4.747,4.747,0,0,1,1.3,1.1c.4.4.8.7,1.2,1.1a.34.34,0,0,1-.1.2c-.2.2-.6.3-.6.6s.3.5.4.8a7.707,7.707,0,0,1,0,7.5c-.1.1-.2.3-.3.4a31.618,31.618,0,0,1-6.3,5.2,12.65,12.65,0,0,1-4.3,1.8,5.283,5.283,0,0,1-2.5,0,3.793,3.793,0,0,1-2.8-2.1,6.732,6.732,0,0,1-.8-3.9,13.425,13.425,0,0,1,1-4.5C1.327,8.1,1.427,8.1,1.327,8.3Z" transform="translate(69.279 17.8)" fill="#037c5a"/>
      <path id="Vector-153" data-name="Vector" d="M2.537,29.5c-.1-2.1-.2-4.1-.4-6.1-.2-3-.5-6-.7-9-.3-3.1-.6-6.1-1-9.1-.1-1-.2-2-.4-3A3.721,3.721,0,0,1,.239.5a.637.637,0,0,1,.6-.5c.3,0,.4.2.5.4A16.291,16.291,0,0,1,3.141,5a1.078,1.078,0,0,0,.1.5c-.5-.2-.8-.6-1.4-.6a10.87,10.87,0,0,0,.1,1.8c.3,3.3.7,6.6,1,9.8.2,2.1.5,4.2.6,6.4a13.186,13.186,0,0,1-.7,5.9A.772.772,0,0,1,2.537,29.5Z" transform="translate(60.969 2.2)" fill="#037c5a"/>
      <path id="Vector-154" data-name="Vector" d="M3.43,5.323c-.5-.3-.8-.7-1.3-.7a.6.6,0,0,0-.1.4c.3,3.1.7,6.2,1,9.4.3,2.6.6,5.1.8,7.7a12.484,12.484,0,0,1-.7,5.7c-.1.2-.2.4-.3.6a.305.305,0,0,0-.2.1c-.1-1-.1-1.9-.2-2.9-.1-3.1-.4-6.2-.7-9.3-.4-4.3-.9-8.7-1.5-13a5.241,5.241,0,0,1-.1-2.5c.1-.2.1-.4.3-.6a.559.559,0,0,1,.9,0A17.606,17.606,0,0,1,3.43,5.323Z" transform="translate(91.875 0.777)" fill="#037c5a"/>
      <path id="Vector-155" data-name="Vector" d="M0,9.6A1.96,1.96,0,0,1,1.2,7.7c1.8-1,3.5-2,5.3-3C9,3.2,11.5,1.8,14.1.3c.1-.1.2-.1.3-.2.2-.1.4-.2.6.1a.485.485,0,0,1,0,.7,2.073,2.073,0,0,1-.6.4C10.1,3.7,5.8,6.2,1.5,8.6A2.171,2.171,0,0,0,.9,9c-.3.2-.4.4-.3.7,0,.3.3.3.5.4a1.622,1.622,0,0,1,.7.4.637.637,0,0,1,0,.6c-.1.2-.3.2-.5.2C.4,11.2,0,10.7,0,9.6Z" transform="translate(37.805 9.601)" fill="#037c5a"/>
      <path id="Vector-156" data-name="Vector" d="M1.215,5.241a19.822,19.822,0,0,0,3.3-2.6,7.691,7.691,0,0,0-3.7.3c-.2.1-.5.3-.7.1s-.1-.5,0-.8a2.223,2.223,0,0,1,.8-1.3,4.9,4.9,0,0,1,4.4-.7c.6.2.6.3.6.9-.3,2.6-1.6,3.8-4.3,4.3C1.315,5.441,1.215,5.541,1.215,5.241Z" transform="translate(27.59 3.159)" fill="#037c5a"/>
      <path id="Vector-157" data-name="Vector" d="M4.168,4.6c.1-.9.1-1.9.2-2.8a4.337,4.337,0,0,1,.2-1.1.963.963,0,0,1,1-.7,1.087,1.087,0,0,1,1,.7c.1.3,0,.4-.3.5a1.1,1.1,0,0,1-.8,0c-.4-.1-.5.1-.6.4a8.6,8.6,0,0,0-.1,1.6,15.113,15.113,0,0,1,0,3c0,.2.1.5-.2.6s-.5-.2-.6-.5q-.3-.6-.6-1.2c-.2-.4-.4-.7-.6-1.1a1.24,1.24,0,0,0-.8-.6A4.234,4.234,0,0,1,.762,3c-.6-.3-.9-.9-.7-1.3s.8-.5,1.4-.4a1.6,1.6,0,0,1,.9.7c.5.7.9,1.4,1.4,2.1C3.868,4.3,3.868,4.5,4.168,4.6Z" transform="translate(38.138 1.7)" fill="#037c5a"/>
      <path id="Vector-158" data-name="Vector" d="M4.6,6.347a1.325,1.325,0,0,1-.9-.7,10.93,10.93,0,0,1-.8-1.5.875.875,0,0,0-.9-.6,2.958,2.958,0,0,1-1.3-.2,1.041,1.041,0,0,1-.7-1,1.128,1.128,0,0,1,1.1-.7,2.227,2.227,0,0,1,1.1.5,6.65,6.65,0,0,1,1.4,1.9c.1.2.1.4.4.5a27.973,27.973,0,0,0,.2-2.9,2.663,2.663,0,0,1,.3-1.2,1.128,1.128,0,0,1,1.6-.2c.3.3.3.5-.1.7-.2.1-.4.1-.6.2-.4.1-.4.1-.4.8A34.245,34.245,0,0,1,4.6,6.347Z" transform="translate(80.706 0.553)" fill="#037c5a"/>
      <path id="Vector-159" data-name="Vector" d="M.5,5.639c-.2,0-.4,0-.5-.3a.523.523,0,0,1,.2-.4.758.758,0,0,1,.4-.2c2.6-1.5,5.2-2.9,7.7-4.4l.6-.3a.366.366,0,0,1,.5.2.47.47,0,0,1-.1.6.766.766,0,0,1-.4.2c-2.6,1.4-5.1,2.8-7.7,4.2A2.506,2.506,0,0,1,.5,5.639Z" transform="translate(109.706 9.661)" fill="#037c5a"/>
      <path id="Vector-160" data-name="Vector" d="M9.436.425c0,.3-.2.4-.4.5-1,.6-2,1.2-2.9,1.8-1.6,1-3.3,2-4.9,3a2.97,2.97,0,0,1-.8.4c-.2,0-.3,0-.4-.2s0-.3.2-.4c.1-.1.3-.2.4-.3,2.6-1.6,5.2-3.3,7.9-4.9.2-.1.4-.3.6-.3C9.236-.075,9.436.125,9.436.425Z" transform="translate(79.869 11.275)" fill="#037c5a"/>
      <path id="Vector-161" data-name="Vector" d="M.6,3.7c-.3,0-.5,0-.6-.3,0-.2.1-.3.3-.4.1,0,.2-.1.4-.1C3.3,2,5.8,1,8.4.1A.6.6,0,0,1,8.8,0c.2,0,.4,0,.5.2a.4.4,0,0,1-.2.6c-.1.1-.3.1-.4.2-2.5.9-5.1,1.7-7.6,2.6A.438.438,0,0,1,.6,3.7Z" transform="translate(97.406 0)" fill="#037c5a"/>
      <path id="Vector-162" data-name="Vector" d="M3.948,1.65a10.641,10.641,0,0,1-1.4,1.6.33.33,0,0,1-.5,0c-.6-.5-1.2-1-1.9-1.5-.2-.2-.2-.3,0-.5a11.191,11.191,0,0,1,1.1-1.1c.2-.2.3-.2.5,0A14.445,14.445,0,0,1,3.948,1.65Z" transform="translate(99.758 6.05)" fill="#037c5a"/>
      <path id="Vector-163" data-name="Vector" d="M.86,0c.8.4,1.5.8,2.3,1.3a.249.249,0,0,1,.1.4v.1a11.82,11.82,0,0,1-.8,1.6,7.711,7.711,0,0,1-1.6-.7c-1.1-.6-1-.3-.5-1.5A6.117,6.117,0,0,1,.86,0Z" transform="translate(70.146 8.9)" fill="#037c5a"/>
      <path id="Vector-164" data-name="Vector" d="M.861,0c.8.4,1.5.8,2.2,1.2.3.1.3.3.2.6-.2.4-.4.9-.6,1.3-.1.3-.2.4-.5.2-.6-.3-1.2-.7-1.9-1-.3-.1-.3-.3-.2-.5A9.819,9.819,0,0,0,.861,0Z" transform="translate(73.744 7.9)" fill="#037c5a"/>
      <path id="Vector-165" data-name="Vector" d="M.6.075v2.7c.1,1.5.5,1.7,1.8,1,.1,0,.1,0,.3-.1a2.522,2.522,0,0,1-.6,1.7.849.849,0,0,1-1.5,0,2.96,2.96,0,0,1-.6-2A8.807,8.807,0,0,1,.6.075C.5-.025.6-.025.6.075Z" transform="translate(11.305 14.625)" fill="#037c5a"/>
      <path id="Vector-166" data-name="Vector" d="M3.6,2.9a2.808,2.808,0,0,1-2.3.9C.4,3.7.1,3.2.4,2.4a5.922,5.922,0,0,1,.4-.7C.5,1.5.1,1.4,0,1.1V.6C.1.2.4,0,1.1,0c0,.4-.1.7.3,1,.3.2.2.5.1.7a4.151,4.151,0,0,0-.4.7c-.3.4-.1.7.4.7a5.078,5.078,0,0,0,1.2-.2c.2-.1.5-.1.7-.2S3.7,2.7,3.6,2.9Z" transform="translate(45.906 33.8)" fill="#037c5a"/>
      <path id="Vector-167" data-name="Vector" d="M3.444,1.377a6.519,6.519,0,0,1,.2,2.4.574.574,0,0,1-.6-.4,2.506,2.506,0,0,1-.4-.7,1.621,1.621,0,0,0-1.6-1.2,1.05,1.05,0,0,1-.9-.5.536.536,0,0,1,.3-.9.964.964,0,0,1,1.2.4,22.136,22.136,0,0,1,1.4,1.8c.3.1.2-.1.2-.2C3.244,1.777,2.944,1.377,3.444,1.377Z" transform="translate(5.861 23.723)" fill="#037c5a"/>
      <path id="Vector-168" data-name="Vector" d="M.746.5c0,.4-.1.7-.1,1.1-.1,1,.2,1.2,1.2,1a.368.368,0,0,0,.3-.1,1.34,1.34,0,0,1-.8,1.3,1,1,0,0,1-1.3-.9,4.012,4.012,0,0,1,0-1.1A6.391,6.391,0,0,1,.646,0C.946.1.746.4.746.5Z" transform="translate(48.96 1.8)" fill="#037c5a"/>
      <path id="Vector-169" data-name="Vector" d="M1.019.2c-.1.4-.2.8-.3,1.1-.2.9,0,1.1.9,1h.3v.2c-.3.7-.8,1-1.3.9-.4-.1-.7-.7-.6-1.4a4.958,4.958,0,0,1,.8-2C1.019,0,1.119.1,1.019.2Z" transform="translate(35.886 10.1)" fill="#037c5a"/>
      <path id="Vector-170" data-name="Vector" d="M.575.065v1.5c0,1,.3,1.2,1.3.8h.2a.666.666,0,0,1-.1.6,1.152,1.152,0,0,1-1,.8c-.4,0-.8-.5-.9-.9a3.788,3.788,0,0,1,0-1.5,5.253,5.253,0,0,1,.3-1.2C.475-.035.475-.035.575.065Z" transform="translate(45.831 17.135)" fill="#037c5a"/>
      <path id="Vector-171" data-name="Vector" d="M1.164.3c-.1.4-.3.8-.4,1.3-.2.7,0,.9.7.9h.4v.1c-.3.7-.8,1-1.3.8A1.176,1.176,0,0,1,.064,2a4.895,4.895,0,0,1,1.1-2A.186.186,0,0,1,1.164.3Z" transform="translate(58.342 32.602)" fill="#037c5a"/>
      <path id="Vector-172" data-name="Vector" d="M1.274.3c-.1.3-.3.5-.4.8-.3.7-.1.9.6,1,.1,0,.3,0,.3.1v.1c-.5.6-1,.8-1.4.5-.4-.2-.5-.9-.2-1.5a3.824,3.824,0,0,1,.9-1.3C1.374,0,1.374.1,1.274.3Z" transform="translate(25.931 22.902)" fill="#037c5a"/>
      <path id="Vector-173" data-name="Vector" d="M1,.5a1.42,1.42,0,0,0-.2.6c-.2.6-.1.8.6,1h.4v.1c-.4.6-1,.9-1.4.6C0,2.6-.1,1.9.1,1.3A2.85,2.85,0,0,1,.9.2C1,.2,1,.1,1.1,0c.2,0,.2,0,.2.2,0,.1,0,.1-.1.1C1,.3,1,.4,1,.5Z" transform="translate(31.105 34.503)" fill="#037c5a"/>
      <path id="Vector-174" data-name="Vector" d="M.729.4c0,.2-.1.5-.1.7-.1.7.1.9.7.8.1,0,.2-.1.4,0,0,.1-.1.2-.1.3a1.012,1.012,0,0,1-1.1.6c-.4-.1-.6-.7-.5-1.2A4.438,4.438,0,0,1,.627,0C.829.1.729.3.729.4Z" transform="translate(108.277 26.102)" fill="#037c5a"/>
      <path id="Vector-175" data-name="Vector" d="M.9.3C.9.4.8.5.8.6c-.3.7-.3.8.5,1,0,.3-.2.3-.4.4-.5.3-.8.1-.9-.5A1.7,1.7,0,0,1,.1.8,3.508,3.508,0,0,1,.6,0C.9.1,1,.1.9.3Z" transform="translate(15.206 34.8)" fill="#037c5a"/>
      <path id="Vector-176" data-name="Vector" d="M.375.877v.1c-.1.3,0,.7-.1,1,0,.2.1.4-.2.4a4.854,4.854,0,0,1,0-1.7c.1-.1,0-.3.1-.5a.348.348,0,0,1,.2-.1s.1-.1.1,0a.846.846,0,0,1,.7,0c.1.1.1.1.2.1,0,.1.1.1.2.2a.187.187,0,0,1,0,.3C1.075.877.675.577.375.877Z" transform="translate(8.931 22.423)" fill="#037c5a"/>
      <path id="Vector-177" data-name="Vector" d="M.56.3c-.2.5.1.6.5.7-.2.3-.5.5-.8.3A.627.627,0,0,1,.06.5C.16.3.26.2.36,0,.46,0,.56.1.56.3Z" transform="translate(26.246 13.5)" fill="#037c5a"/>
      <path id="Vector-178" data-name="Vector" d="M.3,1.4C.5,1.2.4.9.4.7S.3.2.5,0V1.7c-.2.2-.1.5-.2.7s-.2.2-.3,0C.4,2.1.1,1.7.3,1.4Z" transform="translate(8.706 23.4)" fill="#037c5a"/>
      <path id="Vector-179" data-name="Vector" d="M.286.166c0,.1-.1.3.1.4.1,0,.3,0,.2.2a.215.215,0,0,1-.2.2c-.1,0-.3,0-.3-.1-.2-.3,0-.5.1-.8C.286-.034.286-.034.286.166Z" transform="translate(97.52 34.034)" fill="#037c5a"/>
      <path id="Vector-180" data-name="Vector" d="M.2.165c.1.1.3.1.3.3a.214.214,0,0,1-.2.2c-.2,0-.3-.1-.3-.2v-.4C0-.035.1-.035.2.165Z" transform="translate(99.105 19.535)" fill="#037c5a"/>
      <path id="Vector-181" data-name="Vector" d="M.6,0,.8.2C.6.4.4.4.2.5S0,.5,0,.3C.1.3.3.1.6,0Z" transform="translate(65.204 10.4)" fill="#037c5a"/>
      <path id="Vector-182" data-name="Vector" d="M.2.8C.2.7.2.5,0,.5A1.205,1.205,0,0,1,.5,0C.6.1.6.2.5.2A.6.6,0,0,1,.2.8Z" transform="translate(27.006 22.4)" fill="#037c5a"/>
      <path id="Vector-183" data-name="Vector" d="M.2.9C.1.8.2.5,0,.4,0,.2,0,.1.3,0,.4.4.4.7.2.9Z" transform="translate(49.506 1.4)" fill="#037c5a"/>
      <path id="Vector-184" data-name="Vector" d="M0,.216c.3-.4.7-.1,1.1-.2C.7.316.3.016,0,.216Z" transform="translate(9.305 23.084)" fill="#037c5a"/>
      <path id="Vector-185" data-name="Vector" d="M.3.9C.2.8.1.8,0,.7A1.336,1.336,0,0,1,.3,0Z" transform="translate(99.005 18.801)" fill="#037c5a"/>
      <path id="Vector-186" data-name="Vector" d="M.5,0,.7.2A.592.592,0,0,1,0,.3C.1,0,.3,0,.5,0Z" transform="translate(82.105 36.4)" fill="#037c5a"/>
      <path id="Vector-187" data-name="Vector" d="M.2.6,0,.4C.1.3.2.1.3,0,.4,0,.5,0,.5.2.4.2.4.4.2.6Z" transform="translate(32.006 34.102)" fill="#037c5a"/>
      <path id="Vector-188" data-name="Vector" d="M.2.7,0,.5A.821.821,0,0,1,.5,0,1.493,1.493,0,0,1,.2.7Z" transform="translate(26.605 13.1)" fill="#037c5a"/>
      <path id="Vector-189" data-name="Vector" d="M.2.6C.2.5.1.5,0,.4A.773.773,0,0,1,.4,0C.5.3.4.4.2.6Z" transform="translate(32.305 33.602)" fill="#037c5a"/>
      <path id="Vector-190" data-name="Vector" d="M.2.6,0,.4A.52.52,0,0,1,.2,0,.375.375,0,0,1,.2.6Z" transform="translate(70.406 25.5)" fill="#037c5a"/>
      <path id="Vector-191" data-name="Vector" d="M.2.6C.1.5.1.5,0,.4A.781.781,0,0,1,.4,0C.5.3.4.4.2.6Z" transform="translate(15.906 34.5)" fill="#037c5a"/>
      <path id="Vector-192" data-name="Vector" d="M.2.527c0-.1,0-.2-.2-.3,0-.1.1-.3.2-.2.1,0,.1.2.1.3A.349.349,0,0,0,.2.527Z" transform="translate(77.906 13.973)" fill="#037c5a"/>
      <path id="Vector-193" data-name="Vector" d="M.3,0C.4.1.5.1.6.2.5.2.4.3.3.3H0C0,.1.1.1.3,0Z" transform="translate(28.506 8.4)" fill="#037c5a"/>
      <path id="Vector-194" data-name="Vector" d="M.2.6,0,.4C.1.3.1.1.2,0Q.5.45.2.6Z" transform="translate(36.706 9.7)" fill="#037c5a"/>
      <path id="Vector-195" data-name="Vector" d="M.2.6C.2.5.2.3,0,.3,0,.2.1.1.1,0,.2,0,.3,0,.3.2A.615.615,0,0,1,.2.6Z" transform="translate(108.807 25.9)" fill="#037c5a"/>
      <path id="Vector-196" data-name="Vector" d="M.2.6,0,.4C0,.2.1.1.3,0A.471.471,0,0,1,.2.6Z" transform="translate(108.906 25.5)" fill="#037c5a"/>
      <path id="Vector-197" data-name="Vector" d="M.1.327,0,.227c0-.1.1-.3.2-.2C.3.027.2.227.1.327Z" transform="translate(97.704 33.873)" fill="#037c5a"/>
      <path id="Vector-198" data-name="Vector" d="M0,.5V0C.1,0,.1,0,.1.1.2.3.1.4,0,.5Z" transform="translate(59.506 32.4)" fill="#037c5a"/>
      <path id="Vector-199" data-name="Vector" d="M.7.189H0C.3-.011.5-.111.7.189Z" transform="translate(9.305 22.311)" fill="#037c5a"/>
      <path id="Vector-200" data-name="Vector" d="M.3,0,.5.2C.4.3.3.3.2.4,0,.4,0,.4,0,.2.1.1.2,0,.3,0Z" transform="translate(64.805 10.8)" fill="#037c5a"/>
      <path id="Vector-201" data-name="Vector" d="M.2.415,0,.215v-.1c.1-.1.3-.2.4,0C.5.215.3.315.2.415Z" transform="translate(49.307 36.285)" fill="#037c5a"/>
      <path id="Vector-202" data-name="Vector" d="M.3,0,.5.2A.752.752,0,0,1,0,.3Z" transform="translate(64.505 10.9)" fill="#037c5a"/>
      <path id="Vector-203" data-name="Vector" d="M.075.327c-.1-.1-.1-.3,0-.3C.175-.073.075.127.075.327Z" transform="translate(11.831 14.373)" fill="#037c5a"/>
      <path id="Vector-204" data-name="Vector" d="M.166,0a.751.751,0,0,1-.1.5C-.034.3-.034.1.166,0Z" transform="translate(8.94 22.6)" fill="#037c5a"/>
      <path id="Vector-205" data-name="Vector" d="M.1.227H0c0-.1,0-.2.1-.2Z" transform="translate(46.305 16.973)" fill="#037c5a"/>
      <path id="Vector-206" data-name="Vector" d="M0,.3V0A.187.187,0,0,1,0,.3Z" transform="translate(10.406 22.8)" fill="#037c5a"/>
      <path id="Vector-207" data-name="Vector" d="M0,.3V.1L.1,0C.2.1.1.2,0,.3Z" transform="translate(27.506 22.4)" fill="#037c5a"/>
      <path id="Vector-208" data-name="Vector" d="M.075,0Z" transform="translate(64.431 11.2)" fill="#037c5a"/>
      <path id="Vector-209" data-name="Vector" d="M0,.1.1,0C.2,0,.2.1,0,.1Z" transform="translate(27.006 13)" fill="#037c5a"/>
      <path id="Vector-210" data-name="Vector" d="M.2.2C.1.2.1.1,0,0A.215.215,0,0,1,.2.2Z" transform="translate(10.206 22.6)" fill="#037c5a"/>
      <path id="Vector-211" data-name="Vector" d="M0,.2C0,.1.1.1.1,0,.1.1,0,.1,0,.2Z" transform="translate(32.105 34.801)" fill="#037c5a"/>
      <path id="Vector-212" data-name="Vector" d="M.2,0C.1,0,.1.1,0,.1,0,0,.1,0,.2,0Z" transform="translate(9.105 22.5)" fill="#037c5a"/>
      <path id="Vector-213" data-name="Vector" d="M.2.1C.1.1.1,0,0,0,.1,0,.2,0,.2.1Z" transform="translate(10.006 22.499)" fill="#037c5a"/>
      <path id="Vector-214" data-name="Vector" d="M.2,0C.2.1.1.1,0,.2Z" transform="translate(31.805 34.4)" fill="#037c5a"/>
      <path id="Vector-215" data-name="Vector" d="M58.206,23.694c-.2-2-.5-4-.7-6-.3-2.4-.6-4.7-.9-7.1-.1-1.1-.3-2.3-.4-3.4-.1-.3,0-.4.4-.4a3.334,3.334,0,0,0,1,0c-.8-1.7-1.6-3.4-2.5-5.2a3.3,3.3,0,0,0-.8,2.7c.3,2.5.6,4.9.9,7.4.6,5.4,1.3,10.7,2,16.1a2.11,2.11,0,0,1-1.2,2.5,5.609,5.609,0,0,1-4.4.3,2.73,2.73,0,0,1-1.2-.9c-.4-.4-.4-.5.1-.7.8-.4,1.6-.8,2.5-1.2a2.365,2.365,0,0,0,1.1-1.1c.4-.8.4-1.3-.7-1.7a17.2,17.2,0,0,0-7.5-.8,6.665,6.665,0,0,0-2.7.9,2.9,2.9,0,0,0-1.4,2.6c2.1-.7,3.5-.3,4.4,1.2a18.75,18.75,0,0,1-6.2,2.5,7.5,7.5,0,0,1-1.5.1,2.971,2.971,0,0,1-3.1-3c-.1-1.5-.3-3.1-.4-4.7a20.218,20.218,0,0,0-3.8-10.3,2.3,2.3,0,0,0-.7-.8,8.707,8.707,0,0,1-.1,1.9,2.958,2.958,0,0,0,.2,1,39.687,39.687,0,0,1,3,9.6,1.469,1.469,0,0,1-.2,1.1,13.622,13.622,0,0,1-1.9,2.3,26.535,26.535,0,0,1-6.5,4.4,6.348,6.348,0,0,1-3.3.5,2.055,2.055,0,0,1-1.8-1.4,5.546,5.546,0,0,1-.2-1.8.814.814,0,0,1,.4-.8,7.366,7.366,0,0,0,2.3-3.4,12.774,12.774,0,0,0,.6-3.4,38.545,38.545,0,0,0-.2-4.8c-.3-4.2-.7-8.3-1-12.5,0-.2-.1-.4,0-.6.4.1.6.5,1,.5.1-.2,0-.3,0-.4-.5-1.5-1.1-2.9-1.6-4.4-.1-.2-.1-.5-.4-.5a.891.891,0,0,0-.8.5,2.769,2.769,0,0,0-.1.9c.1,1.4.3,2.8.4,4.2.2,2.3.5,4.7.7,7,.2,2,.3,4,.5,6,.2,2.1.3,4.3.4,6.5a1.082,1.082,0,0,1-.4.9,38.04,38.04,0,0,1-5.5,4.2,20.163,20.163,0,0,1-4.7,2.2,10.55,10.55,0,0,1-6.8.1,4.4,4.4,0,0,1-3.3-4.8,13.4,13.4,0,0,1,1-4.4,4.48,4.48,0,0,0,.3-1.1,1.954,1.954,0,0,0-.9.9,9.807,9.807,0,0,0-1.6,5.5c.1,2.9,1.8,6.4,6.3,6.5a14.672,14.672,0,0,0,5.9-1,32.274,32.274,0,0,0,5.8-3.1,8.65,8.65,0,0,1,1-.7c0,.4-.1.6-.1.9a7.016,7.016,0,0,0,.1,2.5,2.774,2.774,0,0,0,2.2,2.2,4.713,4.713,0,0,0,3.5-.3q.6-.3,1.2-.6a19.027,19.027,0,0,0,8-7.4c.1-.1.1-.1.2-.1.1.6.1,1.1.2,1.7a7.052,7.052,0,0,0,.6,2.5,2.588,2.588,0,0,0,1.4,1.5,5.374,5.374,0,0,0,2.1.5,10.875,10.875,0,0,0,3.9-.8,29.762,29.762,0,0,0,5.1-2.4c.4-.1.6-.1.8.2a5.775,5.775,0,0,0,2,1.8,4.862,4.862,0,0,0,3.9.6,4.955,4.955,0,0,0,3.7-3.8A15.117,15.117,0,0,0,58.206,23.694Zm-9.1,4a1.9,1.9,0,0,1-1.6-1c-.2-.4-.2-.5.3-.6a7.047,7.047,0,0,1,2.8.4A1.564,1.564,0,0,1,49.106,27.694Z" transform="translate(0 1.006)" fill="#037c5a"/>
      <path id="Vector-216" data-name="Vector" d="M36.7,11.9a2.161,2.161,0,0,0-.1-.8,7.312,7.312,0,0,0-1.9-3.7,2.84,2.84,0,0,0-4.8.7c-.1.3-.2.5-.3.8-.5,1.9.3,3,2,3.2a8.086,8.086,0,0,0,3.1-.1c.3-.1.7-.2.9.2a.908.908,0,0,1,0,1,1.783,1.783,0,0,1-.5.7,23.875,23.875,0,0,1-8.4,6.3,7.626,7.626,0,0,1-3.6.6,3.285,3.285,0,0,1-2.9-2.6,6.9,6.9,0,0,1,0-3.2c0-.2.2-.4.4-.6a18.116,18.116,0,0,1,1.7-1.2,4.041,4.041,0,0,0,1.8-2.6,9.255,9.255,0,0,0,.4-2.3,4.592,4.592,0,0,0-.8-2.8c-.6-.7-1-1.5-1.5-2.2-.2-.3-.3-.5,0-.7.2-.2.4-.5.1-.8-.6-.6-1.3-1.2-2-1.8a6.373,6.373,0,0,1-.2.7,2.848,2.848,0,0,0,.3,2,47.682,47.682,0,0,0,2.8,4.9,1.522,1.522,0,0,1,.3,1.3,3.167,3.167,0,0,1-1.4,2.3l-2.4,1.5a107.1,107.1,0,0,1-11,6.2C5.9,20.3,2.9,21.5,0,22.8c0,.1,0,.2.2.5,2.1-.4,4.2-.9,6.4-1.2a12.927,12.927,0,0,0,4.3-1.5A85.779,85.779,0,0,0,18.6,16a1.012,1.012,0,0,1,.7-.4,2.136,2.136,0,0,1,0,.8,12.984,12.984,0,0,0,0,2.8c.2,2.5,1.6,3.9,4.3,3.9a9.9,9.9,0,0,0,4.7-1.4A23.324,23.324,0,0,0,35.9,15,3.478,3.478,0,0,0,36.7,11.9ZM31.5,9.6c-.2,0-.6-.1-.6-.4s.2-.4.4-.6a1.7,1.7,0,0,1,2.5.7A3.7,3.7,0,0,1,31.5,9.6Z" transform="translate(82.609 13.598)" fill="#037c5a"/>
      <path id="Vector-217" data-name="Vector" d="M7.327.086c-1.2,1.6-2.3,3.2-3.5,4.8a1.786,1.786,0,0,1-.7-.5c-.7-.7-.7-.7-.2-1.6-.9-.6-1.8-1.1-2.8-1.7-.1.4,0,.8-.1,1.2a1.578,1.578,0,0,0,.4,1.3c.7.8,1.4,1.7,2.1,2.5.3.3.3.5,0,.8a7.821,7.821,0,0,0-1.6,5.7,4.331,4.331,0,0,0,.1.5,1.548,1.548,0,0,0,2.1,1.1,7.51,7.51,0,0,0,2-1,2.781,2.781,0,0,0,1.4-2.1,8.582,8.582,0,0,0,.2-1.6,3.962,3.962,0,0,0-1.7-3.6c-.1,0-.1-.1-.2-.2.5-.7.9-1.3,1.4-1.9a6.609,6.609,0,0,0,1.1-2.4c.1-.4.2-.8.3-1.2C7.727.086,7.727-.114,7.327.086Zm-1.4,9.6a.821.821,0,0,1-.1.7,2.2,2.2,0,0,1-1,.9,4.7,4.7,0,0,1-1.9.6c-1,0-1.2-.2-1.1-1a4.36,4.36,0,0,1,1.5-3,.856.856,0,0,1,1.3,0A5.5,5.5,0,0,1,5.927,9.686Z" transform="translate(70.478 14.314)" fill="#037c5a"/>
      <path id="Vector-218" data-name="Vector" d="M10.037,2.5A3.422,3.422,0,0,0,7.137,0a.76.76,0,0,0-.8.6,1.123,1.123,0,0,0,.1.8.632.632,0,0,1,0,.6.94.94,0,0,0,.4,1.4c.2.1.5.2.6.5-.5.4-.9.8-1.4,1.2a60.06,60.06,0,0,1-6,4.3c-.1.2,0,.3.3.3a18.7,18.7,0,0,0,7.4-5.3c.2-.2.4-.4.8-.2a1.308,1.308,0,0,0,1.3-.3A1.213,1.213,0,0,0,10.037,2.5Zm-2.6.3c-.4,0-.5-.1-.5-.5s.3-.8.6-.7c.3,0,.6.4.6.7A.686.686,0,0,1,7.437,2.8Zm1.3.3c-.2,0-.4-.1-.3-.3a.366.366,0,0,1,.4-.4.429.429,0,0,1,.4.4C9.237,3.1,8.937,3.1,8.737,3.1Z" transform="translate(65.769 1)" fill="#037c5a"/>
    </g>
    <g id="Group-3" data-name="Group" transform="translate(0.605 64.8)">
      <path id="Vector-219" data-name="Vector" d="M0,0H1.7L4.1,7.3,6.6,0H8.3V8.6H7.1V1.3L4.6,8.6H3.5L1.1,1.3V8.7H0Z" transform="translate(0 0.1)" fill="#c1a73d"/>
      <path id="Vector-220" data-name="Vector" d="M0,0H1.1V1.2H0ZM0,2.4H1.1V8.6H0Z" transform="translate(11.2 0.1)" fill="#c1a73d"/>
      <path id="Vector-221" data-name="Vector" d="M.1.1h1V1A3.272,3.272,0,0,1,2,.2,1.978,1.978,0,0,1,3.1,0,1.816,1.816,0,0,1,4.9.9a2.81,2.81,0,0,1,.3,1.5v4H4.1v-4a2,2,0,0,0-.2-.9,1.007,1.007,0,0,0-1-.6c-.2,0-.5,0-.6.1a3.616,3.616,0,0,0-.8.5.865.865,0,0,0-.3.6c0,.2-.1.5-.1.9V6.3H0V.1Z" transform="translate(15.2 2.3)" fill="#c1a73d"/>
      <path id="Vector-222" data-name="Vector" d="M0,0H1.1V1.2H0ZM0,2.4H1.1V8.6H0Z" transform="translate(23.3 0.1)" fill="#c1a73d"/>
      <path id="Vector-223" data-name="Vector" d="M.9,4.4a.984.984,0,0,0,.3.8,1.813,1.813,0,0,0,1.4.5,2.279,2.279,0,0,0,1.1-.3.749.749,0,0,0,.5-.8A.55.55,0,0,0,3.8,4a4.708,4.708,0,0,0-.9-.3L2,3.6A8.729,8.729,0,0,1,.8,3.2,1.3,1.3,0,0,1,.1,2,1.509,1.509,0,0,1,.8.6,2.353,2.353,0,0,1,2.5,0,2.708,2.708,0,0,1,4.6.8,1.661,1.661,0,0,1,5,1.9H4a.713.713,0,0,0-.3-.6A1.693,1.693,0,0,0,2.4.9a2,2,0,0,0-.9.2.863.863,0,0,0-.3.6.755.755,0,0,0,.4.7,4.875,4.875,0,0,0,.7.3l.7.2a16.559,16.559,0,0,1,1.6.5,1.486,1.486,0,0,1,.6,1.3,1.814,1.814,0,0,1-.6,1.4,2.818,2.818,0,0,1-2,.6,2.814,2.814,0,0,1-2-.6A2.112,2.112,0,0,1,0,4.5Z" transform="translate(27.1 2.299)" fill="#c1a73d"/>
      <path id="Vector-224" data-name="Vector" d="M.9,0H2V1.8H3v.9H2V6.8c0,.2.1.4.2.4s.2.1.4.1H3v.8c-.1,0-.2.1-.4.1H2.2a1.057,1.057,0,0,1-1-.4,1.685,1.685,0,0,1-.3-1V2.6H0V1.7H.8V0Z" transform="translate(34.1 0.7)" fill="#c1a73d"/>
      <path id="Vector-225" data-name="Vector" d="M.1.2h1V1.3A3.278,3.278,0,0,1,1.7.5,1.606,1.606,0,0,1,2.8,0h.3V1.1H2.7a1.658,1.658,0,0,0-1.2.5,1.594,1.594,0,0,0-.4,1.2V6.4H0Z" transform="translate(39.4 2.2)" fill="#c1a73d"/>
      <path id="Vector-226" data-name="Vector" d="M4.6.1H5.8c-.1.4-.5,1.3-1,2.8-.4,1.1-.7,2-1,2.6A11.821,11.821,0,0,1,2.5,8.4c-.2.4-.7.5-1.3.5H.9a.368.368,0,0,1-.3-.1v-1a.755.755,0,0,0,.4.1h.2c.2,0,.3,0,.4-.1s.2-.1.2-.2A4.094,4.094,0,0,0,2,7.1a1.645,1.645,0,0,1,.3-.6L0,0H1.2L2.9,5.1Z" transform="translate(44.196 2.299)" fill="#c1a73d"/>
      <path id="Vector-227" data-name="Vector" d="M5,.819a2.919,2.919,0,0,1,.8,2.4,4.091,4.091,0,0,1-.7,2.5,2.531,2.531,0,0,1-2.3,1,2.388,2.388,0,0,1-2-.9,3.653,3.653,0,0,1-.8-2.4A3.742,3.742,0,0,1,.8.919a2.583,2.583,0,0,1,2.1-.9A2.259,2.259,0,0,1,5,.819Zm-.6,4.1a3.415,3.415,0,0,0,.4-1.8,2.644,2.644,0,0,0-.3-1.4A1.55,1.55,0,0,0,3,.82a1.51,1.51,0,0,0-1.4.7,3.438,3.438,0,0,0-.4,1.8,3.079,3.079,0,0,0,.4,1.7,1.616,1.616,0,0,0,1.4.7A1.593,1.593,0,0,0,4.4,4.919Z" transform="translate(56.5 2.281)" fill="#c1a73d"/>
      <path id="Vector-228" data-name="Vector" d="M1.1.5C1.3.1,1.8,0,2.5,0h.4V1H2.6a.858.858,0,0,0-.6.2,3.474,3.474,0,0,0-.1,1.3H3v.8H1.9V8.7H.9V3.3H0V2.5H.9v-1A2.194,2.194,0,0,1,1.1.5Z" transform="translate(64.396)" fill="#c1a73d"/>
      <path id="Vector-229" data-name="Vector" d="M5,5.9a3.98,3.98,0,0,1-.3,1.7A2.48,2.48,0,0,1,2.4,8.7,3.365,3.365,0,0,1,.7,8.2,2.11,2.11,0,0,1,0,6.3V5.7H1.1v.6a1.808,1.808,0,0,0,.3,1.1,1.05,1.05,0,0,0,1,.4,1.206,1.206,0,0,0,1.2-.6,4.81,4.81,0,0,0,.2-1.5V0H5V5.9Z" transform="translate(73.8 0.2)" fill="#c1a73d"/>
      <path id="Vector-230" data-name="Vector" d="M1.1,0V4.2a1.914,1.914,0,0,0,.1.8,1,1,0,0,0,1,.6,1.5,1.5,0,0,0,1.5-1,5.208,5.208,0,0,0,.2-1.4V.1H5V6.4H4V5.5a2.7,2.7,0,0,1-.5.6,2.384,2.384,0,0,1-1.4.5A1.819,1.819,0,0,1,.3,5.7,2.279,2.279,0,0,1,0,4.4V.1Z" transform="translate(81.802 2.4)" fill="#c1a73d"/>
      <path id="Vector-231" data-name="Vector" d="M.9,4.5a.984.984,0,0,0,.3.8,1.813,1.813,0,0,0,1.4.5,2.288,2.288,0,0,0,1.1-.3.748.748,0,0,0,.5-.8.55.55,0,0,0-.4-.6,4.7,4.7,0,0,0-.9-.3L2,3.6A8.772,8.772,0,0,1,.8,3.2,1.3,1.3,0,0,1,.1,2,1.512,1.512,0,0,1,.8.6,2.358,2.358,0,0,1,2.5,0,2.712,2.712,0,0,1,4.6.8,1.664,1.664,0,0,1,5,1.9H4a.717.717,0,0,0-.3-.6C3.5,1,3,.9,2.4.9a2.025,2.025,0,0,0-.9.2.869.869,0,0,0-.3.6.755.755,0,0,0,.4.7,4.913,4.913,0,0,0,.7.3l.7.2a16.128,16.128,0,0,1,1.6.5,1.489,1.489,0,0,1,.6,1.3,1.806,1.806,0,0,1-.6,1.4,2.814,2.814,0,0,1-2,.6,2.8,2.8,0,0,1-2-.6A2.108,2.108,0,0,1,0,4.5Z" transform="translate(89.6 2.2)" fill="#c1a73d"/>
      <path id="Vector-232" data-name="Vector" d="M.8,0H1.9V1.8h1v.9h-1V6.8c0,.2.1.4.2.4s.2.1.4.1h.4v.8c-.1,0-.2.1-.4.1H2.1a1.057,1.057,0,0,1-1-.4,1.685,1.685,0,0,1-.3-1V2.6H0V1.7H.8Z" transform="translate(96.7 0.7)" fill="#c1a73d"/>
      <path id="Vector-233" data-name="Vector" d="M0,0H1.1V1.2H0ZM0,2.4H1.1V8.6H0Z" transform="translate(102 0.1)" fill="#c1a73d"/>
      <path id="Vector-234" data-name="Vector" d="M4.6.522a2.549,2.549,0,0,1,.8,1.8h-1a3.033,3.033,0,0,0-.4-1,1.243,1.243,0,0,0-1.1-.4,1.308,1.308,0,0,0-1.4,1,3.806,3.806,0,0,0-.3,1.6,2.731,2.731,0,0,0,.4,1.6,1.487,1.487,0,0,0,1.3.6,1.163,1.163,0,0,0,1-.4,2.838,2.838,0,0,0,.5-1.1h1a2.61,2.61,0,0,1-.9,1.8,2.793,2.793,0,0,1-1.8.6,2.521,2.521,0,0,1-2-.9,3.229,3.229,0,0,1-.7-2.2A4.036,4.036,0,0,1,.8.928a2.514,2.514,0,0,1,2-.9A2.243,2.243,0,0,1,4.6.522Z" transform="translate(105.6 2.278)" fill="#c1a73d"/>
      <path id="Vector-235" data-name="Vector" d="M4.5.3a2.353,2.353,0,0,1,.9.8,3.555,3.555,0,0,1,.4,1.1,5.212,5.212,0,0,1,.1,1.4H1.3a2.982,2.982,0,0,0,.4,1.5A1.488,1.488,0,0,0,3,5.7a1.9,1.9,0,0,0,1.3-.5,2.506,2.506,0,0,0,.4-.7h1a1.612,1.612,0,0,1-.3.8,4.2,4.2,0,0,1-.5.7,2.294,2.294,0,0,1-1.2.6,2.483,2.483,0,0,1-.9.1,2.672,2.672,0,0,1-2-.9A3.653,3.653,0,0,1,0,3.4,4.147,4.147,0,0,1,.8.9,2.724,2.724,0,0,1,2.9,0,3.457,3.457,0,0,1,4.5.3Zm.3,2.5a1.8,1.8,0,0,0-.3-1.1,1.6,1.6,0,0,0-1.4-.8,1.655,1.655,0,0,0-1.2.5,1.9,1.9,0,0,0-.5,1.3Z" transform="translate(112.8 2.304)" fill="#c1a73d"/>
    </g>
  </g>
</svg>
