<svg xmlns="http://www.w3.org/2000/svg" width="55" height="55" viewBox="0 0 55 55">
  <g id="تراخيص-الطب-البديل" transform="translate(-1139.5 -845)">
    <g id="Group_114" data-name="Group 114" transform="translate(1139.5 845)">
      <rect id="Rectangle_25" data-name="Rectangle 25" width="55" height="55" rx="15" fill="#f4f7fb"/>
    </g>
    <g id="medical-certificate" transform="translate(1144.51 853.598)">
      <g id="Group_4880" data-name="Group 4880" transform="translate(11 3)">
        <path id="Path_8823" data-name="Path 8823" d="M31.391,35.077H13.7a2.7,2.7,0,0,1-2.7-2.7V5.7A2.7,2.7,0,0,1,13.7,3H28.593a1.784,1.784,0,0,1,1.44.734L33.566,8.6a2.726,2.726,0,0,1,.524,1.614V32.378a2.7,2.7,0,0,1-2.7,2.7ZM13.7,4.106A1.6,1.6,0,0,0,12.106,5.7V32.378A1.6,1.6,0,0,0,13.7,33.971H31.391a1.6,1.6,0,0,0,1.593-1.593V10.211a1.633,1.633,0,0,0-.313-.964L29.137,4.384a.675.675,0,0,0-.544-.278Z" transform="translate(-11 -3)" fill="#306db5"/>
      </g>
      <g id="Group_4881" data-name="Group 4881" transform="translate(27.38 3.393)">
        <path id="Path_8824" data-name="Path 8824" d="M46.307,10.339c-.017,0-3.993-.252-3.993-.252A1.811,1.811,0,0,1,40.7,7.752l1.04-3.419a.877.877,0,0,1,1.548-.26L46.937,9.1a.781.781,0,0,1-.63,1.24Zm.018-1.106ZM42.661,5.094l-.906,2.979a.705.705,0,0,0,.63.909l3.251.207Z" transform="translate(-40.617 -3.71)" fill="#306db5"/>
      </g>
      <g id="Group_4884" data-name="Group 4884" transform="translate(15.332 21.52)">
        <path id="Path_8827" data-name="Path 8827" d="M32.936,37.593H19.386a.553.553,0,1,1,0-1.106h13.55a.553.553,0,0,1,0,1.106Z" transform="translate(-18.833 -36.487)" fill="#7eb7db"/>
      </g>
      <g id="Group_4885" data-name="Group 4885" transform="translate(15.332 25.578)">
        <path id="Path_8828" data-name="Path 8828" d="M32.936,44.931H19.386a.553.553,0,1,1,0-1.106h13.55a.553.553,0,0,1,0,1.106Z" transform="translate(-18.833 -43.825)" fill="#7eb7db"/>
      </g>
      <g id="Group_4886" data-name="Group 4886" transform="translate(15.332 29.636)">
        <path id="Path_8829" data-name="Path 8829" d="M32.936,52.269H19.386a.553.553,0,1,1,0-1.106h13.55a.553.553,0,0,1,0,1.106Z" transform="translate(-18.833 -51.163)" fill="#7eb7db"/>
      </g>
      <path id="Path_8850" data-name="Path 8850" d="M73.093,4.345a.384.384,0,0,0-.286.5A6.837,6.837,0,0,0,75.535,8.3a6.17,6.17,0,0,0,3.062.746,7.208,7.208,0,0,0,1.229-.1,7.209,7.209,0,0,0,1.23.1A6.17,6.17,0,0,0,84.118,8.3a6.834,6.834,0,0,0,2.728-3.46.384.384,0,0,0-.286-.5,7.421,7.421,0,0,0-2.5-.015,7.428,7.428,0,0,0-.015-2.5.384.384,0,0,0-.5-.286,7.426,7.426,0,0,0-2.184,1.247A7.423,7.423,0,0,0,80.1.628a.384.384,0,0,0-.572,0,7.43,7.43,0,0,0-1.261,2.154A7.424,7.424,0,0,0,76.1,1.547a.384.384,0,0,0-.5.286,7.432,7.432,0,0,0-.015,2.5,7.427,7.427,0,0,0-2.5.015Zm12.846.688a5.85,5.85,0,0,1-2.205,2.6,5.268,5.268,0,0,1-2.429.636A5.567,5.567,0,0,0,83.868,5.15a6.715,6.715,0,0,1,2.071-.117Zm-2.747-.3a4.7,4.7,0,0,1-2.259,2.865,6.082,6.082,0,0,0,.8-2.875A5.171,5.171,0,0,0,81.609,3.6,6.7,6.7,0,0,1,83.36,2.453a6.562,6.562,0,0,1-.168,2.277ZM79.817,1.508A5.739,5.739,0,0,1,80.968,4.72a5.875,5.875,0,0,1-1.151,3.211A5.844,5.844,0,0,1,78.666,4.72a5.729,5.729,0,0,1,1.151-3.212Zm-3.524.944A6.685,6.685,0,0,1,78.028,3.59,5.192,5.192,0,0,0,77.9,4.72a6.068,6.068,0,0,0,.791,2.857A4.7,4.7,0,0,1,76.46,4.73a6.589,6.589,0,0,1-.167-2.278Zm-.509,2.7A5.564,5.564,0,0,0,78.35,8.273a5.265,5.265,0,0,1-2.432-.637,5.852,5.852,0,0,1-2.205-2.6,6.719,6.719,0,0,1,2.071.117Zm0,0" transform="translate(-57.166 9.521)" fill="#306db5"/>
    </g>
  </g>
</svg>
