<svg xmlns="http://www.w3.org/2000/svg" width="16.807" height="20" viewBox="0 0 16.807 20"><defs><style>.a{fill:#2969b6;}</style></defs><path class="a" d="M14.334,12.819a4.168,4.168,0,0,1,2.233-3.786,4.8,4.8,0,0,0-3.782-1.992c-1.585-.125-3.318.924-3.952.924-.67,0-2.206-.88-3.412-.88-2.492.04-5.14,1.987-5.14,5.947a11.133,11.133,0,0,0,.643,3.626c.572,1.638,2.634,5.658,4.787,5.59,1.125-.027,1.92-.8,3.385-.8,1.42,0,2.157.8,3.412.8,2.17-.031,4.036-3.684,4.581-5.327a4.427,4.427,0,0,1-2.755-4.1ZM11.806,5.488A4.206,4.206,0,0,0,12.878,2.25,4.732,4.732,0,0,0,9.846,3.808,4.272,4.272,0,0,0,8.7,7.019a3.75,3.75,0,0,0,3.1-1.532Z" transform="translate(-0.281 -2.25)"/></svg>