<svg xmlns="http://www.w3.org/2000/svg" width="55" height="55" viewBox="0 0 55 55">
  <g id="Group_5041" data-name="Group 5041" transform="translate(-520 -949)">
    <g id="Group_4879" data-name="Group 4879" transform="translate(-619.5 104.081)">
      <g id="Group_114" data-name="Group 114" transform="translate(1139.5 844.919)">
        <rect id="Rectangle_25" data-name="Rectangle 25" width="55" height="55" rx="15" fill="#f4f7fb"/>
      </g>
    </g>
    <g id="medical-certificate_3_" data-name="medical-certificate (3)" transform="translate(471.018 944.898)">
      <path id="Path_8962" data-name="Path 8962" d="M82.57,16.152A.52.52,0,0,0,82.2,16H66.6A2.6,2.6,0,0,0,64,18.6v26a2.6,2.6,0,0,0,2.6,2.6H86.363a2.6,2.6,0,0,0,2.6-2.6V22.761a.52.52,0,0,0-.152-.368Zm.152,1.623,4.465,4.465H84.283a1.562,1.562,0,0,1-1.56-1.56Zm5.2,26.828a1.562,1.562,0,0,1-1.56,1.56H66.6a1.562,1.562,0,0,1-1.56-1.56v-26a1.562,1.562,0,0,1,1.56-1.56H81.682v3.64a2.6,2.6,0,0,0,2.6,2.6h3.64Z" transform="translate(0 0)" fill="#306db5"/>
      <path id="Path_8963" data-name="Path 8963" d="M232,192.52a.52.52,0,0,0,.52.52H242.4a.52.52,0,1,0,0-1.04H232.52A.52.52,0,0,0,232,192.52Z" transform="translate(-157.079 -164.558)" fill="#7eb7db"/>
      <path id="Path_8964" data-name="Path 8964" d="M112.52,225.04h10.4a.52.52,0,0,0,0-1.04h-10.4a.52.52,0,1,0,0,1.04Z" transform="translate(-44.88 -194.478)" fill="#7eb7db"/>
      <path id="Path_8965" data-name="Path 8965" d="M249.881,256H240.52a.52.52,0,0,0,0,1.04h9.361a.52.52,0,0,0,0-1.04Z" transform="translate(-164.558 -224.398)" fill="#7eb7db"/>
      <path id="Path_8966" data-name="Path 8966" d="M112.52,289.04H125a.52.52,0,1,0,0-1.04H112.52a.52.52,0,1,0,0,1.04Z" transform="translate(-44.88 -254.318)" fill="#7eb7db"/>
      <path id="Path_8967" data-name="Path 8967" d="M136.52,192a.52.52,0,1,0,0,1.04h4.161a.52.52,0,1,0,0-1.04Z" transform="translate(-67.319 -164.558)" fill="#7eb7db"/>
      <path id="Path_8968" data-name="Path 8968" d="M309.721,224h-5.2a.52.52,0,0,0,0,1.04h5.2a.52.52,0,0,0,0-1.04Z" transform="translate(-224.398 -194.478)" fill="#7eb7db"/>
      <path id="Path_8969" data-name="Path 8969" d="M112.52,257.04h6.241a.52.52,0,0,0,0-1.04H112.52a.52.52,0,0,0,0,1.04Z" transform="translate(-44.88 -224.398)" fill="#7eb7db"/>
      <path id="Path_8970" data-name="Path 8970" d="M339.64,288h-3.12a.52.52,0,0,0,0,1.04h3.12a.52.52,0,1,0,0-1.04Z" transform="translate(-254.318 -254.318)" fill="#7eb7db"/>
      <path id="Path_8971" data-name="Path 8971" d="M112.52,321.04h4.161a.52.52,0,1,0,0-1.04H112.52a.52.52,0,1,0,0,1.04Z" transform="translate(-44.88 -284.237)" fill="#7eb7db"/>
      <path id="Path_8972" data-name="Path 8972" d="M208.52,320a.52.52,0,0,0,0,1.04h5.2a.52.52,0,1,0,0-1.04Z" transform="translate(-134.639 -284.237)" fill="#7eb7db"/>
      <path id="Path_8973" data-name="Path 8973" d="M112.52,68.681h1.04v1.04a.52.52,0,0,0,.52.52h2.08a.52.52,0,0,0,.52-.52v-1.04h1.04a.52.52,0,0,0,.52-.52V66.08a.52.52,0,0,0-.52-.52h-1.04V64.52a.52.52,0,0,0-.52-.52h-2.08a.52.52,0,0,0-.52.52v1.04h-1.04a.52.52,0,0,0-.52.52v2.08A.52.52,0,0,0,112.52,68.681Zm.52-2.08h1.04a.52.52,0,0,0,.52-.52V65.04h1.04v1.04a.52.52,0,0,0,.52.52h1.04v1.04h-1.04a.52.52,0,0,0-.52.52V69.2H114.6v-1.04a.52.52,0,0,0-.52-.52h-1.04Z" transform="translate(-44.88 -44.88)" fill="#306db5"/>
      <path id="Path_8974" data-name="Path 8974" d="M121.881,352H112.52a.52.52,0,1,0,0,1.04h9.361a.52.52,0,1,0,0-1.04Z" transform="translate(-44.88 -314.157)" fill="#7eb7db"/>
      <path id="Path_8975" data-name="Path 8975" d="M324.681,320H320.52a.52.52,0,1,0,0,1.04h4.161a.52.52,0,1,0,0-1.04Z" transform="translate(-239.358 -284.237)" fill="#7eb7db"/>
      <path id="Path_8976" data-name="Path 8976" d="M290.6,432h-2.08a.52.52,0,0,0,0,1.04h2.08a.52.52,0,0,0,0-1.04Z" transform="translate(-209.438 -388.956)" fill="#306db5"/>
      <path id="Path_8977" data-name="Path 8977" d="M354.6,432h-2.08a.52.52,0,0,0,0,1.04h2.08a.52.52,0,0,0,0-1.04Z" transform="translate(-269.277 -388.956)" fill="#306db5"/>
      <path id="Path_8978" data-name="Path 8978" d="M295.226,376.286a.52.52,0,0,0-.7-.233l-3.011,1.505H290.4l-.376-.753a.52.52,0,0,0-.833-.135l-1.04,1.04a.52.52,0,0,0,.736.735l.53-.53.2.395a.52.52,0,0,0,.465.287h1.56a.52.52,0,0,0,.233-.055l3.12-1.56A.52.52,0,0,0,295.226,376.286Z" transform="translate(-209.438 -336.595)" fill="#306db5"/>
    </g>
  </g>
</svg>
