<svg xmlns="http://www.w3.org/2000/svg" width="55" height="55" viewBox="0 0 55 55">
  <g id="Group_5038" data-name="Group 5038" transform="translate(-220 -682)">
    <g id="Group_4879" data-name="Group 4879" transform="translate(-919.5 -162.919)">
      <g id="Group_114" data-name="Group 114" transform="translate(1139.5 844.919)">
        <rect id="Rectangle_25" data-name="Rectangle 25" width="55" height="55" rx="15" fill="#f4f7fb"/>
      </g>
    </g>
    <g id="check" transform="translate(232 694)">
      <g id="Group_4938" data-name="Group 4938" transform="translate(15.56)">
        <g id="Group_4937" data-name="Group 4937">
          <path id="Path_8979" data-name="Path 8979" d="M273.171,1.388a1.919,1.919,0,1,0-.073,1.269.781.781,0,0,1,.339.643V4.879a7.961,7.961,0,0,1-5.4,7.559,7.961,7.961,0,0,1-5.4-7.559V3.3a.781.781,0,0,1,.333-.639A1.919,1.919,0,1,0,262.9,1.39a1.984,1.984,0,0,0-1.457,1.91V4.879a9.19,9.19,0,0,0,6.026,8.629v6.44a.795.795,0,1,1-1.589,0v-3.2a1.994,1.994,0,0,0-3.988,0v5.618a3,3,0,1,0,1.2,0V16.744a.795.795,0,1,1,1.589,0v3.2a1.994,1.994,0,1,0,3.988,0V13.485a9.188,9.188,0,0,0,5.966-8.606V3.3A1.984,1.984,0,0,0,273.171,1.388Zm-1.843,1.251a.72.72,0,1,1,.72-.72A.72.72,0,0,1,271.327,2.638ZM264.746,1.2a.72.72,0,1,1-.72.72A.72.72,0,0,1,264.746,1.2Zm-.454,24.1a1.8,1.8,0,1,1-1.8-1.8A1.8,1.8,0,0,1,264.293,25.3Z" transform="translate(-259.496)" fill="#306db5"/>
        </g>
      </g>
      <g id="Group_4940" data-name="Group 4940" transform="translate(23.505 24.17)">
        <g id="Group_4939" data-name="Group 4939">
          <path id="Path_8980" data-name="Path 8980" d="M393.023,403.265a.6.6,0,1,0,.176.424A.6.6,0,0,0,393.023,403.265Z" transform="translate(-392 -403.089)" fill="#7eb7db"/>
        </g>
      </g>
      <g id="Group_4942" data-name="Group 4942" transform="translate(0 10.313)">
        <g id="Group_4941" data-name="Group 4941">
          <path id="Path_8981" data-name="Path 8981" d="M26.862,175.365a.6.6,0,0,0-.6.6v14.623a.6.6,0,0,1-.6.6H24.7v-2.751a.6.6,0,1,0-1.2,0v2.751H1.8a.6.6,0,0,1-.6-.6V173.8a.6.6,0,0,1,.6-.6H14.251a.6.6,0,0,0,0-1.2H1.8A1.8,1.8,0,0,0,0,173.8v16.789a1.8,1.8,0,0,0,1.8,1.8H25.663a1.8,1.8,0,0,0,1.8-1.8V175.965A.6.6,0,0,0,26.862,175.365Z" transform="translate(0 -172)" fill="#306db5"/>
        </g>
      </g>
      <g id="Group_4944" data-name="Group 4944" transform="translate(16.329 10.313)">
        <g id="Group_4943" data-name="Group 4943">
          <path id="Path_8982" data-name="Path 8982" d="M273.353,172.176a.6.6,0,1,0,.176.424A.6.6,0,0,0,273.353,172.176Z" transform="translate(-272.33 -172)" fill="#7eb7db"/>
        </g>
      </g>
      <g id="Group_4946" data-name="Group 4946" transform="translate(1.859 15.512)">
        <g id="Group_4945" data-name="Group 4945">
          <path id="Path_8983" data-name="Path 8983" d="M41.048,258.7a4.014,4.014,0,0,0-2.507.889,4.014,4.014,0,0,0-2.507-.889,4.1,4.1,0,0,0-4.051,4.139,3.126,3.126,0,0,0,.174.98H31.6a.6.6,0,1,0,0,1.2h1.13a15.941,15.941,0,0,0,2.41,2.92,34.711,34.711,0,0,0,3.038,2.671.6.6,0,0,0,.728,0,34.7,34.7,0,0,0,3.038-2.671c2.094-2.082,3.156-3.8,3.156-5.1A4.1,4.1,0,0,0,41.048,258.7Zm.058,8.379c-1.013,1.008-2.037,1.863-2.565,2.289-.526-.424-1.545-1.275-2.556-2.28a17.519,17.519,0,0,1-1.818-2.07h1.067a.6.6,0,0,0,.556-.374l.512-1.262,1.481,3.483a.6.6,0,0,0,.5.363l.049,0a.6.6,0,0,0,.506-.278l1.228-1.934H41.11a.6.6,0,0,0,0-1.2H39.739a.6.6,0,0,0-.506.278l-.794,1.25-1.6-3.762a.6.6,0,0,0-.552-.365h-.005a.6.6,0,0,0-.551.374l-.9,2.225H33.442a2.421,2.421,0,0,1-.26-.98,2.9,2.9,0,0,1,2.851-2.94,2.786,2.786,0,0,1,2.066.914.6.6,0,0,0,.881,0,2.786,2.786,0,0,1,2.066-.914,2.9,2.9,0,0,1,2.851,2.94C43.9,263.383,43.536,264.659,41.106,267.078Z" transform="translate(-31 -258.699)" fill="#7eb7db"/>
        </g>
      </g>
      <g id="Group_4948" data-name="Group 4948" transform="translate(17.958 24.7)">
        <g id="Group_4947" data-name="Group 4947">
          <path id="Path_8984" data-name="Path 8984" d="M300.523,412.114a.6.6,0,1,0,.176.425A.6.6,0,0,0,300.523,412.114Z" transform="translate(-299.5 -411.939)" fill="#7eb7db"/>
        </g>
      </g>
    </g>
  </g>
</svg>
