<svg xmlns="http://www.w3.org/2000/svg" width="20" height="42.5" viewBox="0 0 20 42.5"><defs><style>.a,.b{fill:#306db5;}.b{fill-rule:evenodd;}</style></defs><g transform="translate(-708 -694)"><g transform="translate(708 694)"><path class="a" d="M18.065,7.5A1.565,1.565,0,0,0,16.5,9.065v6.259a1.565,1.565,0,1,0,3.129,0V9.065A1.565,1.565,0,0,0,18.065,7.5Z" transform="translate(-8.065 -2.649)"/><path class="b" d="M6,8.951C6,4.007,10.477,0,16,0S26,4.007,26,8.951V17.9c0,4.943-4.477,8.951-10,8.951S6,22.845,6,17.9Zm17.5,0V17.9c0,3.708-3.358,6.713-7.5,6.713S8.5,21.61,8.5,17.9V8.951c0-3.708,3.358-6.713,7.5-6.713S23.5,5.243,23.5,8.951Z" transform="translate(-6)"/></g><path class="b" d="M7.718,10.5l5.153,7.041L18.024,10.5l1.718,2.347-6.871,9.388L6,12.847Z" transform="translate(705.129 714.265)"/></g></svg>