<svg xmlns="http://www.w3.org/2000/svg" width="55" height="55" viewBox="0 0 55 55">
  <g id="التراخيص-الصحية" transform="translate(-1139.5 -845)">
    <g id="Group_114" data-name="Group 114" transform="translate(1139.5 845)">
      <rect id="Rectangle_25" data-name="Rectangle 25" width="55" height="55" rx="15" fill="#f4f7fb"/>
    </g>
    <g id="التراخيص-الصحية-2" data-name="التراخيص-الصحية" transform="translate(1156.186 856.074)">
      <path id="Path_8818" data-name="Path 8818" d="M21.626,6.426c0-.007,0-.014,0-.021a.64.64,0,0,0-.01-.082h0a.674.674,0,0,0-.022-.08l-.007-.02a.694.694,0,0,0-.032-.073l0,0a.629.629,0,0,0-.044-.071L21.5,6.059a.647.647,0,0,0-.056-.065L15.633.188a.647.647,0,0,0-.065-.056L15.551.119a.608.608,0,0,0-.07-.044l-.005,0A.672.672,0,0,0,15.4.041l-.02-.007A.657.657,0,0,0,15.3.012h0A.68.68,0,0,0,15.222,0H.642A.642.642,0,0,0,0,.641V28.105a.642.642,0,0,0,.642.642H10.3V32.21a.642.642,0,0,0,.983.544l2.444-1.533,2.444,1.533a.642.642,0,0,0,.983-.544V28.747h3.83a.642.642,0,0,0,.642-.642V6.448c0-.007,0-.015,0-.022ZM15.821,2.191l3.616,3.616H15.821ZM9.986,19.818a1.971,1.971,0,0,1-.12-.4,1.9,1.9,0,0,1,.331-.239,2.329,2.329,0,0,0,.676-.564,2.314,2.314,0,0,0,.335-.822,2.075,2.075,0,0,1,.119-.372.8.8,0,0,1,.159-.012c.071,0,.151,0,.236.008s.2.01.3.01a1.819,1.819,0,0,0,.587-.082,2.42,2.42,0,0,0,.74-.456,1.644,1.644,0,0,1,.375-.258,1.533,1.533,0,0,1,.381.258,2.421,2.421,0,0,0,.741.456,1.818,1.818,0,0,0,.587.082c.1,0,.205-.005.3-.01s.165-.008.236-.008a.784.784,0,0,1,.159.012,2.056,2.056,0,0,1,.119.372,2.314,2.314,0,0,0,.335.822,2.327,2.327,0,0,0,.676.564,1.924,1.924,0,0,1,.33.239,1.984,1.984,0,0,1-.12.4,2.541,2.541,0,0,0-.2.881,2.549,2.549,0,0,0,.2.882,1.971,1.971,0,0,1,.12.4,1.924,1.924,0,0,1-.33.239,1.832,1.832,0,0,0-1.011,1.386,2.082,2.082,0,0,1-.119.372.8.8,0,0,1-.159.012c-.072,0-.152,0-.236-.008s-.2-.01-.3-.01a1.818,1.818,0,0,0-.587.082,2.426,2.426,0,0,0-.741.456,1.6,1.6,0,0,1-.378.257,1.6,1.6,0,0,1-.378-.257,2.429,2.429,0,0,0-.741-.456,1.819,1.819,0,0,0-.587-.082c-.1,0-.205.005-.3.01s-.164.008-.236.008a.8.8,0,0,1-.159-.012,2.075,2.075,0,0,1-.119-.372,2.309,2.309,0,0,0-.335-.822,2.323,2.323,0,0,0-.676-.564,1.911,1.911,0,0,1-.33-.239,1.989,1.989,0,0,1,.12-.4,2.541,2.541,0,0,0,.2-.881A2.547,2.547,0,0,0,9.986,19.818ZM15.872,31.05l-1.8-1.131a.643.643,0,0,0-.682,0l-1.8,1.131V25.276l.2-.008c.085,0,.165-.009.238-.009a.629.629,0,0,1,.181.017,1.727,1.727,0,0,1,.341.239,1.889,1.889,0,0,0,1.183.541,1.889,1.889,0,0,0,1.183-.541,1.72,1.72,0,0,1,.341-.239.633.633,0,0,1,.181-.017c.072,0,.153,0,.238.008l.2.008V31.05Zm1.283-3.587v-2.7a2.335,2.335,0,0,0,.338-.827,1.651,1.651,0,0,1,.128-.384,1.665,1.665,0,0,1,.326-.238,1.81,1.81,0,0,0,.865-.918,1.854,1.854,0,0,0-.135-1.253,1.733,1.733,0,0,1-.125-.44,1.732,1.732,0,0,1,.125-.439,1.855,1.855,0,0,0,.135-1.253,1.811,1.811,0,0,0-.865-.917,1.687,1.687,0,0,1-.326-.238,1.658,1.658,0,0,1-.128-.384,1.791,1.791,0,0,0-.6-1.09,1.525,1.525,0,0,0-.92-.256c-.1,0-.2.005-.3.01s-.165.008-.237.008a.63.63,0,0,1-.181-.017,1.713,1.713,0,0,1-.341-.239,1.892,1.892,0,0,0-1.183-.541,1.891,1.891,0,0,0-1.183.541,1.723,1.723,0,0,1-.341.239.632.632,0,0,1-.181.017c-.072,0-.153,0-.238-.009s-.2-.01-.3-.01a1.523,1.523,0,0,0-.92.256,1.79,1.79,0,0,0-.6,1.09,1.665,1.665,0,0,1-.128.384,1.687,1.687,0,0,1-.326.238,1.812,1.812,0,0,0-.865.917,1.854,1.854,0,0,0,.135,1.253,1.732,1.732,0,0,1,.125.439,1.733,1.733,0,0,1-.125.44,1.854,1.854,0,0,0-.135,1.253,1.813,1.813,0,0,0,.865.917,1.679,1.679,0,0,1,.326.238,1.665,1.665,0,0,1,.128.384,2.334,2.334,0,0,0,.338.827v2.7H1.284V1.283H14.538V6.448a.642.642,0,0,0,.642.642h5.164V27.464Zm0,0" fill="#306db5" fill-rule="evenodd"/>
      <path id="Path_8819" data-name="Path 8819" d="M49.5,91.775h8.267a.642.642,0,0,0,0-1.283H49.5a.642.642,0,1,0,0,1.283Zm0,0" transform="translate(-45.728 -84.686)" fill="#7eb7db" fill-rule="evenodd"/>
      <path id="Path_8820" data-name="Path 8820" d="M63.65,140.969H49.506a.642.642,0,0,0,0,1.283H63.65a.642.642,0,0,0,0-1.283Zm0,0" transform="translate(-45.728 -131.924)" fill="#7eb7db" fill-rule="evenodd"/>
      <path id="Path_8821" data-name="Path 8821" d="M61.084,191.445H49.506a.642.642,0,1,0,0,1.283H61.084a.642.642,0,1,0,0-1.283Zm0,0" transform="translate(-45.728 -179.161)" fill="#7eb7db" fill-rule="evenodd"/>
      <path id="Path_8822" data-name="Path 8822" d="M269.951,191.445a.642.642,0,1,0,.642.642A.643.643,0,0,0,269.951,191.445Zm0,0" transform="translate(-252.029 -179.161)" fill="#7eb7db" fill-rule="evenodd"/>
    </g>
  </g>
</svg>
