<svg xmlns="http://www.w3.org/2000/svg" width="20.005" height="20" viewBox="0 0 20.005 20"><defs><style>.a{fill:#2969b6;}</style></defs><path class="a" d="M13.375,3.375h-.034a10,10,0,0,0,0,20h.034a10,10,0,1,0,0-20ZM22.038,12.7H18.308a18.912,18.912,0,0,0-.471-3.664,14.655,14.655,0,0,0,2.39-1.01A8.613,8.613,0,0,1,22.039,12.7Zm-9.336,0H9.731a17.055,17.055,0,0,1,.423-3.322,14.62,14.62,0,0,0,2.548.341V12.7Zm0,1.346v2.976a14.691,14.691,0,0,0-2.548.341,17.053,17.053,0,0,1-.423-3.318H12.7Zm1.346,0H17a16.955,16.955,0,0,1-.423,3.313,14.346,14.346,0,0,0-2.524-.336V14.048Zm0-1.346V9.722a14.675,14.675,0,0,0,2.524-.336A17,17,0,0,1,17,12.7H14.048Zm5.259-5.668a13.33,13.33,0,0,1-1.827.745,9.928,9.928,0,0,0-1.274-2.62,8.706,8.706,0,0,1,3.1,1.875Zm-3.1,1.091a13.512,13.512,0,0,1-2.163.289V4.885a5.826,5.826,0,0,1,2.163,3.24ZM12.7,4.866V8.409a13.271,13.271,0,0,1-2.187-.293A5.824,5.824,0,0,1,12.7,4.866Zm-2.192.308a10.006,10.006,0,0,0-1.264,2.6,13.627,13.627,0,0,1-1.8-.741A8.572,8.572,0,0,1,10.51,5.173ZM6.524,8.034a14.36,14.36,0,0,0,2.365,1A18.141,18.141,0,0,0,8.418,12.7h-3.7A8.569,8.569,0,0,1,6.524,8.035ZM4.712,14.048h3.7a18.864,18.864,0,0,0,.471,3.664,15.232,15.232,0,0,0-2.365,1,8.615,8.615,0,0,1-1.808-4.663Zm2.726,5.668a13.517,13.517,0,0,1,1.808-.741,10.042,10.042,0,0,0,1.264,2.606A8.794,8.794,0,0,1,7.438,19.716Zm3.077-1.086a13.35,13.35,0,0,1,2.187-.293v3.548a5.814,5.814,0,0,1-2.187-3.255Zm3.534,3.236V18.332a13.512,13.512,0,0,1,2.163.289A5.824,5.824,0,0,1,14.049,21.865Zm2.163-.274a9.928,9.928,0,0,0,1.274-2.62,13.113,13.113,0,0,1,1.827.75,8.8,8.8,0,0,1-3.1,1.87Zm4.014-2.875a14.63,14.63,0,0,0-2.39-1.01,18.8,18.8,0,0,0,.471-3.659h3.731a8.574,8.574,0,0,1-1.813,4.668Z" transform="translate(-3.375 -3.375)"/></svg>