<svg xmlns="http://www.w3.org/2000/svg" width="55" height="55" viewBox="0 0 55 55">
  <g id="Group_4879" data-name="Group 4879" transform="translate(-1139.5 -845)">
    <g id="Group_114" data-name="Group 114" transform="translate(1139.5 845)">
      <rect id="Rectangle_25" data-name="Rectangle 25" width="55" height="55" rx="15" fill="#f4f7fb"/>
    </g>
    <g id="surface1" transform="translate(1151 857.016)">
      <path id="Path_8851" data-name="Path 8851" d="M200,80h11.355v1.032H200Zm0,0" transform="translate(-189.677 -75.871)" fill="#7eb7db"/>
      <path id="Path_8852" data-name="Path 8852" d="M230,50h8.258v1.032H230Zm0,0" transform="translate(-218.129 -47.419)" fill="#7eb7db"/>
      <path id="Path_8853" data-name="Path 8853" d="M200,500h11.355v1.032H200Zm0,0" transform="translate(-189.677 -474.194)" fill="#7eb7db"/>
      <path id="Path_8854" data-name="Path 8854" d="M230,530h8.258v1.032H230Zm0,0" transform="translate(-218.129 -502.645)" fill="#7eb7db"/>
      <path id="Path_8855" data-name="Path 8855" d="M31.991,8.731a.5.5,0,0,0-.021-.1.482.482,0,0,0-.035-.09.5.5,0,0,0-.052-.079.463.463,0,0,0-.073-.076c-.011-.01-.017-.023-.03-.031L26.839,4.892V.516A.516.516,0,0,0,26.323,0H5.677a.516.516,0,0,0-.516.516V4.892L.22,8.351c-.012.008-.018.022-.03.031a.489.489,0,0,0-.073.076.534.534,0,0,0-.052.079.511.511,0,0,0-.034.09.506.506,0,0,0-.021.1A.368.368,0,0,0,0,8.774V22.194a.516.516,0,0,0,.516.516H5.161v7.742a.516.516,0,0,0,.516.516H26.323a.516.516,0,0,0,.516-.516V22.71h4.645A.516.516,0,0,0,32,22.194V8.774A.363.363,0,0,0,31.991,8.731Zm-2.144-.473H26.839V6.153Zm-4.04-7.226V8.258H24.258V6.194a.516.516,0,0,0-.516-.516H8.258a.516.516,0,0,0-.516.516V8.258H6.194V1.032ZM8.774,8.258V6.71H23.226V8.258Zm-3.613,0H2.153L5.161,6.153ZM25.806,29.935H6.194V22.71H7.742v2.065a.516.516,0,0,0,.516.516H23.742a.516.516,0,0,0,.516-.516V22.71h1.548ZM23.226,22.71v1.548H8.774V22.71Zm7.742-1.032H1.032V9.29H30.968Zm0,0" fill="#306db5"/>
      <path id="Path_8856" data-name="Path 8856" d="M154.645,211.032a.516.516,0,1,0,0-1.032h-4.129a.516.516,0,1,0,0,1.032h1.548v7.226h-1.548a.516.516,0,1,0,0,1.032h4.129a.516.516,0,1,0,0-1.032H153.1v-7.226Zm0,0" transform="translate(-142.258 -199.161)" fill="#7eb7db"/>
      <path id="Path_8857" data-name="Path 8857" d="M262.581,211.032h2.065a.516.516,0,0,0,0-1.032h-2.065A2.584,2.584,0,0,0,260,212.581v4.129a2.584,2.584,0,0,0,2.581,2.581h2.065a.516.516,0,0,0,0-1.032h-2.065a1.549,1.549,0,0,1-1.548-1.548v-4.129A1.549,1.549,0,0,1,262.581,211.032Zm0,0" transform="translate(-246.581 -199.161)" fill="#7eb7db"/>
      <path id="Path_8858" data-name="Path 8858" d="M372.065,210h-1.548a.516.516,0,0,0-.516.516v8.258a.516.516,0,0,0,.516.516h2.065a2.584,2.584,0,0,0,2.581-2.581v-4.129C375.161,211.128,373.5,210,372.065,210Zm2.065,6.71a1.549,1.549,0,0,1-1.548,1.548h-1.548v-7.226h1.032c.9,0,2.065.751,2.065,1.548Zm0,0" transform="translate(-350.903 -199.161)" fill="#7eb7db"/>
    </g>
  </g>
</svg>
