<svg id="MOH-Logo" xmlns="http://www.w3.org/2000/svg" width="48.866" height="45" viewBox="0 0 48.866 45">
  <path id="Path_87" data-name="Path 87" d="M51.308,122.747h-.031l-1.579-3.12H49v4.066h.3V120.38h.046l1.687,3.313h.138l1.664-3.336h.023v3.336h.682v-4.066h-.682Zm3.136-2.075v3.021h.621v-3.2H54.88Zm.56-1.629a.285.285,0,0,0-.115-.069.421.421,0,0,0-.276,0,.348.348,0,0,0-.115.069.493.493,0,0,0-.077.1.262.262,0,0,0,0,.246.494.494,0,0,0,.077.1.291.291,0,0,0,.115.069.428.428,0,0,0,.276,0,.291.291,0,0,0,.115-.069.318.318,0,0,0,.077-.1.262.262,0,0,0,0-.246A.5.5,0,0,0,55,119.042Zm3.2,1.73a.714.714,0,0,0-.253-.2.724.724,0,0,0-.307-.077,1.293,1.293,0,0,0-.621.162,2.2,2.2,0,0,0-.59.477v-.569h-.621V123.7h.621v-2.329a1.64,1.64,0,0,1,.222-.184c.077-.054.153-.1.23-.146a1.674,1.674,0,0,1,.222-.092.7.7,0,0,1,.207-.031.455.455,0,0,1,.36.161.7.7,0,0,1,.138.469v2.145h.621V121.44a1.165,1.165,0,0,0-.061-.369A.819.819,0,0,0,58.208,120.772Zm1.533-1.73a.284.284,0,0,0-.115-.069.421.421,0,0,0-.276,0,.347.347,0,0,0-.115.069.317.317,0,0,0-.077.1.263.263,0,0,0,0,.246.5.5,0,0,0,.077.1.291.291,0,0,0,.115.069.429.429,0,0,0,.276,0,.291.291,0,0,0,.115-.069.5.5,0,0,0,.077-.1.263.263,0,0,0,0-.246A.318.318,0,0,0,59.741,119.042Zm-.552,1.629v3.021h.621v-3.2h-.184Zm3.281,1.538a1.61,1.61,0,0,0-.291-.2c-.107-.054-.222-.107-.337-.161s-.23-.1-.337-.146a2.073,2.073,0,0,1-.291-.154.836.836,0,0,1-.207-.192.393.393,0,0,1-.077-.246.323.323,0,0,1,.046-.161.39.39,0,0,1,.123-.131.629.629,0,0,1,.192-.092.818.818,0,0,1,.245-.031.8.8,0,0,1,.468.146,1.313,1.313,0,0,1,.4.438l.23-.208a2.146,2.146,0,0,0-.268-.3,1.042,1.042,0,0,0-.261-.177,1.081,1.081,0,0,0-.268-.085,1.755,1.755,0,0,0-.291-.023,1.522,1.522,0,0,0-.429.062,1.09,1.09,0,0,0-.337.184.857.857,0,0,0-.222.277.876.876,0,0,0-.008.7.787.787,0,0,0,.192.261,1.443,1.443,0,0,0,.268.2c.1.054.2.107.307.161s.207.1.307.146a1.769,1.769,0,0,1,.268.154.762.762,0,0,1,.192.192.449.449,0,0,1,.069.254.332.332,0,0,1-.046.169.447.447,0,0,1-.123.146.531.531,0,0,1-.184.1.764.764,0,0,1-.238.038.9.9,0,0,1-.253-.031.841.841,0,0,1-.222-.107,1.475,1.475,0,0,1-.215-.184,2.193,2.193,0,0,1-.215-.277l-.253.231a1.786,1.786,0,0,0,.284.3,1.339,1.339,0,0,0,.291.177,1.375,1.375,0,0,0,.291.085,1.8,1.8,0,0,0,.284.023,1.6,1.6,0,0,0,.529-.077,1.034,1.034,0,0,0,.376-.2.77.77,0,0,0,.222-.3.992.992,0,0,0,.077-.369.719.719,0,0,0-.077-.346A1,1,0,0,0,62.47,122.209Zm2.277,1.106a.328.328,0,0,1-.192.054.361.361,0,0,1-.13-.023.262.262,0,0,1-.107-.069.318.318,0,0,1-.069-.107.361.361,0,0,1-.023-.131v-2.213h.705v-.261h-.705v-1.076h-.176c-.031.162-.069.308-.107.453a1.3,1.3,0,0,1-.169.376.729.729,0,0,1-.276.254.891.891,0,0,1-.429.092v.154h.544v2.213a1.232,1.232,0,0,0,.038.3.545.545,0,0,0,.115.231.514.514,0,0,0,.192.146.61.61,0,0,0,.276.054.978.978,0,0,0,.514-.123.993.993,0,0,0,.33-.338l-.153-.108C64.854,123.239,64.8,123.285,64.747,123.316Zm2.538-2.713a.707.707,0,0,0-.153-.085.523.523,0,0,0-.192-.031.549.549,0,0,0-.245.054,1.093,1.093,0,0,0-.238.146,1.829,1.829,0,0,0-.215.207,1.583,1.583,0,0,0-.192.254v-.592h-.621v3.136h.621v-2.175a2.1,2.1,0,0,1,.13-.192,1.384,1.384,0,0,1,.13-.154.472.472,0,0,1,.123-.1.256.256,0,0,1,.123-.039.307.307,0,0,1,.13.023c.038.015.069.031.107.046a.82.82,0,0,0,.115.054.5.5,0,0,0,.169.023.378.378,0,0,0,.261-.077.29.29,0,0,0,.092-.231.319.319,0,0,0-.038-.146A.828.828,0,0,0,67.285,120.6Zm2.139,2.221-1.211-2.26h-.705l1.6,2.99-.207.469c-.023.054-.054.115-.084.184a1.051,1.051,0,0,1-.107.184.594.594,0,0,1-.138.138.275.275,0,0,1-.169.054.39.39,0,0,1-.146-.023c-.038-.016-.069-.031-.1-.046a.547.547,0,0,0-.1-.046.422.422,0,0,0-.153-.023.339.339,0,0,0-.153.031.3.3,0,0,0-.115.077.532.532,0,0,0-.077.107.361.361,0,0,0-.023.131.319.319,0,0,0,.038.146.31.31,0,0,0,.107.115.789.789,0,0,0,.161.077.756.756,0,0,0,.192.023.819.819,0,0,0,.3-.054,1.254,1.254,0,0,0,.3-.162,1.581,1.581,0,0,0,.276-.277,1.818,1.818,0,0,0,.23-.4l1.595-3.682h-.33Zm6.164-1.883a1.722,1.722,0,0,0-.521-.33,1.824,1.824,0,0,0-.659-.123,1.681,1.681,0,0,0-.659.131,1.479,1.479,0,0,0-.521.361,1.763,1.763,0,0,0-.345.53,1.706,1.706,0,0,0-.123.654,1.528,1.528,0,0,0,.123.622,1.652,1.652,0,0,0,.345.508,1.493,1.493,0,0,0,.521.338,1.678,1.678,0,0,0,.659.123,1.558,1.558,0,0,0,.659-.138,1.687,1.687,0,0,0,.521-.369,1.734,1.734,0,0,0,.345-.546,1.756,1.756,0,0,0,.123-.668,1.424,1.424,0,0,0-.123-.6A1.494,1.494,0,0,0,75.588,120.941Zm-.291,1.868a1.128,1.128,0,0,1-.177.376.838.838,0,0,1-.268.254.638.638,0,0,1-.338.092.822.822,0,0,1-.452-.131,1.148,1.148,0,0,1-.337-.354,1.692,1.692,0,0,1-.207-.522,2.872,2.872,0,0,1-.077-.646,1.4,1.4,0,0,1,.069-.446,1.641,1.641,0,0,1,.177-.369.875.875,0,0,1,.26-.246.569.569,0,0,1,.307-.092.9.9,0,0,1,.514.13.973.973,0,0,1,.337.346,1.7,1.7,0,0,1,.192.515,3.337,3.337,0,0,1,.061.638A1.752,1.752,0,0,1,75.3,122.808Zm3.542-3.7a1.034,1.034,0,0,0-.276-.115,1.349,1.349,0,0,0-.368-.038,1.112,1.112,0,0,0-.452.092,1.068,1.068,0,0,0-.368.261,1.153,1.153,0,0,0-.246.392,1.294,1.294,0,0,0-.092.484v.369h-.652v.261h.652v2.875h.621V120.81h.836v-.261h-.836V119.8a.76.76,0,0,1,.031-.231.692.692,0,0,1,.092-.2.4.4,0,0,1,.138-.138.3.3,0,0,1,.176-.054.339.339,0,0,1,.191.046.331.331,0,0,1,.1.108.822.822,0,0,1,.054.146.822.822,0,0,0,.054.146.258.258,0,0,0,.092.108.286.286,0,0,0,.176.046.324.324,0,0,0,.123-.023.221.221,0,0,0,.1-.061.213.213,0,0,0,.069-.092.321.321,0,0,0,.023-.123.389.389,0,0,0-.061-.208A.625.625,0,0,0,78.838,119.1Zm4.776,2.375H81.575v-1.852h-.683v4.066h.683V121.74h2.039v1.953H84.3v-4.066h-.683Zm4.1,1.322a1.133,1.133,0,0,1-.26.246,1.26,1.26,0,0,1-.338.169,1.1,1.1,0,0,1-.391.069.97.97,0,0,1-.444-.107,1.119,1.119,0,0,1-.353-.308,1.419,1.419,0,0,1-.23-.469,2.031,2.031,0,0,1-.084-.584h2.331a1.2,1.2,0,0,0-.1-.5,1.322,1.322,0,0,0-.283-.423,1.462,1.462,0,0,0-.437-.292,1.488,1.488,0,0,0-.567-.108,1.506,1.506,0,0,0-.629.131,1.333,1.333,0,0,0-.483.361,1.771,1.771,0,0,0-.315.554,2.059,2.059,0,0,0-.107.7,1.412,1.412,0,0,0,.123.592,1.516,1.516,0,0,0,.33.484,1.477,1.477,0,0,0,.483.323,1.537,1.537,0,0,0,.6.123,1.35,1.35,0,0,0,.483-.092,1.734,1.734,0,0,0,.437-.246,2.02,2.02,0,0,0,.352-.369,1.437,1.437,0,0,0,.215-.453l-.176-.077A1.014,1.014,0,0,1,87.716,122.8Zm-2.009-1.568a.918.918,0,0,1,.169-.261.834.834,0,0,1,.23-.177.551.551,0,0,1,.269-.061.845.845,0,0,1,.314.061.749.749,0,0,1,.253.177.7.7,0,0,1,.169.269.938.938,0,0,1,.061.33H85.615A1.352,1.352,0,0,1,85.707,121.233Zm4.976-.515a.9.9,0,0,0-.345-.169,1.972,1.972,0,0,0-.521-.062,2,2,0,0,0-.483.054,1.607,1.607,0,0,0-.4.154,1.037,1.037,0,0,0-.276.231.465.465,0,0,0-.1.292.45.45,0,0,0,.023.146.286.286,0,0,0,.069.115.272.272,0,0,0,.107.077.363.363,0,0,0,.13.031.3.3,0,0,0,.154-.038.266.266,0,0,0,.092-.092.38.38,0,0,0,.046-.131,1.049,1.049,0,0,0,.015-.162.7.7,0,0,1,.023-.177.414.414,0,0,1,.077-.154.366.366,0,0,1,.154-.107.64.64,0,0,1,.26-.038.864.864,0,0,1,.253.038.407.407,0,0,1,.192.13.639.639,0,0,1,.123.239,1.242,1.242,0,0,1,.038.361v.192c-.138.039-.283.069-.429.115a3.92,3.92,0,0,0-.429.138c-.138.054-.269.115-.391.177a1.715,1.715,0,0,0-.322.231,1.021,1.021,0,0,0-.222.292.9.9,0,0,0-.023.669.763.763,0,0,0,.161.246.861.861,0,0,0,.253.169.9.9,0,0,0,.33.062,1.185,1.185,0,0,0,.345-.046,1.5,1.5,0,0,0,.276-.115,1.242,1.242,0,0,0,.23-.161l.214-.169v.43h.621v-2.367a.949.949,0,0,0-.061-.338A.608.608,0,0,0,90.683,120.718Zm-.376,2.321c-.061.046-.123.092-.184.131a2,2,0,0,1-.177.107,1.889,1.889,0,0,1-.184.077.838.838,0,0,1-.2.031.42.42,0,0,1-.192-.046.5.5,0,0,1-.161-.123.626.626,0,0,1-.115-.184.512.512,0,0,1-.038-.215.428.428,0,0,1,.054-.215.706.706,0,0,1,.153-.192,1.289,1.289,0,0,1,.223-.169,2.865,2.865,0,0,1,.26-.146c.092-.046.184-.085.284-.123s.191-.069.276-.1Zm1.48-3.912v4.566h.621V118.95h-.176Zm2.745,4.189a.344.344,0,0,1-.191.054.36.36,0,0,1-.13-.023.321.321,0,0,1-.108-.069.318.318,0,0,1-.069-.107.361.361,0,0,1-.023-.131v-2.213h.705v-.261H94.01v-1.076h-.184c-.031.162-.069.308-.107.453a1.3,1.3,0,0,1-.169.376.728.728,0,0,1-.276.254.912.912,0,0,1-.429.092v.154h.544v2.213a1.232,1.232,0,0,0,.038.3.545.545,0,0,0,.115.231.512.512,0,0,0,.192.146.609.609,0,0,0,.276.054.931.931,0,0,0,.506-.123.994.994,0,0,0,.33-.338l-.154-.108A1.131,1.131,0,0,1,94.532,123.316Zm3.235-2.244a.948.948,0,0,0-.169-.3.711.711,0,0,0-.253-.2.723.723,0,0,0-.306-.077,1.291,1.291,0,0,0-.621.162,2.193,2.193,0,0,0-.59.477v-2.175h-.177l-.445.177V123.7h.621v-2.329a2.243,2.243,0,0,1,.214-.184c.077-.054.153-.1.222-.146a1.7,1.7,0,0,1,.223-.092.7.7,0,0,1,.207-.031.456.456,0,0,1,.36.161.7.7,0,0,1,.138.469v2.145h.621V121.44A.747.747,0,0,0,97.767,121.071Z" transform="translate(-49 -80.153)" fill="#9e925e"/>
  <path id="Path_88" data-name="Path 88" d="M102.346,65c-.373.231-.753.484-.951.623-.609.43-1.233.884-1.85,1.353a53.9,53.9,0,0,0-7.49,6.871H87.13s12.049-10.5,17.575-11.306c4.925-.715,6.843,2.882,6.432,6.756a5.058,5.058,0,0,0-1.241-3.943,4.845,4.845,0,0,0-1.9-1.322,4.909,4.909,0,0,0-2.261-.307A8.173,8.173,0,0,0,102.346,65Z" transform="translate(-68.657 -50.717)" fill="#9e925e" fill-rule="evenodd"/>
  <path id="Path_89" data-name="Path 89" d="M71.04,65c.373.231.754.484.951.623.609.43,1.233.884,1.85,1.353a53.869,53.869,0,0,1,7.49,6.871h4.925S74.206,63.349,68.68,62.542c-4.925-.715-6.843,2.882-6.432,6.756a5.057,5.057,0,0,1,1.241-3.943,4.846,4.846,0,0,1,1.9-1.322,4.9,4.9,0,0,1,2.261-.307A8.209,8.209,0,0,1,71.04,65Z" transform="translate(-55.923 -50.717)" fill="#9e925e" fill-rule="evenodd"/>
  <path id="Path_90" data-name="Path 90" d="M73.166,102.794H70.958l.023-.138a6.463,6.463,0,0,0,.1-1.022c0-1.353-.6-2.936-2.285-2.936a2.87,2.87,0,0,0-1.595.584,5.225,5.225,0,0,0-1.357,1.368c-.4.615-.705,1.3-1.043,1.945-.031.061-.069.131-.1.192h-.038v-2.613h-.682v2.613H61.988v-.261a3.493,3.493,0,0,0-3.7-3.743h-2.63v.584c.192-.015,2.43-.023,2.538-.023,1.909,0,3.051,1.245,3.059,3.328v.115H52.819v-4.4c-.2-.023-.56-.038-.713-.038a3,3,0,0,0-3.09,2.828,2.008,2.008,0,0,0,.675,1.576,2.414,2.414,0,0,0,1.587.553h.215l.437-.469.038-.038h-.5a1.592,1.592,0,0,1-1.71-1.653,2.126,2.126,0,0,1,.8-1.737,2.309,2.309,0,0,1,1.326-.492h.238V103.3h21.7V95.454H73.15v7.34Zm-2.89-.085-.023.085H65.361l.031-.138c.429-1.906,2.139-3.389,3.327-3.389.383,0,1.633.177,1.633,2.5A4.7,4.7,0,0,1,70.275,102.709Zm5.734.592h.682V95.454H76.01ZM50.833,97.26a.523.523,0,1,0-.521-.523A.518.518,0,0,0,50.833,97.26Zm31.072.008a.523.523,0,1,0-.521-.523A.518.518,0,0,0,81.905,97.268ZM52.389,97.26a.523.523,0,1,0-.521-.523A.523.523,0,0,0,52.389,97.26Zm36.6,6.041h.682V95.454H88.99ZM80.1,101.234a2.126,2.126,0,0,0,2.261,2.068h1.533V98.39a5.841,5.841,0,0,0-.667-.038A2.981,2.981,0,0,0,80.1,101.234Zm3.113,1.56h-.652a1.6,1.6,0,0,1-1.725-1.653,2.133,2.133,0,0,1,2.124-2.229h.253Zm9.138-6.571a.523.523,0,1,0,.521.523A.533.533,0,0,0,92.347,96.223ZM97.4,98.505a2.96,2.96,0,0,0-3.174,2.774A2.048,2.048,0,0,0,96.4,103.3a2.263,2.263,0,0,0,.26-.008l.338-.354.146-.154h-.452a1.582,1.582,0,0,1-1.732-1.591,2.185,2.185,0,0,1,2.124-2.083h.115V103.4c0,.822-.153,1.583-1.265,1.583a2.254,2.254,0,0,1-.353-.038l-.084.523a3.141,3.141,0,0,0,.613.054,1.646,1.646,0,0,0,1.771-1.829V98.544A4.107,4.107,0,0,0,97.4,98.505ZM92,103.732c0,.9-.36,1.268-1.242,1.268a1.8,1.8,0,0,1-.338-.038l-.084.546a3.717,3.717,0,0,0,.613.046,1.559,1.559,0,0,0,1.741-1.622V99.082H92.01v4.65Zm-8.54-7.509a.523.523,0,1,0,.521.523A.533.533,0,0,0,83.462,96.223Zm2.752,7.509c0,.9-.36,1.268-1.242,1.268a1.8,1.8,0,0,1-.338-.038l-.084.546a3.717,3.717,0,0,0,.613.046,1.554,1.554,0,0,0,1.733-1.622V99.082h-.683Z" transform="translate(-49.008 -67.892)" fill="#008556"/>
  <path id="Path_91" data-name="Path 91" d="M71.589,71.442l-1.675-1.7-1.477,1.491-1.477-1.491-1.675,1.7,1.675,1.7,1.477-1.491,1.477,1.491Z" transform="translate(-57.481 -54.538)" fill="#008556"/>
  <path id="Path_92" data-name="Path 92" d="M99.245,42.166a6.131,6.131,0,0,0-.464-.884,5.927,5.927,0,0,0-6.973-2.413c-.152-.553-.266-.869-.266-.869s-.122.323-.266.869a5.929,5.929,0,0,0-6.965,2.413,6.123,6.123,0,0,0-.464.884,5.94,5.94,0,0,1,4.065-1.952,6.024,6.024,0,0,0-2.329,4.765,6.173,6.173,0,0,0,.084,1,6.037,6.037,0,0,1,2.786-4.143,6.076,6.076,0,0,0,.312,5.972,5.718,5.718,0,0,0,.609.792,6.061,6.061,0,0,1,1.37-6.741c-.038.446-.068.922-.068,1.406a16.967,16.967,0,0,0,.868,5.273,16.974,16.974,0,0,0,.867-5.273,14.047,14.047,0,0,0-.068-1.406,6.061,6.061,0,0,1,1.37,6.741,6.219,6.219,0,0,0,.609-.792,6.058,6.058,0,0,0,.312-5.972,6.015,6.015,0,0,1,2.786,4.143,6.1,6.1,0,0,0,.084-1,6.014,6.014,0,0,0-2.329-4.765A5.926,5.926,0,0,1,99.245,42.166Z" transform="translate(-67.109 -38)" fill="#008556"/>
  <path id="Path_93" data-name="Path 93" d="M87.371,65.04s4.285-6.241,11.813,1.852c7.094,7.624,9.751,6.341,11.768,3.92a3.242,3.242,0,0,1-.289.584c-.137.223-.221.346-.251.384A5.159,5.159,0,0,1,106.217,74c-2.261.023-5.061-1.345-8.2-4.842C91.039,61.374,87.371,65.04,87.371,65.04Z" transform="translate(-68.783 -50.87)" fill="#008556" fill-rule="evenodd"/>
</svg>
