<svg id="Frame_3325" data-name="Frame 3325" xmlns="http://www.w3.org/2000/svg" width="43.45" height="45" viewBox="0 0 43.45 45">
  <g id="Ministry-of-Commerce-01_1" data-name="Ministry-of-Commerce-01 1" transform="translate(0 0)">
    <g id="Group">
      <path id="Vector" d="M1.235,1.085l-.242.049L0,2.116A66.742,66.742,0,0,1,12.83,1.03a66.158,66.158,0,0,1,12.83,1.085l1.067-1.055A67.175,67.175,0,0,0,14.034,0,67.777,67.777,0,0,0,1.235,1.085Z" transform="translate(7.972 24.497)" fill="#00524d"/>
      <path id="Vector-2" data-name="Vector" d="M.981,25.454l.049-.239A65.48,65.48,0,0,0,2.109,12.552,66.266,66.266,0,0,0,1.055,0L0,1.055A65.327,65.327,0,0,1,1.079,13.748,65.3,65.3,0,0,1,0,26.435Z" transform="translate(8.032)" fill="#00524d"/>
      <path id="Vector-3" data-name="Vector" d="M16.142,16.967a29.326,29.326,0,0,0-2.8,2.122c.466.423.937.877,1.4,1.374l.043-.043h.093l.019.061.068-.1a.311.311,0,0,1,.5-.325.284.284,0,0,1-.05.4.294.294,0,0,1-.273.074.235.235,0,0,0-.025.2,1.322,1.322,0,0,0,1.08.509,1.138,1.138,0,0,0,.869-.423.459.459,0,0,1,.7.006c.515.742-.54,1.41-1.291,1.429a2.884,2.884,0,0,1-1.956-.791c-.081-.086-.137-.123-.2-.092a.207.207,0,0,0-.075.141.316.316,0,0,1-.112.27.3.3,0,0,1-.41,0,.285.285,0,0,1,.05-.4.339.339,0,0,1,.23-.08l.031-.006-.031-.018v-.092l.106-.1c-.192-.184-.733-.711-1.484-1.367-.751.662-1.291,1.183-1.484,1.367l.106.1v.092l-.025.018.025.006a.361.361,0,0,1,.23.08.285.285,0,0,1,.05.4.318.318,0,0,1-.522-.27.207.207,0,0,0-.075-.141c-.068-.037-.124,0-.2.092a2.88,2.88,0,0,1-1.949.791c-.751-.012-1.813-.687-1.291-1.429a.464.464,0,0,1,.7-.006,1.14,1.14,0,0,0,.875.423,1.319,1.319,0,0,0,1.074-.509.235.235,0,0,0-.025-.2.29.29,0,0,1-.273-.074.277.277,0,0,1-.043-.4.283.283,0,0,1,.41,0,.294.294,0,0,1,.093.325l.068.1.019-.061h.093l.043.043c.466-.5.937-.95,1.4-1.374a31.246,31.246,0,0,0-2.8-2.122,9.465,9.465,0,0,0-5.451-1.846,6.68,6.68,0,0,1,4.979.546,25.933,25.933,0,0,1,3.986,2.8,25.933,25.933,0,0,1,3.986-2.8,6.664,6.664,0,0,1,4.973-.546A9.524,9.524,0,0,0,16.142,16.967ZM7.655,7.217A.8.8,0,0,1,8,6.831l.031-.018V6.776a.4.4,0,0,1,.329-.466l.05-.006V6.249A.159.159,0,0,1,8.45,6.1a.51.51,0,0,1,.4-.117A1.639,1.639,0,0,1,9.083,6l.081.012-.025-.08a.141.141,0,0,1,.006-.117c.019-.031.068-.043.143-.043a1.7,1.7,0,0,1,.571.147l.081.031-.012-.092a.153.153,0,0,1,.025-.123.24.24,0,0,1,.186-.055,1.748,1.748,0,0,1,.472.1l.025.012a.678.678,0,0,0,.341.08c.019.1.1.307.466.484h.012s.192.043.428.11c.137.043.292.092.428.141l.006.006-.137.025a7.481,7.481,0,0,0-.987.307A1.048,1.048,0,0,1,11,6.954c-.385,0-.459-.184-.466-.184l-.019-.061-.056.037a.74.74,0,0,1-.4.159h-.012L9.989,6.9l-.056-.012a.187.187,0,0,1-.093-.061L9.8,6.782l-.037.031A.7.7,0,0,1,9.313,7a.542.542,0,0,1-.242-.055L9.04,6.923l-.025.025a2.133,2.133,0,0,1-.671.356l-.012.006-.012.012a.556.556,0,0,1-.4.1c-.106,0-.2-.012-.242-.012A.314.314,0,0,1,7.655,7.217Zm1.124-2.41a.541.541,0,0,1,.379-.123h.056l.012-.031a.33.33,0,0,1,.292-.215.3.3,0,0,1,.13.031l.05.025.025-.055a.133.133,0,0,1,.137-.1c.18,0,.435.227.447.233l.062.055.025-.086c.019-.08.05-.08.062-.08.112,0,.341.251.453.411l.056.074L11,4.863c.025-.067.062-.074.093-.074h.012a.667.667,0,0,0,.248.184.449.449,0,0,0,.3.4.68.68,0,0,0,.2.552l.006.012a5.253,5.253,0,0,1,.515.466l.124.135.006.012v.012a2.38,2.38,0,0,0-.279-.117,7.39,7.39,0,0,0-.757-.215c-.391-.19-.4-.386-.4-.417V5.813l.012-.049V5.746h-.062a.831.831,0,0,1-.18-.012l-.05-.012-.118-.049-.05-.037a.307.307,0,0,1-.075-.123l-.006-.043-.043.006-.106.006a.509.509,0,0,1-.441-.233l-.019-.031-.037.006c-.056,0-.118.006-.174.006a1.646,1.646,0,0,1-.453-.061l-.012-.006-.012.006L9.2,5.175a1,1,0,0,1-.459-.239A.132.132,0,0,1,8.779,4.807Zm1.639-1.1a.618.618,0,0,1,.261.08l.031.018.031-.018a.285.285,0,0,1,.18-.074.265.265,0,0,1,.192.1l.031.043.043-.037.075-.031c.124,0,.273.264.31.362l.037.08.056-.067.05-.037c.068,0,.174.251.224.491l.019.092.068-.061.056-.031c.093.521.323,1.331.453,1.778l.019.067-.106-.117-.124-.123a5.037,5.037,0,0,0-.391-.343c-.255-.319-.168-.472-.168-.472l.037-.049V5.347l-.012-.006-.043-.025a.641.641,0,0,1-.192-.129A.278.278,0,0,1,11.461,5V4.967l.012-.037.006-.018L11.448,4.9l-.012-.006a.514.514,0,0,1-.267-.19.43.43,0,0,1-.075-.19V4.476l-.031-.012a1.561,1.561,0,0,1-.466-.282l-.012-.012-.012-.006c-.1-.018-.23-.227-.3-.368A.133.133,0,0,1,10.418,3.7Zm1.726.515h.037l-.006-.061a1.461,1.461,0,0,1,.068-.809l.037-.018.037.012.062.031.012-.074a1.328,1.328,0,0,1,.242-.57,1.328,1.328,0,0,1,.242.57l.012.074.056-.031.043-.012.037.018a1.524,1.524,0,0,1,.068.809l-.006.061h.043a.884.884,0,0,1-.031.3l-.012.086-.031.147c-.081.368-.217.883-.366,1.4l-.012.031-.043.153-.006.018V6.334l-.043-.153-.012-.031c-.149-.515-.279-1.03-.36-1.4l-.031-.147-.012-.086A1,1,0,0,1,12.144,4.219Zm1.105.417.068.061.019-.092c.05-.233.155-.491.236-.491l.037.037.056.067.031-.08c.037-.1.186-.362.31-.362l.074.031.043.037.037-.043a.265.265,0,0,1,.192-.1.329.329,0,0,1,.186.074l.025.018.025-.018a.624.624,0,0,1,.267-.08.158.158,0,0,1,.155.086c-.068.141-.2.35-.3.368l-.012.006-.012.012a1.482,1.482,0,0,1-.459.282l-.031.012V4.5a.416.416,0,0,1-.075.19.488.488,0,0,1-.261.19l-.012.006L13.82,4.9l.006.018.006.037.006.037a.3.3,0,0,1-.093.184.734.734,0,0,1-.192.129l-.043.025-.012.006v.006l.031.049s.081.159-.168.472c-.037.025-.211.172-.4.343l-.124.123-.106.117.019-.067c.137-.448.366-1.257.459-1.778Zm2.3-.19.025.055.05-.025a.3.3,0,0,1,.13-.031.323.323,0,0,1,.286.215l.019.031h.056a.541.541,0,0,1,.379.123.218.218,0,0,1,.05.129.993.993,0,0,1-.466.239l-.037-.006-.012-.006-.012.006a1.646,1.646,0,0,1-.453.061c-.056,0-.124-.006-.174-.006l-.037-.006-.012.031a.5.5,0,0,1-.447.233l-.106-.006-.05-.006-.012.055a.256.256,0,0,1-.068.123l-.05.037-.124.049-.043.012a1.463,1.463,0,0,1-.18.012h-.062v.012l.006.049v.006c0,.037-.012.233-.4.417a6.012,6.012,0,0,0-.757.215,2.494,2.494,0,0,0-.286.117l.006-.012.006-.012.124-.135c.224-.233.515-.46.515-.466l.006-.012a.671.671,0,0,0,.2-.552.46.46,0,0,0,.3-.4.645.645,0,0,0,.255-.184h.012c.025,0,.062.006.093.074l.037.086.056-.074c.112-.159.341-.411.453-.411.012,0,.043,0,.062.08l.025.086.062-.055a.867.867,0,0,1,.441-.233A.122.122,0,0,1,15.546,4.446Zm-.385,3.777-.031-.055-.043.037a.165.165,0,0,1-.081.025.353.353,0,0,1-.236-.117l-.043-.043a1.561,1.561,0,0,1-.168-.239l-.043-.067-.025.037-.019.031A.185.185,0,0,1,14.3,7.9a.813.813,0,0,1-.447-.19,10.03,10.03,0,0,0-.832-.816c-.056-.043-.106-.086-.149-.123l-.1-.067.012-.006.081.012a6.121,6.121,0,0,1,1.186.337h.012a1.256,1.256,0,0,0,.211.012.62.62,0,0,0,.528-.2.818.818,0,0,0,.428.147l.019-.006-.012.08-.025.074h.075c.149,0,.565.037.658.2a.17.17,0,0,1-.012.178l-.031.061.068.018A.99.99,0,0,1,16.5,8a.3.3,0,0,1,.019.251L16.5,8.29l.031.025a.643.643,0,0,1,.2.711l-.006.025.012.025c0,.006.366.54.161.809-.155-.055-.484-.208-.559-.4V9.468l-.012-.012a3.119,3.119,0,0,1-.522-.724L15.782,8.7l-.037.006h-.031C15.62,8.7,15.366,8.652,15.161,8.223ZM10.964,15H12.4l-.3-1.306.236-.227-.3-1.177.242-.117-.317-1.288.286-.2-.248-1.1.286-.153-.18-.975L12.33,8.3l-.037-1.055V7.242a1.229,1.229,0,0,1,.341-.527,1.251,1.251,0,0,1,.341.527L12.938,8.3l.236.153-.18.975.286.153-.248,1.1.286.2-.31,1.288.236.117-.3,1.177.236.227-.267,1.3h1.4s.18.08.124.215a3.975,3.975,0,0,1-.857.828c-.062-.037-.062-.313-.1-.362-.031-.031-.341.294-.478.368a1.787,1.787,0,0,0-.366-.307c-.217.135-.453.307-.453.307-.137-.08-.354-.4-.379-.362-.043.049-.043.325-.1.362a3.7,3.7,0,0,1-.857-.828C10.778,15.079,10.964,15,10.964,15ZM8.543,9.02a.649.649,0,0,1,.2-.711l.031-.025L8.76,8.241a.32.32,0,0,1,.012-.251,1.036,1.036,0,0,1,.534-.374L9.362,7.6l-.025-.061a.182.182,0,0,1-.006-.178c.093-.166.5-.2.658-.2h.075l-.025-.074L10.027,7l.031.006a.78.78,0,0,0,.416-.147.61.61,0,0,0,.528.2,1.255,1.255,0,0,0,.211-.012h.012a6.8,6.8,0,0,1,1.186-.337l.081-.012L12.5,6.7l-.1.067-.149.123a9.079,9.079,0,0,0-.832.816.862.862,0,0,1-.447.19.208.208,0,0,1-.168-.067l-.019-.037-.025-.043-.043.074a1.745,1.745,0,0,1-.174.239l-.043.043a.342.342,0,0,1-.23.117L10.194,8.2l-.05-.037-.025.055c-.2.429-.459.478-.553.478H9.536L9.5,8.689l-.012.037a2.848,2.848,0,0,1-.528.724l-.012.012-.006.012c-.068.2-.4.35-.559.4-.2-.27.161-.8.161-.809l.012-.025Zm1.633.969a.361.361,0,0,1-.1-.478l.031-.049-.043-.031L10,9.315c-.012-.166.2-.4.286-.478l.062-.055-.075-.037-.062-.067c-.006-.11.261-.319.447-.429l.081-.043-.075-.049-.025-.018a1.2,1.2,0,0,0,.137-.184.334.334,0,0,0,.2.067.955.955,0,0,0,.509-.208L11.5,7.8a10.288,10.288,0,0,1,.906-.877,6.049,6.049,0,0,0-.4.95c-.255.417-.453.356-.453.356l-.056-.018-.012.067c-.056.454-.273.466-.286.466h-.05V8.8a.573.573,0,0,1-.3.546l-.031.012v.037a2.133,2.133,0,0,1-.149.662v.031c.012.129-.168.362-.3.491l-.112-.08a.761.761,0,0,1-.043-.448l.006-.037Zm5.016-.478a.361.361,0,0,1-.1.478l-.025.025.006.037a.776.776,0,0,1-.043.448l-.118.08c-.13-.129-.31-.362-.3-.491v-.012l-.012-.018a2.176,2.176,0,0,1-.143-.662l-.006-.037-.031-.012a.573.573,0,0,1-.3-.546V8.744h-.05c-.012,0-.23-.012-.286-.466l-.012-.067-.062.018s-.192.067-.453-.356a7.072,7.072,0,0,0-.4-.95,9.416,9.416,0,0,1,.906.877l.012.012a.955.955,0,0,0,.509.208.314.314,0,0,0,.2-.067,1.807,1.807,0,0,0,.137.184l-.025.018-.068.049.075.043c.192.11.459.319.453.429l-.068.067-.075.037.062.055c.081.08.292.313.286.478l-.068.117-.043.031Zm1.67-3.256-.006.055.056.006a.4.4,0,0,1,.329.466v.037l.031.018s.292.172.341.386a.224.224,0,0,1-.025.178,2.039,2.039,0,0,1-.242.012.556.556,0,0,1-.4-.1L16.93,7.3l-.012-.006a2.071,2.071,0,0,1-.664-.356l-.025-.025-.031.018a.51.51,0,0,1-.242.055A.707.707,0,0,1,15.5,6.8l-.037-.031-.031.043a.2.2,0,0,1-.093.055l-.05.012-.056.006h-.012a.7.7,0,0,1-.4-.159L14.764,6.7l-.025.061s-.081.184-.459.184c-.056,0-.124-.006-.192-.012a9.07,9.07,0,0,0-.987-.307L12.957,6.6l.012-.006c.137-.055.292-.1.428-.141.236-.061.435-.11.435-.11h.012c.373-.178.453-.38.466-.484a.678.678,0,0,0,.341-.08l.019-.012a1.748,1.748,0,0,1,.472-.1.249.249,0,0,1,.186.055.153.153,0,0,1,.025.123l-.006.092.081-.031A1.934,1.934,0,0,1,16,5.758a.214.214,0,0,1,.149.043.146.146,0,0,1,0,.117L16.123,6l.081-.012a1.5,1.5,0,0,1,.23-.018.535.535,0,0,1,.4.117A.234.234,0,0,1,16.862,6.255ZM25.268,0A68.169,68.169,0,0,1,12.634,1.036,68.266,68.266,0,0,1,0,0,65.84,65.84,0,0,1,1.049,12.485,66.309,66.309,0,0,1,0,24.97a68.266,68.266,0,0,1,12.634-1.036A68.121,68.121,0,0,1,25.268,24.97a66.262,66.262,0,0,1-1.049-12.485A66.357,66.357,0,0,1,25.268,0Z" transform="translate(9.363 0.067)" fill="#00524d"/>
      <path id="Vector-4" data-name="Vector" d="M3.869.583,3.863.638l.055.006a.4.4,0,0,1,.325.466v.037l.031.018s.294.172.337.386a.256.256,0,0,1-.025.178,1.99,1.99,0,0,1-.239.012.567.567,0,0,1-.4-.1l-.012-.012H3.918a1.985,1.985,0,0,1-.656-.362l-.025-.025-.031.018a.5.5,0,0,1-.239.055.694.694,0,0,1-.448-.184L2.483,1.1l-.037.043a.246.246,0,0,1-.092.061l-.049.012-.055.006H2.238a.652.652,0,0,1-.392-.159L1.791,1.03l-.025.061s-.08.184-.46.184c-.055,0-.123-.006-.19-.012A7.324,7.324,0,0,0,.141.957L0,.932.012.926C.147.871.3.828.435.785.668.724.865.675.865.675H.877c.368-.178.448-.38.46-.484A.663.663,0,0,0,1.674.11L1.692.1A1.708,1.708,0,0,1,2.158,0a.261.261,0,0,1,.184.055.154.154,0,0,1,.025.123L2.355.27l.08-.037A1.892,1.892,0,0,1,3,.086a.21.21,0,0,1,.147.043.148.148,0,0,1,0,.117l-.025.08L3.2.313A1.463,1.463,0,0,1,3.428.294.524.524,0,0,1,3.82.411.182.182,0,0,1,3.869.583Z" transform="translate(22.328 5.74)" fill="#fff"/>
      <path id="Vector-5" data-name="Vector" d="M2.3,2.606a.363.363,0,0,1-.1.478L2.177,3.1l.006.037a.672.672,0,0,1-.043.442l-.11.08C1.9,3.526,1.723,3.3,1.735,3.17V3.152L1.723,3.14a2,2,0,0,1-.141-.662l-.006-.037-.031-.012a.588.588,0,0,1-.294-.552V1.821H1.2c-.012,0-.227-.012-.282-.466L.908,1.288l-.061.018S.656,1.374.4.944A7.155,7.155,0,0,0,0,0,10.512,10.512,0,0,1,.9.871L.908.883a.937.937,0,0,0,.5.208.328.328,0,0,0,.2-.067,1.806,1.806,0,0,0,.135.184l-.025.025-.067.049.074.043c.19.11.454.319.448.429l-.061.067-.074.037.067.055c.08.08.288.313.282.478l-.067.117-.043.031Z" transform="translate(22.238 7.027)" fill="#fff"/>
      <path id="Vector-6" data-name="Vector" d="M.178,3.066a.364.364,0,0,1-.1-.478l.031-.049L.068,2.508,0,2.391c-.012-.166.2-.4.282-.478l.061-.055L.27,1.821.209,1.754C.2,1.643.467,1.435.65,1.325l.08-.043L.657,1.233.632,1.208a1.806,1.806,0,0,0,.135-.184.328.328,0,0,0,.2.067.956.956,0,0,0,.5-.208L1.478.871A9.607,9.607,0,0,1,2.374,0a6.371,6.371,0,0,0-.4.944c-.251.417-.448.362-.448.362l-.055-.025-.012.067c-.055.454-.27.466-.282.466H1.129V1.87a.577.577,0,0,1-.294.552L.8,2.434v.037a2.1,2.1,0,0,1-.147.662v.031c.012.129-.166.362-.294.491l-.11-.08a.75.75,0,0,1-.043-.442L.215,3.1Z" transform="translate(19.382 7.045)" fill="#fff"/>
      <path id="Vector-7" data-name="Vector" d="M.245,2.336a.665.665,0,0,1,.2-.711L.472,1.6.46,1.558a.353.353,0,0,1,.012-.251A1.022,1.022,0,0,1,1,.932L1.055.914,1.024.852A.216.216,0,0,1,1.018.668c.092-.166.5-.2.65-.2h.074L1.717.386,1.7.307l.031.006a.746.746,0,0,0,.4-.147.609.609,0,0,0,.521.2c.061,0,.129-.006.2-.012h.012A6.481,6.481,0,0,1,4.047.012L4.127,0l.012.006-.1.067L3.888.19a8.088,8.088,0,0,0-.822.822.846.846,0,0,1-.442.184.191.191,0,0,1-.166-.067L2.441,1.1l-.025-.043-.043.074a2.575,2.575,0,0,1-.166.239l-.043.049a.348.348,0,0,1-.227.117l-.08-.018-.049-.043-.025.061c-.2.429-.454.478-.552.478H1.2l-.037-.006-.012.031a2.71,2.71,0,0,1-.521.724L.62,2.772l-.006.012c-.067.2-.4.35-.552.4-.2-.27.159-.8.159-.809l.018-.025Z" transform="translate(17.696 6.804)" fill="#fff"/>
      <path id="Vector-8" data-name="Vector" d="M.135,8.278H1.552l-.3-1.3.233-.233-.3-1.177.239-.117L1.11,4.164l.282-.2-.251-1.1.282-.153-.178-.975.233-.153L1.441.527V.521A1.225,1.225,0,0,1,1.779,0a1.254,1.254,0,0,1,.337.527L2.079,1.582l.233.153-.178.975.282.153-.245,1.1.282.2L2.146,5.451l.233.117-.3,1.177.233.233L2.048,8.272H3.434s.184.08.123.215a3.948,3.948,0,0,1-.846.828c-.061-.037-.061-.313-.1-.362s-.337.294-.472.368a1.771,1.771,0,0,0-.362-.307c-.215.135-.448.307-.448.307-.135-.08-.35-.4-.374-.362-.043.049-.043.325-.1.362a3.676,3.676,0,0,1-.846-.828C-.049,8.358.135,8.278.135,8.278Z" transform="translate(20.215 6.85)" fill="#fff"/>
      <path id="Vector-9" data-name="Vector" d="M2.361,1.527,2.33,1.472l-.049.037a.136.136,0,0,1-.08.025.326.326,0,0,1-.227-.117l-.043-.043a1.561,1.561,0,0,1-.166-.239l-.043-.067L1.7,1.1l-.018.031a.191.191,0,0,1-.166.067.8.8,0,0,1-.442-.19A9.967,9.967,0,0,0,.251.2C.2.153.147.11.1.074L0,.006.012,0l.08.012A5.989,5.989,0,0,1,1.263.35h.006a1.261,1.261,0,0,0,.208.012A.609.609,0,0,0,2,.166a.8.8,0,0,0,.423.147L2.441.307l-.018.08L2.4.46h.074c.147,0,.552.037.644.2A.183.183,0,0,1,3.1.846L3.078.908,3.14.926a.977.977,0,0,1,.521.374.323.323,0,0,1,.018.251v.043l.031.025a.636.636,0,0,1,.2.711L3.9,2.355l.018.025c0,.006.362.54.159.809-.153-.055-.484-.208-.552-.4V2.772l-.012-.012A2.777,2.777,0,0,1,3,2.036L2.98,2l-.037.006H2.913C2.815,2.005,2.569,1.956,2.361,1.527Z" transform="translate(22.152 6.816)" fill="#fff"/>
      <path id="Vector-10" data-name="Vector" d="M2.747.088l.025.055L2.821.119A.291.291,0,0,1,2.949.088.322.322,0,0,1,3.232.3l.012.037h.061a.53.53,0,0,1,.374.123.2.2,0,0,1,.049.129,1.006,1.006,0,0,1-.46.239L3.232.818,3.219.812,3.207.818A1.607,1.607,0,0,1,2.759.88,1.732,1.732,0,0,1,2.582.867L2.551.861,2.533.892a.491.491,0,0,1-.435.233l-.1-.012-.049-.006-.012.055a.257.257,0,0,1-.067.123l-.049.037L1.7,1.37l-.043.012a1.428,1.428,0,0,1-.178.012H1.416v.012l.006.055v.006c0,.037-.012.233-.392.417A5.881,5.881,0,0,0,.282,2.1,3,3,0,0,0,0,2.216L.006,2.21.012,2.2l.123-.135A5.537,5.537,0,0,1,.644,1.6L.65,1.591a.681.681,0,0,0,.2-.552A.461.461,0,0,0,1.147.628.651.651,0,0,0,1.392.45H1.4c.025,0,.061.006.092.074L1.533.61,1.582.536c.11-.159.337-.411.454-.411.012,0,.043,0,.061.08l.025.086L2.183.236A.853.853,0,0,1,2.618,0,.111.111,0,0,1,2.747.088Z" transform="translate(22.144 4.425)" fill="#fff"/>
      <path id="Vector-11" data-name="Vector" d="M.54.926.607.987.625.9C.675.662.773.4.858.4L.889.442.944.509.975.429c.037-.092.184-.362.307-.362L1.355.1,1.4.141,1.429.1a.261.261,0,0,1,.19-.1A.3.3,0,0,1,1.8.074L1.827.1,1.852.08A.606.606,0,0,1,2.109,0a.16.16,0,0,1,.159.092c-.067.141-.2.35-.294.368H1.962L1.95.472A1.4,1.4,0,0,1,1.49.76L1.459.773V.809A.42.42,0,0,1,1.386,1a.515.515,0,0,1-.258.19L1.11,1.2l-.031.012.006.018.006.037v.031a.283.283,0,0,1-.086.184.725.725,0,0,1-.19.135l-.043.025L.76,1.643V1.65L.791,1.7s.08.159-.166.472c-.031.025-.208.172-.392.343L.11,2.637,0,2.753l.018-.061C.153,2.244.38,1.435.472.914Z" transform="translate(22.077 3.777)" fill="#fff"/>
      <path id="Vector-12" data-name="Vector" d="M0,1.49H.042L.035,1.429A1.478,1.478,0,0,1,.1.619L.14.595.177.607.238.644.25.57A1.336,1.336,0,0,1,.489,0,1.336,1.336,0,0,1,.728.57L.741.644.8.607.839.595.876.619a1.542,1.542,0,0,1,.067.809L.937,1.49H.98a.9.9,0,0,1-.031.3l-.012.086-.031.147c-.08.368-.215.883-.362,1.4l-.012.031-.043.153-.006.018V3.606L.44,3.452.428,3.422C.281,2.9.152,2.391.072,2.024L.042,1.876.029,1.791A1,1,0,0,1,0,1.49Z" transform="translate(21.511 2.796)" fill="#fff"/>
      <path id="Vector-13" data-name="Vector" d="M.159,0A.606.606,0,0,1,.417.08L.448.1.472.074A.335.335,0,0,1,.65,0,.261.261,0,0,1,.84.1L.871.141.914.1.987.074c.123,0,.27.264.307.362l.037.08L1.38.448,1.435.411c.067,0,.172.251.221.491l.018.092L1.741.932,1.8.9c.092.521.319,1.331.448,1.772l.018.067-.11-.117L2.03,2.5a4.993,4.993,0,0,0-.386-.343c-.251-.319-.166-.472-.166-.472l.031-.049V1.631L1.5,1.625,1.453,1.6a.725.725,0,0,1-.19-.129.264.264,0,0,1-.086-.184V1.257L1.19,1.22,1.2,1.2,1.165,1.19l-.012-.006A.508.508,0,0,1,.889.993.433.433,0,0,1,.816.8L.809.767.779.754A1.539,1.539,0,0,1,.319.472L.307.46.294.454C.2.435.067.227,0,.086A.178.178,0,0,1,.159,0Z" transform="translate(19.642 3.771)" fill="#fff"/>
      <path id="Vector-14" data-name="Vector" d="M.044.466A.53.53,0,0,1,.418.343H.479L.492.313A.333.333,0,0,1,.78.1.291.291,0,0,1,.909.129L.958.153.976.1A.131.131,0,0,1,1.111,0c.184,0,.429.227.442.233l.061.055L1.632.2c.018-.08.049-.08.061-.08.11,0,.337.251.448.411L2.2.607,2.233.521c.025-.067.061-.074.092-.074h.012a.66.66,0,0,0,.245.184.46.46,0,0,0,.294.4.685.685,0,0,0,.2.552l.006.006a5.21,5.21,0,0,1,.509.466l.123.135.006.012V2.22A2.335,2.335,0,0,0,3.441,2.1a7.229,7.229,0,0,0-.748-.215c-.386-.19-.4-.386-.4-.417V1.466l.012-.049V1.4H2.245a.81.81,0,0,1-.178-.012l-.049-.012L1.9,1.318l-.049-.031a.308.308,0,0,1-.074-.123V1.128l-.049.006-.1.006A.5.5,0,0,1,1.191.908L1.172.877,1.142.883A1.62,1.62,0,0,1,.964.9,1.277,1.277,0,0,1,.516.828L.5.822.492.828.455.834A.986.986,0,0,1,0,.595.151.151,0,0,1,.044.466Z" transform="translate(18.132 4.409)" fill="#fff"/>
      <path id="Vector-15" data-name="Vector" d="M.009,1.533c.049-.215.337-.38.343-.386l.031-.018V1.1A.4.4,0,0,1,.708.632L.757.625.751.57A.2.2,0,0,1,.788.417.524.524,0,0,1,1.18.3a1.462,1.462,0,0,1,.227.018l.08.012L1.462.245C1.45.19,1.45.153,1.468.135s.067-.043.141-.043a1.9,1.9,0,0,1,.564.141l.08.037L2.241.178A.154.154,0,0,1,2.265.055.254.254,0,0,1,2.449,0a1.582,1.582,0,0,1,.46.1L2.934.11a.606.606,0,0,0,.337.08c.018.1.1.307.466.484h.012s.19.043.423.11c.135.043.288.092.423.141L4.6.932,4.467.957a8.886,8.886,0,0,0-.975.3,1.023,1.023,0,0,1-.19.012c-.38,0-.46-.184-.46-.184l-.018-.061-.055.037a.712.712,0,0,1-.4.153H2.357L2.3,1.208,2.247,1.2a.185.185,0,0,1-.092-.061l-.031-.043-.037.037a.69.69,0,0,1-.448.19A.53.53,0,0,1,1.4,1.263L1.37,1.245l-.025.025a2.036,2.036,0,0,1-.656.356l-.012.006-.012.012c-.055.067-.2.1-.4.1-.1,0-.2-.012-.239-.012A.318.318,0,0,1,.009,1.533Z" transform="translate(17.052 5.752)" fill="#fff"/>
      <path id="Vector-16" data-name="Vector" d="M12.338,2.121A30.046,30.046,0,0,0,9.572,4.243c.46.423.926.877,1.386,1.374L11,5.574h.092l.018.061.067-.1a.3.3,0,0,1,.092-.325.268.268,0,1,1,.086.472.238.238,0,0,0-.025.2,1.3,1.3,0,0,0,1.067.509,1.118,1.118,0,0,0,.858-.423.45.45,0,0,1,.693.006c.509.742-.533,1.41-1.275,1.429a2.832,2.832,0,0,1-1.932-.791c-.08-.092-.135-.123-.2-.092a.208.208,0,0,0-.074.141.312.312,0,0,1-.1.27.288.288,0,0,1-.4,0,.281.281,0,0,1,.049-.4.323.323,0,0,1,.227-.08l.025-.006-.031-.018V6.334l.1-.1c-.184-.184-.724-.711-1.466-1.367C8.131,5.531,7.591,6.052,7.4,6.236l.1.1v.092l-.025.018.025.006a.323.323,0,0,1,.227.08.269.269,0,1,1-.356.4.3.3,0,0,1-.11-.27.19.19,0,0,0-.08-.141c-.067-.037-.123,0-.2.092A2.846,2.846,0,0,1,5.053,7.4c-.742-.012-1.791-.687-1.275-1.429a.455.455,0,0,1,.693-.006,1.118,1.118,0,0,0,.858.423A1.288,1.288,0,0,0,6.39,5.88a.238.238,0,0,0-.025-.2A.284.284,0,0,1,6.1,5.61a.269.269,0,1,1,.356-.4.3.3,0,0,1,.092.325l.067.1.018-.061h.092l.043.043c.46-.5.926-.95,1.386-1.374A30.9,30.9,0,0,0,5.384,2.121,9.264,9.264,0,0,0,0,.276a6.556,6.556,0,0,1,4.918.54,25.608,25.608,0,0,1,3.937,2.8,25.915,25.915,0,0,1,3.937-2.8A6.54,6.54,0,0,1,17.7.276,9.25,9.25,0,0,0,12.338,2.121Z" transform="translate(13.134 15.042)" fill="#fff"/>
      <path id="Vector-17" data-name="Vector" d="M2.073,3.642c-.012-.264-.288-.558-.822-.883a8.068,8.068,0,0,0-.576.779.561.561,0,0,0-.055.233c0,.245.141.368.429.368a2.188,2.188,0,0,0,.834-.184A.345.345,0,0,0,2.073,3.642ZM2.391.583l-.356.589L1.2.668.95,1.141.067.625.435,0l.816.515L1.533.049Zm.258,2.606a2.455,2.455,0,0,1-.3.9,1.958,1.958,0,0,1-.423.442,1.871,1.871,0,0,1-.957.38,1.251,1.251,0,0,1-.632-.08A.5.5,0,0,1,0,4.335,3.17,3.17,0,0,1,.816,2.759l.693-.908a2.67,2.67,0,0,0,.429.38,5.165,5.165,0,0,1,.429.331A.809.809,0,0,1,2.649,3.189Z" transform="translate(0 32.12)" fill="#00524d"/>
      <path id="Vector-18" data-name="Vector" d="M3.759,2.177a3.028,3.028,0,0,1-.644,1.717,1.569,1.569,0,0,1-1.226.84A3.553,3.553,0,0,1,.816,4.452C.276,4.243,0,4.078,0,3.943l.061-.061a4.31,4.31,0,0,1,.472.178,2.054,2.054,0,0,0,.711.178,2.266,2.266,0,0,0,1.41-.8,2.157,2.157,0,0,0,.822-1.38c0-.282-.331-.662-1-1.147.037-.166.1-.466.2-.914a3.242,3.242,0,0,1,.754.773A2.814,2.814,0,0,1,3.759,2.177Z" transform="translate(2.299 34.533)" fill="#00524d"/>
      <path id="Vector-19" data-name="Vector" d="M1.833,5.838H.38Q.233,3.124,0,.662C.1.521.27.3.491,0L.73,2.845A15.691,15.691,0,0,0,.975,4.893l.067.074a.534.534,0,0,0,.4.117h.386v.754Z" transform="translate(7.099 31.186)" fill="#00524d"/>
      <path id="Vector-20" data-name="Vector" d="M0,0H1.466V.754H0Z" transform="translate(8.68 36.335)" fill="#00524d"/>
      <path id="Vector-21" data-name="Vector" d="M0,0H1.472V.754H0Z" transform="translate(9.965 36.335)" fill="#00524d"/>
      <path id="Vector-22" data-name="Vector" d="M3.814,4.213l-.362.607L2.631,4.3,3,3.722ZM6.157,2.747H4.115c-.178,0-.3-.135-.368-.411a6.011,6.011,0,0,1-.1-.613,2.538,2.538,0,0,1-.46.35,3.341,3.341,0,0,0-.466.337,1.193,1.193,0,0,1-.871.337H0V1.993H1.87A3.059,3.059,0,0,0,3.7,1.171C3.409,1.11,2.98,1.018,2.4.9L1.993.816a1.6,1.6,0,0,0-.84.386l-.012-.031A.909.909,0,0,1,1.22.84C1.459.276,1.8,0,2.244,0a4.686,4.686,0,0,1,1.2.245A7.3,7.3,0,0,0,5.255.613h.251C5.746.607,5.838.6,5.77.6c-.061.172-.172.435-.325.779-.067-.006-.153-.012-.27-.012a2.826,2.826,0,0,0-1.22.215.428.428,0,0,0,.19.368L4.225,2H6.144v.748Z" transform="translate(11.285 34.343)" fill="#00524d"/>
      <path id="Vector-23" data-name="Vector" d="M2.569.57l-.362.595-.84-.5L1.1,1.128.239.619.6,0l.816.515L1.692.049Zm.294,4.035H2.434a.574.574,0,0,1-.307-.1A.543.543,0,0,1,2,4.311c-.049-.1-.08-.153-.1-.159s-.086.074-.172.227-.153.227-.2.227H0V3.851H1.968l.018-.993a10.5,10.5,0,0,1,.681-.822l.012.086a8.321,8.321,0,0,1-.172,1.416,1.1,1.1,0,0,0-.031.221c.006.055.055.086.153.086h.233Z" transform="translate(17.308 32.421)" fill="#00524d"/>
      <path id="Vector-24" data-name="Vector" d="M2.594.8l-.429.852-.11-.031.251,2.526a5.17,5.17,0,0,1-.1.84c-.074.392-.147.595-.221.595H0V4.829H1.864c.018,0,.031-.061.031-.178a27.534,27.534,0,0,0-.442-3.385L1.4,1.247a.255.255,0,0,1-.141-.221A.435.435,0,0,1,1.306.843L1.7.162c.074-.135.129-.184.166-.153l.067.074L1.895.211,1.852.334A.143.143,0,0,0,1.938.45C2.165.573,2.385.689,2.594.8Z" transform="translate(19.989 31.442)" fill="#00524d"/>
      <path id="Vector-25" data-name="Vector" d="M.824,4.832a4.178,4.178,0,0,1-.35,1.3C.358,4.8.2,3.195,0,1.306A2.976,2.976,0,0,1,.566,0C.6.049.652.865.726,2.434Z" transform="translate(23.687 31.188)" fill="#00524d"/>
      <path id="Vector-26" data-name="Vector" d="M2.073,3.642c-.018-.264-.288-.558-.822-.883a9.247,9.247,0,0,0-.576.779.561.561,0,0,0-.055.233c0,.245.141.368.429.368a2.164,2.164,0,0,0,.834-.184A.37.37,0,0,0,2.073,3.642ZM2.385.583l-.356.589L1.2.668l-.251.472L.061.625.429,0l.816.515L1.527.049Zm.258,2.606a2.534,2.534,0,0,1-.294.9,2.266,2.266,0,0,1-.423.442,1.871,1.871,0,0,1-.957.38,1.251,1.251,0,0,1-.632-.08A.5.5,0,0,1,0,4.335,3.17,3.17,0,0,1,.816,2.759l.693-.908a2.67,2.67,0,0,0,.429.38,4.237,4.237,0,0,1,.429.331A.824.824,0,0,1,2.643,3.189Z" transform="translate(27.849 32.12)" fill="#00524d"/>
      <path id="Vector-27" data-name="Vector" d="M3.759,2.177a3.028,3.028,0,0,1-.644,1.717,1.569,1.569,0,0,1-1.226.84A3.553,3.553,0,0,1,.816,4.452C.276,4.243,0,4.078,0,3.943l.061-.061a4.31,4.31,0,0,1,.472.178,2.059,2.059,0,0,0,.705.178,2.266,2.266,0,0,0,1.41-.8,2.13,2.13,0,0,0,.822-1.38c0-.282-.331-.662-1.006-1.147.037-.166.1-.466.2-.914a3.366,3.366,0,0,1,.754.773A2.691,2.691,0,0,1,3.759,2.177Z" transform="translate(30.167 34.533)" fill="#00524d"/>
      <path id="Vector-28" data-name="Vector" d="M.83,4.832a4.064,4.064,0,0,1-.356,1.3C.358,4.8.2,3.195,0,1.306A2.976,2.976,0,0,1,.566,0C.6.049.646.865.726,2.434Z" transform="translate(35.127 31.188)" fill="#00524d"/>
      <path id="Vector-29" data-name="Vector" d="M2.808.5l-.362.613L1.594.6,1.962,0Zm.944,3.759a3.028,3.028,0,0,1-.644,1.717,1.569,1.569,0,0,1-1.226.84A3.553,3.553,0,0,1,.809,6.537C.27,6.328,0,6.163,0,6.028l.061-.061a4.658,4.658,0,0,1,.478.178,2.027,2.027,0,0,0,.705.178,2.28,2.28,0,0,0,1.41-.8,2.157,2.157,0,0,0,.822-1.38c0-.282-.331-.662-1-1.147.037-.166.1-.466.2-.914a3.242,3.242,0,0,1,.754.773A2.814,2.814,0,0,1,3.753,4.262Z" transform="translate(36.091 32.448)" fill="#00524d"/>
      <path id="Vector-30" data-name="Vector" d="M3.293,1.729a1.087,1.087,0,0,0-.153-.521A.516.516,0,0,0,2.735.9a.554.554,0,0,0-.386.221.588.588,0,0,0-.215.392c.006.123.1.215.276.282a1.1,1.1,0,0,0,.417.08A.585.585,0,0,0,3.293,1.729Zm.552.092A4.5,4.5,0,0,1,3.4,3.8a3.075,3.075,0,0,1-.6.846,1.17,1.17,0,0,1-.9.423A9.076,9.076,0,0,1,.852,4.9C.282,4.777,0,4.666,0,4.568c0-.049.037-.08.11-.08a2.44,2.44,0,0,1,.5.086,2.3,2.3,0,0,0,.5.086,1.105,1.105,0,0,0,.331-.049A4.1,4.1,0,0,0,2.833,3.7,1.877,1.877,0,0,0,3.544,2.4a1.43,1.43,0,0,0-.061-.466,1.388,1.388,0,0,1-.5.681,1,1,0,0,1-.527.061.568.568,0,0,1-.466-.356,1.421,1.421,0,0,1-.135-.6A2.187,2.187,0,0,1,2.25.7c.288-.466.546-.7.76-.7.153,0,.325.2.527.583A2.72,2.72,0,0,1,3.845,1.821Z" transform="translate(39.605 34.214)" fill="#00524d"/>
      <path id="Vector-31" data-name="Vector" d="M.619,0l.92,2.422L2.471,0h.613V3.219H2.551V1L1.7,3.219h-.35L.533,1v2.22H0V0Z" transform="translate(0.025 40.806)" fill="#00524d"/>
      <path id="Vector-32" data-name="Vector" d="M0,3.219H.527V.9H0ZM0,.46H.527V0H0Z" transform="translate(3.538 40.806)" fill="#00524d"/>
      <path id="Vector-33" data-name="Vector" d="M0,.037H.533v.19A1,1,0,0,1,.865.055,1.2,1.2,0,0,1,1.226,0a1.105,1.105,0,0,1,.331.049A.577.577,0,0,1,1.8.19.622.622,0,0,1,1.95.411a.741.741,0,0,1,.055.294v1.65H1.472V.742a.441.441,0,0,0-.08-.3A.31.31,0,0,0,1.159.356.673.673,0,0,0,.914.4a.744.744,0,0,0-.2.135.744.744,0,0,0-.135.2A.58.58,0,0,0,.533.963V2.349H0Z" transform="translate(4.44 41.664)" fill="#00524d"/>
      <path id="Vector-34" data-name="Vector" d="M0,3.219H.527V.9H0ZM0,.46H.527V0H0Z" transform="translate(6.856 40.806)" fill="#00524d"/>
      <path id="Vector-35" data-name="Vector" d="M.546,1.576a.529.529,0,0,0,.037.208.468.468,0,0,0,.092.141l.129.08a.47.47,0,0,0,.166.025,1.4,1.4,0,0,0,.153-.012.519.519,0,0,0,.147-.049l.11-.1a.251.251,0,0,0,.043-.153.215.215,0,0,0-.043-.141l-.11-.1A.548.548,0,0,0,1.11,1.4a1.733,1.733,0,0,0-.19-.067c-.1-.037-.2-.074-.3-.11a1.518,1.518,0,0,1-.264-.135A.827.827,0,0,1,.159.9.5.5,0,0,1,.086.619.516.516,0,0,1,.159.343a.6.6,0,0,1,.2-.2A.967.967,0,0,1,.638.037,1.442,1.442,0,0,1,.969,0a1.362,1.362,0,0,1,.362.043.819.819,0,0,1,.288.123.6.6,0,0,1,.2.215.687.687,0,0,1,.08.307H1.361A.5.5,0,0,0,1.312.533l-.086-.1L1.1.38.963.368A.444.444,0,0,0,.705.435.221.221,0,0,0,.619.619L.662.754l.11.1a1.039,1.039,0,0,0,.166.08A1.733,1.733,0,0,0,1.128,1l.294.11a1.6,1.6,0,0,1,.27.141.8.8,0,0,1,.2.184.414.414,0,0,1,.074.245.7.7,0,0,1-.08.331.634.634,0,0,1-.221.221,1.156,1.156,0,0,1-.319.129,1.9,1.9,0,0,1-.38.043,1.44,1.44,0,0,1-.368-.049.872.872,0,0,1-.3-.153A.832.832,0,0,1,.086,1.95.822.822,0,0,1,0,1.594H.546Z" transform="translate(7.816 41.676)" fill="#00524d"/>
      <path id="Vector-36" data-name="Vector" d="M.877,0V.668h.35V1.03H.877V2.447a.271.271,0,0,0,.043.178l.11.049.08-.012c.037-.006.1-.012.172-.031v.35c-.067.018-.129.031-.2.043A.991.991,0,0,1,.9,3.035a1.141,1.141,0,0,1-.208-.025.525.525,0,0,1-.178-.08.415.415,0,0,1-.123-.147A.49.49,0,0,1,.35,2.563V1.03H0V.668H.35V0Z" transform="translate(9.971 41.033)" fill="#00524d"/>
      <path id="Vector-37" data-name="Vector" d="M0,.043H.472L.5.251A.634.634,0,0,1,.724.067.606.606,0,0,1,.993,0L1.11.012l.141.037V.484A1.169,1.169,0,0,0,.987.4.378.378,0,0,0,.8.448.453.453,0,0,0,.656.57.533.533,0,0,0,.57.748.825.825,0,0,0,.54.963V2.355H.012V.043Z" transform="translate(11.564 41.658)" fill="#00524d"/>
      <path id="Vector-38" data-name="Vector" d="M1.116,1.588,1.662,0h.552L1.226,2.8a.878.878,0,0,1-.123.239.607.607,0,0,1-.153.153.43.43,0,0,1-.166.086A.554.554,0,0,1,.613,3.3.673.673,0,0,1,.46,3.287a.616.616,0,0,1-.184-.055V2.839l.08.031L.442,2.9l.08.025.049.006L.632,2.9l.055-.086.043-.1.031-.1.1-.313L0,0H.564Z" transform="translate(12.876 41.701)" fill="#00524d"/>
      <path id="Vector-39" data-name="Vector" d="M.527,1.2a1.1,1.1,0,0,0,.043.325.861.861,0,0,0,.117.264.51.51,0,0,0,.184.178.48.48,0,0,0,.491,0,.51.51,0,0,0,.184-.178.87.87,0,0,0,.123-.264A1.1,1.1,0,0,0,1.711,1.2,1.083,1.083,0,0,0,1.668.883.7.7,0,0,0,1.545.619.51.51,0,0,0,1.361.442.475.475,0,0,0,1.116.374.492.492,0,0,0,.871.442.565.565,0,0,0,.687.619.736.736,0,0,0,.57.883,1.083,1.083,0,0,0,.527,1.2ZM0,1.208A1.455,1.455,0,0,1,.074.742,1.252,1.252,0,0,1,.288.356.929.929,0,0,1,.638.1,1.094,1.094,0,0,1,1.116,0a1.076,1.076,0,0,1,.478.1A1,1,0,0,1,1.95.356a1.2,1.2,0,0,1,.221.386,1.455,1.455,0,0,1,.074.466,1.428,1.428,0,0,1-.074.466,1.019,1.019,0,0,1-.221.38,1,1,0,0,1-.356.258,1.189,1.189,0,0,1-.478.1,1.076,1.076,0,0,1-.478-.1,1.036,1.036,0,0,1-.35-.258,1.056,1.056,0,0,1-.215-.38A1.282,1.282,0,0,1,0,1.208Z" transform="translate(16.256 41.658)" fill="#00524d"/>
      <path id="Vector-40" data-name="Vector" d="M.386.987V.472A.448.448,0,0,1,.423.288.409.409,0,0,1,.54.135a.526.526,0,0,1,.184-.1A.752.752,0,0,1,.963,0a.719.719,0,0,1,.184.031.816.816,0,0,1,.2.092v.35L1.153.4,1.073.368.963.4A.156.156,0,0,0,.92.533V.987h.392v.374H.92v1.95H.386V1.361H0V.987Z" transform="translate(18.743 40.714)" fill="#00524d"/>
      <path id="Vector-41" data-name="Vector" d="M.527,1.668a1.985,1.985,0,0,0,.086.607A1.285,1.285,0,0,0,.834,2.7a.93.93,0,0,0,.313.251.813.813,0,0,0,.356.08.73.73,0,0,0,.331-.074.8.8,0,0,0,.258-.2.975.975,0,0,0,.184-.282,1.512,1.512,0,0,0,.11-.319h.54a1.617,1.617,0,0,1-.166.484,1.462,1.462,0,0,1-.294.4,1.367,1.367,0,0,1-.423.264,1.387,1.387,0,0,1-.54.1,1.529,1.529,0,0,1-.619-.123,1.322,1.322,0,0,1-.472-.343A1.6,1.6,0,0,1,.1,2.391,2.45,2.45,0,0,1,0,1.656a1.926,1.926,0,0,1,.043-.417A2.284,2.284,0,0,1,.178.846,1.5,1.5,0,0,1,.392.509,1.54,1.54,0,0,1,.687.239,1.406,1.406,0,0,1,1.061.061,1.45,1.45,0,0,1,1.5,0a1.637,1.637,0,0,1,.54.08A1.419,1.419,0,0,1,2.459.3a1.18,1.18,0,0,1,.294.337,1.592,1.592,0,0,1,.184.429H2.391A1.163,1.163,0,0,0,2.048.54.872.872,0,0,0,1.5.368a.724.724,0,0,0-.392.1A1.028,1.028,0,0,0,.8.754a1.217,1.217,0,0,0-.2.411A1.562,1.562,0,0,0,.527,1.668Z" transform="translate(21.381 40.701)" fill="#00524d"/>
      <path id="Vector-42" data-name="Vector" d="M.527,1.2a1.1,1.1,0,0,0,.043.325.861.861,0,0,0,.117.264.51.51,0,0,0,.184.178.48.48,0,0,0,.491,0,.51.51,0,0,0,.184-.178.736.736,0,0,0,.117-.264A1.1,1.1,0,0,0,1.7,1.2,1.083,1.083,0,0,0,1.662.883.8.8,0,0,0,1.545.619.51.51,0,0,0,1.361.442.475.475,0,0,0,1.116.374.492.492,0,0,0,.871.442.565.565,0,0,0,.687.619.861.861,0,0,0,.57.883,1.083,1.083,0,0,0,.527,1.2ZM0,1.208A1.455,1.455,0,0,1,.074.742,1.252,1.252,0,0,1,.288.356.929.929,0,0,1,.638.1,1.094,1.094,0,0,1,1.116,0,1.122,1.122,0,0,1,1.6.1a.929.929,0,0,1,.35.258,1.1,1.1,0,0,1,.221.386,1.455,1.455,0,0,1,.074.466,1.428,1.428,0,0,1-.074.466,1.019,1.019,0,0,1-.221.38,1.036,1.036,0,0,1-.35.258,1.2,1.2,0,0,1-.484.1,1.076,1.076,0,0,1-.478-.1,1.036,1.036,0,0,1-.35-.258,1.056,1.056,0,0,1-.215-.38A1.282,1.282,0,0,1,0,1.208Z" transform="translate(24.671 41.658)" fill="#00524d"/>
      <path id="Vector-43" data-name="Vector" d="M0,.055H.527V.227a.853.853,0,0,1,.3-.166A1.138,1.138,0,0,1,1.134.012.857.857,0,0,1,1.459.08a.7.7,0,0,1,.276.233A.666.666,0,0,1,1.889.172c.061-.037.123-.067.184-.1a1.175,1.175,0,0,1,.2-.055A1.048,1.048,0,0,1,2.459,0a.927.927,0,0,1,.325.055.777.777,0,0,1,.258.153.863.863,0,0,1,.166.227.632.632,0,0,1,.061.282v1.65H2.741V.822A.693.693,0,0,0,2.71.607a.414.414,0,0,0-.08-.135L2.52.4,2.4.38A.4.4,0,0,0,2.22.423a.484.484,0,0,0-.153.123.545.545,0,0,0-.11.184.535.535,0,0,0-.043.227V2.379H1.386V.822A.693.693,0,0,0,1.355.607a.414.414,0,0,0-.08-.135L1.171.4,1.061.38A.424.424,0,0,0,.852.435.541.541,0,0,0,.687.583a.594.594,0,0,0-.11.19.666.666,0,0,0-.043.2v1.4H.006V.055Z" transform="translate(27.296 41.646)" fill="#00524d"/>
      <path id="Vector-44" data-name="Vector" d="M0,.055H.527V.227a.853.853,0,0,1,.3-.166A1.138,1.138,0,0,1,1.134.012.857.857,0,0,1,1.459.08a.7.7,0,0,1,.276.233A.666.666,0,0,1,1.889.172a1.748,1.748,0,0,1,.184-.1,1.175,1.175,0,0,1,.2-.055A1.048,1.048,0,0,1,2.459,0a.927.927,0,0,1,.325.055.777.777,0,0,1,.258.153.863.863,0,0,1,.166.227.632.632,0,0,1,.061.282v1.65H2.741V.822A.693.693,0,0,0,2.71.607a.414.414,0,0,0-.08-.135L2.52.4,2.4.38A.38.38,0,0,0,2.22.423a.484.484,0,0,0-.153.123.545.545,0,0,0-.11.184.535.535,0,0,0-.043.227V2.379H1.386V.822A.693.693,0,0,0,1.355.607a.56.56,0,0,0-.08-.135L1.171.4,1.061.38A.424.424,0,0,0,.852.435.541.541,0,0,0,.687.583a.594.594,0,0,0-.11.19.666.666,0,0,0-.043.2v1.4H0Z" transform="translate(30.986 41.646)" fill="#00524d"/>
      <path id="Vector-45" data-name="Vector" d="M1.674.975A.973.973,0,0,0,1.625.736a.659.659,0,0,0-.117-.19A.53.53,0,0,0,1.331.417.564.564,0,0,0,1.1.374.523.523,0,0,0,.883.423.507.507,0,0,0,.711.552a.754.754,0,0,0-.117.19A.721.721,0,0,0,.54.975ZM.546,1.306A1,1,0,0,0,.6,1.582a.878.878,0,0,0,.123.239A.651.651,0,0,0,.9,1.987a.4.4,0,0,0,.221.061A.571.571,0,0,0,1.68,1.6h.5a.9.9,0,0,1-.141.343A1.194,1.194,0,0,1,1.8,2.2a1.075,1.075,0,0,1-.313.159,1.136,1.136,0,0,1-.356.055,1.054,1.054,0,0,1-.822-.368,1.208,1.208,0,0,1-.227-.4A1.34,1.34,0,0,1,0,1.177,1.375,1.375,0,0,1,.08.73,1.206,1.206,0,0,1,.3.356,1,1,0,0,1,.656.1,1.058,1.058,0,0,1,1.122,0a1.2,1.2,0,0,1,.454.086.974.974,0,0,1,.343.233A1.083,1.083,0,0,1,2.14.681a1.318,1.318,0,0,1,.074.448v.166H.546Z" transform="translate(34.662 41.658)" fill="#00524d"/>
      <path id="Vector-46" data-name="Vector" d="M0,.043H.472L.5.251A.634.634,0,0,1,.724.067.606.606,0,0,1,.993,0L1.11.012l.141.037V.484A1.169,1.169,0,0,0,.987.4.378.378,0,0,0,.8.448.453.453,0,0,0,.656.57.533.533,0,0,0,.57.748.628.628,0,0,0,.54.963V2.355H.012V.043Z" transform="translate(37.263 41.658)" fill="#00524d"/>
      <path id="Vector-47" data-name="Vector" d="M1.539.791A.666.666,0,0,0,1.361.454a.422.422,0,0,0-.288-.1A.432.432,0,0,0,.84.423.53.53,0,0,0,.668.6a.847.847,0,0,0-.11.251,1.222,1.222,0,0,0-.037.3,1.427,1.427,0,0,0,.037.325,1.04,1.04,0,0,0,.11.282.593.593,0,0,0,.172.2.372.372,0,0,0,.227.074.347.347,0,0,0,.178-.043L1.38,1.87a.782.782,0,0,0,.1-.172,2.069,2.069,0,0,0,.061-.208H2.1a1.488,1.488,0,0,1-.1.386,1.011,1.011,0,0,1-.215.288.937.937,0,0,1-.313.184,1.194,1.194,0,0,1-.4.061A.984.984,0,0,1,.583,2.3a1.006,1.006,0,0,1-.331-.288,1.294,1.294,0,0,1-.19-.4A1.824,1.824,0,0,1,0,1.165,1.25,1.25,0,0,1,.08.705,1.111,1.111,0,0,1,.3.337,1,1,0,0,1,.644.092,1.063,1.063,0,0,1,1.091,0a1.285,1.285,0,0,1,.392.061.97.97,0,0,1,.294.166.813.813,0,0,1,.2.251A1.17,1.17,0,0,1,2.1.8H1.539Z" transform="translate(38.777 41.676)" fill="#00524d"/>
      <path id="Vector-48" data-name="Vector" d="M1.674.975A.973.973,0,0,0,1.625.736a.659.659,0,0,0-.117-.19A.53.53,0,0,0,1.331.417.564.564,0,0,0,1.1.374.523.523,0,0,0,.883.423.507.507,0,0,0,.711.552a.754.754,0,0,0-.117.19A.721.721,0,0,0,.54.975ZM.546,1.306A1,1,0,0,0,.6,1.582a.878.878,0,0,0,.123.239A.752.752,0,0,0,.9,1.987a.4.4,0,0,0,.221.061A.567.567,0,0,0,1.68,1.6h.5a.9.9,0,0,1-.141.343A1.194,1.194,0,0,1,1.8,2.2a1.075,1.075,0,0,1-.313.159,1.165,1.165,0,0,1-.356.055,1.053,1.053,0,0,1-.822-.368,1.109,1.109,0,0,1-.227-.4A1.34,1.34,0,0,1,0,1.177,1.231,1.231,0,0,1,.08.73,1.339,1.339,0,0,1,.3.356,1,1,0,0,1,.656.1,1.058,1.058,0,0,1,1.122,0a1.2,1.2,0,0,1,.454.086.974.974,0,0,1,.343.233A1.083,1.083,0,0,1,2.14.681a1.319,1.319,0,0,1,.08.448v.166H.546Z" transform="translate(41.206 41.658)" fill="#00524d"/>
    </g>
  </g>
</svg>
