<svg width="475" height="243" viewBox="0 0 475 243" fill="none" xmlns="http://www.w3.org/2000/svg">
<path d="M396.636 38.4179C403.89 38.9113 410.163 33.386 410.653 26.0847C411.143 18.7834 405.654 12.4688 398.302 11.9755C391.049 11.4821 384.775 17.0074 384.285 24.3087C384.285 24.9007 384.285 25.4927 384.285 26.0847C384.775 32.6953 390.069 38.0233 396.636 38.4179Z" fill="url(#paint0_linear)"/>
<path d="M200.787 226.081H190.102V215.227H184.711V242.163H190.102V230.323H200.787V242.163H206.178V215.227H200.787V226.081Z" fill="#002256"/>
<path d="M228.038 229.238C227.94 228.547 227.744 227.758 227.45 227.067C227.254 226.377 226.862 225.686 226.568 225.094C226.176 224.502 225.686 223.91 225.098 223.515C224.51 223.121 223.921 222.726 223.235 222.43C222.549 222.134 221.863 222.035 221.177 221.838C220.491 221.739 219.707 221.641 219.02 221.641C217.648 221.641 216.276 221.937 215.001 222.43C213.923 222.923 212.943 223.713 212.159 224.699C211.375 225.686 210.786 226.771 210.492 228.054C210.1 229.337 209.904 230.718 209.904 232.099C209.904 233.579 210.1 235.059 210.59 236.539C211.375 239.006 213.335 240.979 215.786 241.768C217.256 242.262 218.726 242.459 220.197 242.459C221.373 242.459 222.549 242.36 223.725 242.163C224.902 241.966 225.98 241.472 226.96 240.88V236.638C225.98 237.23 224.902 237.723 223.823 238.118C222.745 238.513 221.569 238.71 220.393 238.71C219.707 238.71 218.922 238.611 218.236 238.414C217.648 238.216 217.06 237.92 216.472 237.427C215.982 237.033 215.59 236.441 215.296 235.849C215.001 235.158 214.805 234.467 214.707 233.777H228.333V233.579C228.333 232.889 228.333 232.198 228.234 231.409C228.333 230.718 228.235 230.027 228.038 229.238ZM214.805 230.225C214.805 229.633 215.001 228.942 215.198 228.35C215.394 227.758 215.688 227.265 216.08 226.87C216.472 226.475 216.962 226.081 217.452 225.883C218.04 225.686 218.628 225.489 219.314 225.489C219.903 225.489 220.589 225.587 221.177 225.883C221.667 226.081 222.059 226.475 222.451 226.87C222.843 227.265 223.039 227.857 223.235 228.35C223.431 228.942 223.529 229.534 223.529 230.225H214.805Z" fill="#002256"/>
<path d="M248.819 229.929C248.819 227.166 248.133 225.094 246.663 223.811C245.291 222.43 243.232 221.838 240.488 221.838C239.311 221.838 238.037 221.937 236.861 222.233C235.684 222.529 234.508 222.825 233.43 223.318L233.626 227.758C234.508 227.067 235.488 226.574 236.469 226.179C237.547 225.785 238.625 225.587 239.703 225.587C240.39 225.587 241.076 225.686 241.664 225.785C242.154 225.883 242.644 226.179 243.036 226.475C243.428 226.87 243.722 227.265 243.82 227.857C244.016 228.547 244.114 229.238 244.114 229.83H242.84H241.566C240.684 229.83 239.801 229.83 238.919 229.929C238.037 230.027 237.155 230.126 236.371 230.323C235.586 230.52 234.802 230.816 234.116 231.31C233.43 231.704 232.744 232.296 232.254 232.987C231.862 233.48 231.666 234.072 231.469 234.763C231.371 235.355 231.273 236.046 231.273 236.638C231.273 237.526 231.469 238.414 231.862 239.104C232.254 239.795 232.744 240.486 233.43 240.979C234.116 241.472 234.802 241.867 235.684 242.163C236.469 242.459 237.351 242.558 238.233 242.558C238.821 242.558 239.409 242.459 240.095 242.36C240.684 242.163 241.272 241.966 241.762 241.67C242.252 241.374 242.742 240.979 243.232 240.584C243.722 240.19 244.016 239.696 244.408 239.104H244.506C244.506 239.598 244.507 240.091 244.605 240.584C244.703 241.078 244.703 241.571 244.801 242.064H249.31C249.212 240.091 249.114 238.019 249.016 236.046C248.819 234.072 248.819 232 248.819 229.929ZM244.114 233.086C244.114 233.776 244.016 234.566 243.82 235.256C243.624 235.947 243.33 236.539 243.036 237.131C242.644 237.624 242.154 238.118 241.566 238.414C240.88 238.71 240.193 238.907 239.409 238.907C239.017 238.907 238.625 238.907 238.233 238.808C237.841 238.71 237.547 238.611 237.155 238.414C236.861 238.216 236.567 237.92 236.371 237.624C236.175 237.328 236.077 236.934 236.077 236.44C236.077 235.848 236.175 235.256 236.567 234.862C236.861 234.467 237.253 234.072 237.743 233.776C238.233 233.48 238.723 233.283 239.311 233.184C239.899 233.086 240.39 232.987 240.978 232.987H244.114V233.086V233.086Z" fill="#002256"/>
<path d="M259.111 213.254H253.916V242.163H259.111V213.254Z" fill="#002256"/>
<path d="M273.031 238.512C272.639 238.611 272.247 238.611 271.855 238.611C271.463 238.611 271.071 238.512 270.678 238.315C270.384 238.118 270.09 237.92 269.894 237.624C269.698 237.328 269.6 236.934 269.502 236.638C269.404 236.243 269.404 235.848 269.404 235.454V225.982H274.011V222.331H269.404V216.707L264.209 218.385V236.144C264.209 237.032 264.307 237.92 264.601 238.808C264.797 239.598 265.287 240.288 265.777 240.782C266.365 241.374 266.954 241.768 267.738 242.064C268.62 242.36 269.502 242.558 270.384 242.459C271.071 242.459 271.659 242.459 272.345 242.36C273.031 242.262 273.619 242.163 274.207 241.966L274.011 237.92C273.815 238.216 273.423 238.414 273.031 238.512Z" fill="#002256"/>
<path d="M294.105 224.009C293.517 223.318 292.831 222.726 292.046 222.331C291.066 221.937 289.988 221.739 289.008 221.739C287.831 221.739 286.557 222.035 285.479 222.529C284.401 223.022 283.42 223.91 282.832 224.897H282.734V213.155H277.539V242.064H282.734V232.296C282.734 231.507 282.832 230.816 282.93 230.027C283.028 229.238 283.322 228.547 283.714 227.856C284.009 227.264 284.499 226.672 285.087 226.278C285.675 225.883 286.459 225.587 287.243 225.686C287.831 225.686 288.518 225.784 289.106 226.08C289.596 226.475 289.988 226.968 290.184 227.56C290.38 228.152 290.576 228.744 290.576 229.435C290.576 230.027 290.576 230.718 290.576 231.31V241.867H295.673V229.336C295.673 228.251 295.575 227.264 295.281 226.278C295.085 225.587 294.693 224.798 294.105 224.009Z" fill="#002256"/>
<path d="M311.946 215.227H306.555V242.163H311.946V215.227Z" fill="#002256"/>
<path d="M333.804 224.009C333.216 223.318 332.53 222.726 331.746 222.331C330.765 221.937 329.687 221.739 328.707 221.739C327.433 221.739 326.158 221.937 325.08 222.529C324.002 223.121 323.022 223.91 322.237 224.897H322.139V222.331H317.238V242.163H322.433V232.395C322.433 231.606 322.531 230.915 322.63 230.126C322.728 229.337 323.022 228.646 323.414 227.955C323.708 227.363 324.198 226.771 324.786 226.377C325.374 225.982 326.158 225.686 326.942 225.785C327.531 225.785 328.217 225.883 328.805 226.179C329.295 226.574 329.687 227.067 329.883 227.659C330.079 228.251 330.177 228.843 330.275 229.534C330.275 230.126 330.275 230.817 330.275 231.409V241.966H335.372V229.435C335.372 228.35 335.274 227.363 334.98 226.377C334.784 225.587 334.392 224.798 333.804 224.009Z" fill="#002256"/>
<path d="M352.33 232.198C351.938 231.803 351.448 231.408 350.86 231.112C350.369 230.816 349.781 230.619 349.193 230.422C348.605 230.225 348.115 230.027 347.527 229.929C347.037 229.83 346.547 229.633 346.057 229.435C345.664 229.337 345.37 229.041 345.076 228.843C344.782 228.547 344.684 228.251 344.684 227.857C344.684 227.462 344.782 227.067 344.978 226.771C345.174 226.475 345.37 226.278 345.664 226.081C345.958 225.883 346.253 225.785 346.645 225.686C347.037 225.587 347.331 225.587 347.723 225.587C348.507 225.587 349.291 225.686 350.075 225.785C350.86 225.982 351.644 226.179 352.33 226.475L352.624 222.627C351.742 222.43 350.762 222.233 349.879 222.035C348.899 221.937 348.017 221.838 347.037 221.838C346.057 221.838 345.174 221.937 344.194 222.233C343.312 222.43 342.43 222.825 341.744 223.318C340.175 224.305 339.293 226.179 339.293 228.054C339.293 228.744 339.391 229.435 339.587 230.027C339.979 231.014 340.665 231.902 341.547 232.494C342.038 232.79 342.43 232.987 342.92 233.184C343.41 233.382 343.9 233.579 344.39 233.678C344.88 233.776 345.37 233.974 345.762 234.072C346.155 234.171 346.547 234.368 346.939 234.566C347.233 234.763 347.527 234.96 347.723 235.256C347.821 235.454 347.919 235.651 348.017 235.848C348.017 236.046 348.115 236.342 348.115 236.539C348.115 236.934 348.017 237.328 347.821 237.624C347.625 237.92 347.331 238.216 347.037 238.414C346.743 238.611 346.351 238.71 345.958 238.808C345.566 238.907 345.174 238.907 344.782 238.907C343.018 238.907 341.253 238.414 339.685 237.624L339.391 241.867C340.371 242.163 341.253 242.36 342.234 242.459C343.214 242.656 344.194 242.656 345.174 242.656C346.155 242.656 347.233 242.558 348.213 242.262C349.193 242.064 350.075 241.67 350.86 241.176C351.644 240.683 352.33 239.992 352.722 239.203C353.212 238.315 353.506 237.23 353.408 236.243C353.408 235.454 353.31 234.664 353.016 233.875C353.114 233.184 352.722 232.691 352.33 232.198Z" fill="#002256"/>
<path d="M370.662 232.001C370.662 232.79 370.564 233.481 370.466 234.27C370.368 235.059 370.074 235.75 369.779 236.441C369.485 237.033 368.995 237.625 368.407 238.019C367.721 238.414 366.937 238.71 366.153 238.611C365.564 238.611 364.878 238.414 364.388 238.118C363.898 237.723 363.506 237.23 363.31 236.638C363.114 236.145 363.016 235.75 363.016 235.257C363.016 234.763 363.016 234.27 362.918 233.777C362.918 233.579 362.918 233.481 362.918 233.283C362.918 233.086 362.918 232.987 362.918 232.79V222.233H357.723V234.763C357.723 235.75 357.821 236.835 358.115 237.822C358.311 238.71 358.801 239.598 359.291 240.289C359.879 240.979 360.565 241.571 361.35 241.966C362.33 242.36 363.31 242.558 364.388 242.558C365.662 242.558 366.839 242.262 368.015 241.769C369.093 241.177 370.074 240.387 370.858 239.401H370.956V242.065H375.857V222.233H370.76L370.662 232.001Z" fill="#002256"/>
<path d="M391.245 221.838C390.559 221.838 389.872 222.035 389.186 222.331C388.5 222.627 388.01 223.121 387.52 223.614C387.128 224.107 386.736 224.601 386.442 225.094C386.148 225.587 385.952 226.179 385.854 226.771H385.755V222.233H381.148V242.064H386.246V234.763C386.246 234.27 386.246 233.777 386.246 233.086C386.246 232.494 386.344 231.902 386.442 231.31C386.54 230.718 386.638 230.126 386.834 229.534C387.03 229.041 387.226 228.449 387.52 228.054C387.814 227.659 388.206 227.265 388.696 226.969C389.186 226.673 389.872 226.574 390.461 226.574C390.853 226.574 391.245 226.574 391.637 226.673C392.029 226.673 392.421 226.87 392.813 226.969V221.739C392.519 221.739 392.323 221.641 392.029 221.641C391.735 221.838 391.539 221.838 391.245 221.838Z" fill="#002256"/>
<path d="M412.222 229.929C412.222 227.166 411.536 225.094 410.065 223.811C408.693 222.43 406.635 221.838 403.89 221.838C402.714 221.838 401.439 221.937 400.263 222.233C399.087 222.529 397.911 222.825 396.832 223.318L397.028 227.758C397.911 227.067 398.891 226.574 399.871 226.179C400.949 225.785 402.027 225.587 403.106 225.587C403.792 225.587 404.478 225.686 405.066 225.785C405.556 225.883 406.046 226.179 406.439 226.475C406.831 226.87 407.125 227.265 407.223 227.857C407.419 228.547 407.517 229.238 407.517 229.83H406.242H404.968C404.086 229.83 403.204 229.83 402.322 229.929C401.439 230.027 400.557 230.126 399.773 230.323C398.989 230.52 398.205 230.816 397.518 231.31C396.832 231.704 396.146 232.296 395.656 232.987C395.264 233.48 395.068 234.072 394.872 234.763C394.676 235.355 394.676 236.046 394.676 236.638C394.676 237.526 394.872 238.414 395.264 239.104C395.656 239.795 396.146 240.486 396.832 240.979C397.518 241.472 398.205 241.867 399.087 242.163C399.871 242.459 400.753 242.558 401.635 242.558C402.224 242.558 402.812 242.459 403.498 242.36C404.086 242.163 404.674 241.966 405.164 241.67C405.654 241.374 406.144 240.979 406.635 240.584C407.125 240.19 407.419 239.696 407.811 239.104H407.909C407.909 239.598 407.909 240.091 408.007 240.584C408.105 241.078 408.105 241.571 408.203 242.064H412.712C412.614 239.992 412.516 238.019 412.418 236.046C412.32 234.072 412.222 232 412.222 229.929ZM407.615 233.086C407.615 233.776 407.517 234.566 407.321 235.256C407.125 235.947 406.831 236.539 406.439 237.131C406.046 237.624 405.556 238.118 404.968 238.414C404.282 238.71 403.596 238.907 402.812 238.907C402.42 238.907 402.027 238.907 401.635 238.808C401.243 238.71 400.949 238.611 400.557 238.414C400.263 238.216 399.969 237.92 399.773 237.624C399.577 237.328 399.479 236.934 399.479 236.44C399.479 235.848 399.577 235.256 399.969 234.862C400.263 234.467 400.655 234.072 401.145 233.776C401.635 233.48 402.126 233.283 402.714 233.184C403.302 233.086 403.792 232.987 404.38 232.987H407.517V233.086H407.615Z" fill="#002256"/>
<path d="M433.886 224.009C433.298 223.318 432.612 222.726 431.828 222.331C430.847 221.937 429.769 221.739 428.789 221.739C427.515 221.739 426.24 221.937 425.162 222.529C424.084 223.121 423.104 223.91 422.32 224.897H422.221V222.331H417.32V242.163H422.418V232.395C422.418 231.606 422.516 230.915 422.614 230.126C422.712 229.337 423.006 228.646 423.398 227.955C423.692 227.363 424.182 226.771 424.77 226.377C425.358 225.982 426.142 225.686 426.927 225.785C427.515 225.785 428.201 225.883 428.789 226.179C429.279 226.574 429.671 227.067 429.867 227.659C430.063 228.251 430.259 228.843 430.259 229.534C430.259 230.126 430.259 230.817 430.259 231.409V241.966H435.357V229.435C435.357 228.35 435.258 227.363 434.964 226.377C434.866 225.587 434.474 224.798 433.886 224.009Z" fill="#002256"/>
<path d="M451.431 238.315C450.745 238.512 450.058 238.611 449.47 238.611C448.686 238.611 447.804 238.414 447.118 238.118C446.432 237.822 445.844 237.328 445.451 236.638C444.961 236.046 444.667 235.355 444.471 234.566C444.275 233.776 444.177 232.987 444.177 232.099C444.177 231.31 444.275 230.52 444.471 229.731C444.667 229.041 444.961 228.35 445.451 227.758C446.334 226.475 447.902 225.785 449.372 225.785C449.96 225.785 450.549 225.785 451.137 225.883C451.725 225.982 452.313 226.179 452.803 226.475L453.195 222.43C452.411 222.134 451.529 222.035 450.745 221.937C449.862 221.838 449.078 221.838 448.196 221.838C446.824 221.838 445.451 222.035 444.177 222.627C443.001 223.121 442.021 223.811 441.138 224.798C440.256 225.785 439.668 226.87 439.276 228.054C438.786 229.336 438.59 230.718 438.59 232.198C438.59 233.579 438.786 235.059 439.276 236.342C439.668 237.526 440.354 238.71 441.138 239.696C442.021 240.683 443.001 241.374 444.177 241.867C445.549 242.36 446.922 242.656 448.392 242.656C449.274 242.656 450.156 242.656 450.941 242.558C451.823 242.459 452.607 242.262 453.489 242.064L453.293 237.723C452.803 237.92 452.117 238.118 451.431 238.315Z" fill="#002256"/>
<path d="M473.878 229.238C473.78 228.547 473.584 227.758 473.29 227.067C473.094 226.377 472.702 225.686 472.408 225.094C472.016 224.502 471.526 223.91 470.938 223.515C470.35 223.121 469.761 222.726 469.075 222.43C468.389 222.134 467.703 222.035 467.017 221.838C466.331 221.739 465.546 221.641 464.86 221.641C463.488 221.641 462.116 221.937 460.841 222.43C459.763 222.923 458.783 223.713 457.999 224.699C457.214 225.686 456.626 226.771 456.332 228.054C455.94 229.337 455.744 230.718 455.744 232.099C455.744 233.579 455.94 235.059 456.43 236.539C456.822 237.723 457.509 238.907 458.391 239.795C459.273 240.683 460.449 241.374 461.626 241.768C462.998 242.262 464.566 242.459 466.037 242.459C467.213 242.459 468.389 242.36 469.565 242.163C470.742 241.966 471.82 241.571 472.8 240.88V236.638C471.82 237.23 470.742 237.723 469.663 238.118C468.585 238.513 467.409 238.71 466.233 238.71C465.546 238.71 464.762 238.611 464.076 238.414C463.488 238.216 462.9 237.92 462.312 237.427C461.822 237.033 461.429 236.441 461.135 235.849C460.841 235.158 460.645 234.467 460.547 233.777H474.172V233.579C474.172 232.889 474.172 232.198 474.074 231.409C474.172 230.718 473.976 230.027 473.878 229.238ZM460.645 230.225C460.645 229.633 460.841 228.942 461.037 228.35C461.233 227.758 461.527 227.265 461.92 226.87C462.312 226.475 462.802 226.081 463.292 225.883C463.88 225.686 464.468 225.489 465.154 225.489C465.742 225.489 466.429 225.587 467.017 225.883C467.507 226.081 467.997 226.475 468.291 226.87C468.683 227.265 468.879 227.857 469.075 228.35C469.271 228.942 469.369 229.534 469.369 230.225H460.645Z" fill="#002256"/>
<path d="M20.0343 237.723C19.5442 237.822 19.0541 238.019 18.466 238.118C17.9759 238.217 17.3877 238.315 16.8976 238.315C16.4075 238.315 15.9174 238.414 15.4273 238.414C14.153 238.414 12.7807 238.217 11.6044 237.723C10.5261 237.23 9.54591 236.539 8.76173 235.75C7.97755 234.862 7.38941 233.875 6.99732 232.691C6.60523 231.507 6.31117 230.126 6.40919 228.843C6.40919 227.561 6.60523 226.278 6.99732 224.995C7.38941 223.811 7.97755 222.825 8.76173 221.937C9.54591 221.049 10.5261 220.358 11.6044 219.865C12.7807 219.371 14.055 219.075 15.4273 219.075C16.0154 219.075 16.5055 219.075 16.9956 219.174C17.4857 219.174 17.9759 219.273 18.368 219.371C18.8581 219.47 19.2501 219.667 19.7403 219.766C20.2304 219.963 20.7205 220.161 21.2106 220.457L21.6027 215.918C20.6225 215.622 19.6422 215.326 18.662 215.129C17.6818 214.931 16.6035 214.833 15.6233 214.833C13.9569 214.833 12.2905 215.03 10.6242 215.425C9.15382 215.721 7.68349 216.411 6.40919 217.201C5.1349 217.99 4.05664 219.075 3.27246 220.358C2.29223 221.739 1.7041 223.417 1.41003 225.094C1.21399 225.785 1.11597 226.475 1.01795 227.166C0.919928 227.857 0.919922 228.547 0.919922 229.337C0.919922 230.323 1.01794 231.211 1.11596 232.198C1.21399 233.086 1.50805 233.974 1.80212 234.862C2.09619 235.75 2.5863 236.539 3.07642 237.329C3.66455 238.118 4.25269 238.809 5.03687 239.401C5.82105 239.993 6.60524 240.585 7.38942 240.979C8.1736 241.374 9.0558 241.769 9.938 242.065C10.8202 242.361 11.7024 242.558 12.6826 242.657C13.6629 242.755 14.5451 242.854 15.5253 242.854C16.5055 242.854 17.5838 242.755 18.564 242.657C19.5442 242.558 20.6225 242.262 21.6027 242.065L21.4066 237.526C20.9165 237.427 20.5244 237.625 20.0343 237.723Z" fill="#002256"/>
<path d="M41.6968 224.699C40.8146 223.713 39.6383 223.022 38.4621 222.529C37.0897 222.035 35.6194 221.739 34.149 221.739C32.6787 221.739 31.2084 221.937 29.8361 222.529C28.6598 223.022 27.4835 223.713 26.6013 224.699C25.7191 225.686 24.9349 226.771 24.5428 228.054C24.0527 229.435 23.7586 230.915 23.8567 232.297C23.8567 233.777 24.0527 235.158 24.6409 236.44C25.131 237.624 25.8171 238.71 26.7974 239.696C27.7776 240.584 28.8558 241.275 30.0321 241.768C31.4044 242.262 32.7767 242.558 34.2471 242.558C35.7174 242.558 37.0897 242.36 38.4621 241.867C39.6383 241.374 40.8146 240.683 41.6968 239.795C42.579 238.907 43.3632 237.822 43.8533 236.539C44.3434 235.158 44.6375 233.777 44.6375 232.297C44.6375 230.817 44.4414 229.337 43.9513 228.054C43.3632 226.771 42.579 225.686 41.6968 224.699ZM38.9522 234.171C38.8541 234.96 38.5601 235.651 38.168 236.342C37.7759 237.032 37.2858 237.526 36.6976 237.92C35.9135 238.315 35.1293 238.611 34.2471 238.512C33.855 238.512 33.4629 238.512 32.9728 238.414C32.5807 238.315 32.1886 238.118 31.7965 237.92C31.4044 237.624 31.0123 237.328 30.6202 236.934C30.3262 236.539 30.1301 236.144 29.9341 235.75C29.738 235.355 29.64 234.862 29.542 234.369C29.444 233.875 29.3459 233.382 29.2479 232.889C29.2479 232.691 29.2479 232.494 29.1499 232.297C29.1499 232.099 29.1499 231.902 29.1499 231.705C29.1499 230.915 29.2479 230.225 29.444 229.534C29.64 228.843 29.9341 228.251 30.3262 227.659C30.7183 227.067 31.3064 226.673 31.8945 226.278C32.5807 225.883 33.2669 225.785 34.051 225.785C34.8352 225.785 35.6194 225.883 36.3056 226.278C36.8937 226.574 37.4818 227.067 37.8739 227.561C38.266 228.153 38.5601 228.745 38.7561 229.435C38.9522 230.126 39.0502 230.915 39.0502 231.705C39.1482 232.593 39.0502 233.382 38.9522 234.171Z" fill="#002256"/>
<path d="M60.7124 232.001C60.7124 232.79 60.6144 233.481 60.5164 234.27C60.4184 235.059 60.1243 235.75 59.8302 236.441C59.5362 237.033 59.046 237.625 58.4579 238.019C57.7717 238.414 56.9876 238.71 56.2034 238.611C55.6152 238.611 54.9291 238.414 54.439 238.118C53.9489 237.723 53.5568 237.23 53.3607 236.638C53.1647 236.145 53.0667 235.75 53.0667 235.257C53.0667 234.763 53.0667 234.27 52.9686 233.777C52.9686 233.579 52.9686 233.481 52.9686 233.283C52.9686 233.086 52.9686 232.987 52.9686 232.79V222.233H47.7734V234.763C47.7734 235.75 47.8715 236.835 48.1655 237.822C48.3616 238.71 48.8517 239.598 49.3418 240.289C49.9299 240.979 50.6161 241.571 51.4003 241.966C52.3805 242.36 53.3607 242.558 54.439 242.558C56.9876 242.558 59.3401 241.374 60.9085 239.401H61.0065V242.065H65.9076V222.233H60.8104L60.7124 232.001Z" fill="#002256"/>
<path d="M87.767 224.009C87.1789 223.318 86.4927 222.726 85.7085 222.331C84.7283 221.937 83.65 221.739 82.6698 221.739C81.3955 221.739 80.1212 221.937 79.043 222.529C77.9647 223.121 76.9845 223.91 76.2003 224.897H76.1023V222.331H71.2012V242.163H76.3964V232.395C76.3964 231.606 76.4944 230.915 76.5924 230.126C76.6904 229.337 76.9845 228.646 77.3766 227.955C77.6707 227.363 78.1608 226.771 78.7489 226.377C79.337 225.982 80.1212 225.686 80.9054 225.785C81.4936 225.785 82.1797 225.883 82.7678 226.179C83.258 226.574 83.6501 227.067 83.8461 227.659C84.0421 228.251 84.2382 228.843 84.2382 229.534C84.2382 230.126 84.2382 230.817 84.2382 231.409V241.966H89.3354V229.435C89.3354 228.35 89.2373 227.363 88.9433 226.377C88.7472 225.587 88.3551 224.798 87.767 224.009Z" fill="#002256"/>
<path d="M105.314 238.315C104.627 238.512 103.941 238.611 103.353 238.611C102.569 238.611 101.687 238.414 101.001 238.118C100.314 237.723 99.7263 237.328 99.3342 236.638C98.8441 236.046 98.5501 235.355 98.354 234.566C98.158 233.776 98.06 232.987 98.06 232.099C98.06 231.31 98.158 230.52 98.354 229.731C98.5501 229.04 98.8441 228.35 99.3342 227.758C99.7263 227.166 100.314 226.672 101.001 226.376C101.687 225.982 102.471 225.883 103.255 225.883C103.843 225.883 104.431 225.883 105.02 225.982C105.608 226.08 106.196 226.278 106.686 226.574L107.176 222.529C106.392 222.233 105.51 222.134 104.725 222.035C103.843 221.937 103.059 221.937 102.177 221.937C100.805 221.937 99.4323 222.134 98.06 222.726C96.8837 223.219 95.9035 223.91 95.0212 224.897C94.139 225.883 93.5509 226.968 93.1588 228.152C92.6687 229.435 92.4727 230.816 92.4727 232.296C92.4727 233.678 92.6687 235.158 93.1588 236.44C93.5509 237.624 94.2371 238.808 95.0212 239.795C95.9035 240.782 96.8837 241.472 98.06 241.966C99.4323 242.459 100.805 242.755 102.275 242.755C103.157 242.755 104.039 242.755 104.824 242.656C105.706 242.558 106.49 242.36 107.372 242.163L107.176 237.822C106.588 237.92 106 238.118 105.314 238.315Z" fill="#002256"/>
<path d="M116.193 222.233H110.998V242.065H116.193V222.233Z" fill="#002256"/>
<path d="M126.781 213.254H121.586V242.163H126.781V213.254Z" fill="#002256"/>
<path d="M113.547 218.878C114.954 218.878 116.095 217.729 116.095 216.313C116.095 214.896 114.954 213.747 113.547 213.747C112.139 213.747 110.998 214.896 110.998 216.313C110.998 217.729 112.139 218.878 113.547 218.878Z" fill="#002256"/>
<path d="M147.855 221.937C142.071 221.937 137.66 225.883 137.66 232.296C137.66 237.92 141.385 242.36 147.855 242.36C154.324 242.36 158.049 237.92 158.049 232.296C158.049 225.883 153.638 221.937 147.855 221.937ZM147.855 238.512C144.032 238.512 142.953 234.96 142.953 231.803C142.953 228.843 144.522 225.982 147.855 225.982C151.187 225.982 152.756 228.744 152.756 231.803C152.756 234.96 151.775 238.512 147.855 238.512Z" fill="#002256"/>
<path d="M164.03 219.667V222.43H160.305V226.179H164.03V242.064H169.127V226.179H173.538V222.43H169.029V219.963C169.029 218.483 169.519 217.003 171.283 217.003C172.067 217.003 172.852 217.201 173.44 217.694L173.832 213.451C172.656 213.155 171.381 213.057 170.107 213.057C166.186 213.057 164.03 215.721 164.03 219.667Z" fill="#002256"/>
<path d="M10.8203 207.433C11.8005 207.827 12.8788 207.63 13.5649 206.939C13.761 206.742 13.957 206.446 14.0551 206.15C14.1531 205.854 14.2511 205.558 14.2511 205.163C14.2511 204.867 14.1531 204.473 14.0551 204.177C13.761 203.585 13.2709 203.091 12.6827 202.795C12.0946 202.499 11.4085 202.499 10.7223 202.795C10.4282 202.894 10.1342 203.091 9.93811 203.289C9.74206 203.486 9.54602 203.782 9.448 204.078C9.34997 204.374 9.25195 204.67 9.25195 205.065C9.25195 205.361 9.34997 205.755 9.448 206.051C9.54602 206.347 9.74206 206.643 9.93811 206.841C10.2322 207.038 10.5263 207.235 10.8203 207.433Z" fill="#002256"/>
<path d="M16.7008 207.433C16.9949 207.531 17.387 207.63 17.681 207.63C17.9751 207.63 18.3672 207.531 18.6613 207.433C19.2494 207.137 19.7395 206.643 20.0336 206.051C20.1316 205.755 20.2296 205.459 20.2296 205.065C20.2296 204.769 20.1316 204.374 20.0336 204.078C19.9355 203.782 19.7395 203.486 19.5435 203.289C19.3474 203.091 19.0533 202.894 18.7593 202.795C18.4652 202.697 18.0731 202.598 17.779 202.598C17.485 202.598 17.0929 202.697 16.7988 202.795C16.2107 203.091 15.7206 203.585 15.4265 204.177C15.3285 204.473 15.2305 204.769 15.2305 205.163C15.2305 205.459 15.3285 205.854 15.4265 206.15C15.5245 206.446 15.7206 206.742 15.9166 206.939C16.1127 207.038 16.4067 207.235 16.7008 207.433Z" fill="#002256"/>
<path d="M131.681 187.071H120.016V184.012C120.016 182.631 119.82 181.249 119.526 179.967C119.232 178.783 118.644 177.697 117.958 176.711C117.272 175.823 116.291 175.033 115.213 174.54C113.939 173.948 112.665 173.751 111.292 173.751C110.018 173.751 108.744 173.948 107.567 174.343C106.391 174.737 105.313 175.329 104.333 176.02C103.352 176.711 102.47 177.5 101.588 178.487C100.804 179.375 100.02 180.361 99.3335 181.348C98.7454 182.236 98.1572 183.223 97.6671 184.308C97.177 185.196 96.7849 186.084 96.4909 186.972C95.7067 186.972 94.9225 186.873 94.1383 186.676C93.3541 186.577 92.57 186.281 91.8838 185.788C91.8838 185.393 91.9818 185.097 91.9818 184.703V178.98H86.9827V184.012C86.9827 184.505 86.9827 184.9 86.8846 185.393C86.7866 185.689 86.6886 185.985 86.4926 186.281C86.2965 186.479 86.0024 186.676 85.7084 186.775C85.3163 186.873 85.0222 186.873 84.6301 186.873H77.3765C77.0824 186.873 76.7883 186.676 76.5923 186.38C76.2982 185.985 76.2002 185.492 76.0041 184.999C75.8081 184.308 75.7101 183.716 75.612 183.025C75.514 182.335 75.318 181.545 75.22 180.756C75.1219 179.868 74.8279 178.881 74.4358 178.092C74.0437 177.303 73.5536 176.612 72.9654 176.02C72.2793 175.428 71.5931 174.935 70.7109 174.639C69.7307 174.244 68.7505 174.145 67.6722 174.145C66.594 174.145 65.6137 174.244 64.6335 174.441C63.7513 174.639 62.7711 174.836 61.8889 175.132V179.177C62.281 178.98 62.7711 178.881 63.1632 178.684C63.6533 178.585 64.0454 178.487 64.5355 178.388C65.0256 178.289 65.4177 178.289 65.8098 178.191C66.2019 178.191 66.4959 178.092 66.79 178.092C67.4762 178.092 68.1623 178.289 68.7505 178.684C69.2406 179.079 69.6327 179.572 69.9267 180.065C70.2208 180.657 70.5149 181.348 70.6129 182.039C70.8089 182.729 70.907 183.519 71.005 184.209C71.103 184.703 71.201 185.196 71.3971 185.689C71.4951 186.084 71.6911 186.479 71.8872 186.873H39.4417C39.1476 186.873 38.8536 186.873 38.5595 186.775C38.3635 186.676 38.0694 186.577 37.9714 186.281C37.7753 185.985 37.6773 185.591 37.6773 185.295C37.5793 184.703 37.5793 184.111 37.5793 183.519V175.033H31.5999C28.5612 175.033 26.4047 175.724 24.9344 177.105C23.464 178.487 22.7779 180.559 22.7779 183.321V189.932C22.7779 190.623 22.5818 191.313 22.2878 191.905C21.8957 192.596 21.4055 193.188 20.7194 193.583C19.9352 194.076 19.151 194.569 18.2688 194.767C17.1906 195.063 16.1123 195.26 15.0341 195.26C13.9558 195.26 12.8776 195.161 11.7993 194.964C11.0152 194.767 10.1329 194.471 9.44678 194.076C8.85865 193.78 8.27052 193.385 7.7804 192.793C7.38831 192.399 7.09424 191.905 6.80018 191.313C6.60413 190.82 6.40809 190.327 6.31006 189.833C6.21204 189.34 6.21203 188.945 6.21203 188.452C6.21203 187.959 6.21204 187.465 6.31006 186.972C6.40809 186.479 6.5061 185.985 6.70215 185.492C6.80017 184.999 6.99622 184.505 7.29029 184.111C7.48633 183.716 7.68238 183.321 7.97644 182.927L3.95753 180.756C3.56544 181.249 3.17334 181.841 2.87927 182.433C2.48718 183.124 2.19312 183.716 1.99707 184.407C1.70301 185.097 1.50696 185.887 1.40893 186.577C1.31091 187.268 1.21289 188.057 1.21289 188.847C1.21289 189.537 1.31091 190.228 1.40893 190.82C1.60498 191.609 1.89904 192.399 2.29113 193.188C2.68322 194.076 3.27136 194.865 3.8595 195.556C4.64368 196.345 5.42787 197.036 6.40809 197.628C7.58436 198.318 8.76062 198.812 10.1329 199.108C11.7993 199.502 13.4657 199.7 15.1321 199.7C16.9945 199.7 18.7589 199.404 20.5233 198.812C21.9937 198.318 23.366 197.529 24.5423 196.543C25.6205 195.655 26.4047 194.569 27.0909 193.287C27.679 192.103 27.9731 190.82 27.9731 189.537V183.716C27.9731 182.927 28.0711 182.137 28.2671 181.348C28.4632 180.855 28.7572 180.361 29.1493 179.967C29.5414 179.572 30.1296 179.375 30.6197 179.276C31.3058 179.177 31.992 179.079 32.5801 179.079V184.9C32.5801 185.887 32.6781 186.775 33.0702 187.761C33.3643 188.452 33.8544 189.143 34.4425 189.636C35.0307 190.129 35.6188 190.524 36.305 190.721C36.9911 190.919 37.6773 191.017 38.4615 191.017H86.5906C87.5708 191.017 88.453 190.82 89.3352 190.425C90.0214 190.129 90.6095 189.636 91.0996 188.945C92.0798 189.735 93.1581 190.228 94.3344 190.524C95.8047 190.82 97.3731 191.017 98.8434 191.017H137.072V162.996H131.975V187.071H131.681ZM115.017 187.071H101.392C101.784 185.887 102.372 184.703 103.058 183.617C103.647 182.631 104.431 181.644 105.215 180.756C105.901 179.967 106.783 179.276 107.763 178.783C108.548 178.289 109.43 178.092 110.41 178.092C110.998 178.092 111.684 178.191 112.174 178.388C112.763 178.585 113.253 178.98 113.645 179.473C114.135 180.065 114.429 180.756 114.625 181.447C114.919 182.433 115.017 183.42 115.017 184.505V187.071V187.071Z" fill="#002256"/>
<path d="M146.776 163.292H141.777V191.313H146.776V163.292Z" fill="#002256"/>
<path d="M170.89 174.577C171.086 174.774 171.38 174.972 171.674 175.07C172.262 175.366 172.948 175.366 173.635 175.07C174.223 174.774 174.713 174.38 175.007 173.689C175.301 173.097 175.301 172.406 175.007 171.716C174.909 171.42 174.713 171.124 174.517 170.926C174.321 170.729 174.027 170.532 173.733 170.433C173.145 170.137 172.458 170.137 171.772 170.433C171.478 170.532 171.184 170.729 170.988 170.926C170.792 171.124 170.596 171.42 170.498 171.716C170.204 172.308 170.204 172.998 170.498 173.689C170.498 174.084 170.596 174.38 170.89 174.577Z" fill="#002256"/>
<path d="M184.614 185.825C184.516 185.134 184.418 184.345 184.222 183.654C184.026 182.865 183.83 182.174 183.634 181.484C183.438 180.793 183.242 180.102 183.046 179.609L178.144 180.99C178.438 181.582 178.635 182.174 178.831 182.865C179.027 183.556 179.223 184.148 179.321 184.74C179.419 185.332 179.517 185.924 179.615 186.516C179.713 187.009 179.713 187.404 179.713 187.897C179.713 190.462 179.125 192.435 177.948 193.817C176.772 195.198 174.91 195.889 172.459 195.889C171.479 195.889 170.499 195.691 169.616 195.395C168.832 195.099 168.048 194.606 167.46 193.915C166.872 193.323 166.382 192.534 166.088 191.745C165.794 190.857 165.598 189.969 165.598 188.982C165.598 188.489 165.598 187.995 165.696 187.502C165.794 187.009 165.892 186.516 165.99 186.022C166.088 185.529 166.284 185.134 166.382 184.641C166.578 184.246 166.774 183.852 166.97 183.457L162.951 181.188C162.559 181.78 162.265 182.47 161.971 183.062C161.677 183.753 161.383 184.444 161.187 185.134C160.99 185.825 160.794 186.614 160.598 187.305C160.5 187.995 160.402 188.686 160.402 189.377C160.402 190.758 160.598 192.139 161.088 193.521C161.579 194.803 162.363 195.987 163.343 196.974C164.421 198.059 165.696 198.849 167.166 199.342C168.93 199.934 170.793 200.23 172.655 200.23C174.42 200.23 176.184 199.934 177.85 199.342C179.321 198.75 180.595 197.862 181.673 196.777C182.751 195.691 183.536 194.31 184.124 192.83C184.712 191.251 185.006 189.574 184.908 187.897C184.81 187.206 184.712 186.516 184.614 185.825Z" fill="#002256"/>
<path d="M274.892 170.137C275.088 170.334 275.382 170.532 275.676 170.63C275.971 170.729 276.363 170.828 276.657 170.828C276.951 170.828 277.343 170.729 277.637 170.63C278.225 170.334 278.715 169.841 279.009 169.249C279.303 168.657 279.303 167.966 279.009 167.276C278.715 166.684 278.225 166.19 277.637 165.894C277.343 165.796 276.951 165.697 276.657 165.697C276.363 165.697 275.971 165.796 275.676 165.894C275.382 165.993 275.088 166.19 274.892 166.388C274.696 166.585 274.5 166.881 274.402 167.177C274.108 167.769 274.108 168.46 274.402 169.15C274.5 169.644 274.696 169.94 274.892 170.137Z" fill="#002256"/>
<path d="M309.592 163.292H304.495V187.07H290.772V184.012C290.772 182.631 290.576 181.249 290.282 179.967C289.988 178.783 289.4 177.697 288.714 176.711C288.027 175.823 287.047 175.033 285.969 174.54C284.695 173.948 283.42 173.751 282.048 173.751C280.774 173.751 279.5 173.948 278.323 174.343C277.147 174.737 276.069 175.329 275.089 176.02C274.108 176.711 273.226 177.5 272.344 178.487C271.56 179.375 270.776 180.361 270.089 181.348C269.501 182.236 268.913 183.223 268.423 184.308C267.933 185.196 267.541 186.084 267.247 186.972C266.463 186.972 265.678 186.873 264.894 186.676C264.11 186.577 263.326 186.281 262.64 185.788C262.64 185.393 262.738 185.097 262.738 184.703V178.98H257.739V184.012C257.739 184.505 257.738 184.9 257.64 185.393C257.542 185.689 257.444 185.985 257.248 186.281C257.052 186.478 256.758 186.676 256.464 186.774C256.072 186.873 255.778 186.873 255.386 186.873H223.529C222.058 186.873 220.49 186.577 219.118 185.985L218.627 185.788C218.726 185.393 218.824 185.097 218.824 184.703C218.922 184.308 218.922 183.913 218.922 183.519C218.922 182.828 218.824 182.236 218.726 181.545C218.627 180.855 218.333 180.164 218.039 179.572C217.745 178.881 217.353 178.289 216.863 177.697C216.373 177.105 215.883 176.612 215.197 176.217C214.511 175.724 213.824 175.428 213.04 175.231C212.158 174.935 211.276 174.836 210.394 174.836C209.609 174.836 208.825 174.935 208.139 175.231C207.159 175.527 206.375 176.02 205.59 176.612C204.61 177.5 203.728 178.487 203.042 179.671C202.062 181.348 201.376 183.025 200.885 184.9C200.591 186.182 199.513 186.972 198.239 186.972H196.474C196.082 186.972 195.788 186.972 195.494 186.873C195.2 186.774 195.004 186.577 194.808 186.38C194.612 186.084 194.416 185.689 194.416 185.393C194.318 184.9 194.22 184.308 194.22 183.815V163.292H189.221V184.801C189.221 185.689 189.319 186.577 189.613 187.465C189.809 188.254 190.201 188.945 190.691 189.438C191.181 190.03 191.867 190.524 192.553 190.82C193.436 191.116 194.416 191.313 195.298 191.313H198.925C200.885 191.412 202.846 190.524 203.924 188.846C204.316 189.142 204.708 189.438 205.1 189.833C205.59 190.129 206.081 190.425 206.571 190.721C207.159 191.017 207.845 191.214 208.531 191.313C209.315 191.51 210.198 191.51 210.982 191.51C212.158 191.51 213.334 191.313 214.511 190.82C215.491 190.425 216.373 189.734 217.059 189.044C217.059 189.044 219.314 191.313 221.666 191.313H257.15C258.131 191.313 259.013 191.116 259.895 190.721C260.581 190.425 261.169 189.932 261.659 189.241C262.64 190.03 263.718 190.524 264.894 190.82C266.364 191.116 267.933 191.313 269.403 191.313H309.69L309.592 163.292ZM213.824 185.393C213.628 185.886 213.334 186.281 212.942 186.577C212.55 186.873 212.06 187.07 211.57 187.169C210.59 187.465 209.511 187.465 208.531 187.268C208.041 187.169 207.649 187.07 207.159 186.873C206.767 186.774 206.375 186.577 205.983 186.38C205.689 186.281 205.394 186.084 205.198 185.886C205.394 184.999 205.59 184.209 205.885 183.42C206.179 182.631 206.571 181.94 206.963 181.249C207.355 180.657 207.845 180.164 208.335 179.769C208.825 179.375 209.413 179.177 210.1 179.177C210.688 179.177 211.276 179.375 211.864 179.671C212.354 179.967 212.746 180.361 213.138 180.855C213.432 181.348 213.726 181.841 213.922 182.335C214.118 182.828 214.118 183.321 214.216 183.815C214.216 184.209 214.118 184.801 213.824 185.393ZM285.773 187.07H272.148C272.54 185.886 273.128 184.703 273.814 183.617C274.402 182.631 275.187 181.644 275.971 180.756C276.755 179.967 277.539 179.276 278.519 178.783C279.303 178.289 280.186 178.092 281.166 178.092C281.754 178.092 282.342 178.191 282.93 178.388C283.518 178.585 284.009 178.98 284.401 179.473C284.891 180.065 285.185 180.756 285.381 181.447C285.675 182.433 285.773 183.42 285.773 184.505V187.07Z" fill="#002256"/>
<path d="M319.591 163.724H314.592V191.745H319.591V163.724Z" fill="#002256"/>
<path d="M439.865 198.355C439.963 198.059 440.061 197.763 440.061 197.369C440.061 197.073 439.963 196.678 439.865 196.382C439.767 196.086 439.571 195.79 439.375 195.593C439.179 195.395 438.885 195.198 438.591 195.099C438.003 194.803 437.219 194.803 436.63 195.099C436.336 195.198 436.042 195.395 435.846 195.593C435.65 195.79 435.454 196.086 435.356 196.382C435.258 196.678 435.16 196.974 435.16 197.369C435.16 197.665 435.258 198.059 435.356 198.355C435.65 198.947 436.14 199.441 436.728 199.737C437.317 200.033 438.101 200.033 438.689 199.737C439.179 199.441 439.669 198.947 439.865 198.355Z" fill="#002256"/>
<path d="M459.47 189.278C459.862 189.574 460.254 189.87 460.646 190.265C461.136 190.561 461.626 190.857 462.116 191.153C462.705 191.449 463.391 191.646 464.077 191.745C464.861 191.942 465.743 191.942 466.528 191.942C467.704 191.942 468.88 191.745 469.958 191.252C471.821 190.462 473.291 188.884 473.977 187.009C474.369 186.121 474.467 185.036 474.467 184.049C474.467 183.358 474.369 182.766 474.271 182.076C473.977 180.694 473.291 179.412 472.409 178.228C471.919 177.636 471.429 177.142 470.742 176.748C470.056 176.254 469.37 175.958 468.586 175.761C467.704 175.465 466.822 175.366 465.939 175.366C465.155 175.366 464.371 175.465 463.685 175.761C462.705 176.057 461.92 176.55 461.136 177.142C460.156 178.03 459.274 179.017 458.588 180.201C457.607 181.78 456.921 183.556 456.431 185.332C456.235 185.924 455.941 186.516 455.353 186.91C454.863 187.206 449.864 187.404 449.178 187.404H446.531C446.237 187.404 445.845 187.206 445.747 186.91C445.453 186.516 445.355 186.022 445.159 185.529C444.963 184.838 444.865 184.246 444.766 183.556C444.668 182.865 444.57 182.076 444.374 181.286C444.276 180.398 443.982 179.412 443.59 178.622C443.198 177.833 442.708 177.142 442.12 176.55C441.434 175.958 440.748 175.465 439.865 175.169C438.885 174.774 437.905 174.676 436.925 174.676C435.846 174.676 434.866 174.774 433.886 174.972C433.004 175.169 432.024 175.366 431.141 175.662V179.708C431.533 179.51 431.926 179.412 432.416 179.214C432.906 179.116 433.298 179.017 433.788 178.918C434.278 178.82 434.67 178.82 435.062 178.721C435.454 178.622 435.748 178.622 436.043 178.622C436.729 178.622 437.415 178.82 438.003 179.214C438.493 179.609 438.885 180.102 439.179 180.596C439.473 181.188 439.669 181.878 439.865 182.569C440.061 183.26 440.159 184.049 440.257 184.74C440.355 185.233 440.453 185.726 440.65 186.22C440.748 186.614 440.944 187.009 441.14 187.404H398.01C397.226 187.404 396.441 187.305 395.755 187.206C395.069 187.108 394.383 186.91 393.697 186.614C393.697 186.417 393.697 186.121 393.795 185.924C393.795 185.726 393.795 185.43 393.795 185.233V163.526H388.796V184.542C388.796 185.036 388.796 185.43 388.698 185.924C388.6 186.22 388.502 186.516 388.306 186.812C388.109 187.009 387.815 187.206 387.521 187.305C387.129 187.404 386.835 187.404 386.443 187.404H384.189C383.404 187.404 382.62 187.305 381.934 187.206C381.248 187.108 380.562 186.91 379.876 186.614C379.876 186.417 379.876 186.121 379.974 185.924C379.974 185.726 379.974 185.43 379.974 185.233V175.662H374.974V184.542C374.974 185.036 374.974 185.43 374.876 185.924C374.778 186.22 374.68 186.516 374.484 186.812C374.288 187.009 373.994 187.206 373.7 187.305C373.308 187.404 373.014 187.404 372.622 187.404C371.936 187.404 371.25 187.305 370.661 187.108C369.975 186.91 369.191 186.614 368.603 186.22C368.603 186.022 368.603 185.924 368.603 185.726C368.603 185.529 368.603 185.43 368.603 185.233V177.833H363.506V184.641C363.506 185.134 363.506 185.529 363.408 186.022C363.31 186.318 363.212 186.614 363.016 186.91C362.82 187.108 362.526 187.305 362.231 187.404C361.839 187.502 361.545 187.502 361.153 187.502C359.879 187.502 358.605 187.108 357.526 186.516C357.428 185.924 357.33 185.332 357.232 184.74C357.134 184.148 356.938 183.556 356.84 182.865C356.644 182.273 356.546 181.681 356.35 181.089C356.154 180.497 356.056 180.004 355.86 179.51L350.959 180.892C351.253 181.484 351.449 182.076 351.645 182.766C351.841 183.457 352.037 184.049 352.135 184.641C352.233 185.233 352.331 185.825 352.429 186.417C352.527 186.91 352.527 187.305 352.527 187.798C352.527 190.364 351.939 192.337 350.763 193.718C349.587 195.099 347.724 195.79 345.274 195.79C344.293 195.79 343.313 195.593 342.431 195.297C341.647 195.001 340.863 194.507 340.274 193.817C339.686 193.225 339.196 192.435 338.902 191.646C338.608 190.758 338.412 189.87 338.412 188.884C338.412 188.39 338.412 187.897 338.51 187.404C338.608 186.91 338.706 186.417 338.804 185.924C338.902 185.43 339.098 185.036 339.196 184.542C339.392 184.148 339.588 183.753 339.784 183.358L335.765 181.089C335.373 181.681 335.079 182.372 334.785 182.964C334.491 183.654 334.197 184.345 334.001 185.036C333.805 185.726 333.609 186.516 333.413 187.206C333.315 187.897 333.217 188.588 333.217 189.278C333.217 190.66 333.413 192.041 333.903 193.422C334.393 194.705 335.177 195.889 336.157 196.875C337.236 197.961 338.51 198.75 339.98 199.243C341.745 199.835 343.607 200.131 345.47 200.131C347.038 200.131 348.508 199.934 349.979 199.441C351.253 199.046 352.527 198.355 353.507 197.467C354.488 196.579 355.37 195.593 356.056 194.409C356.742 193.225 357.232 191.844 357.428 190.561C358.115 190.857 358.801 191.153 359.585 191.35C360.369 191.548 361.251 191.646 362.133 191.646H363.016C363.996 191.646 364.878 191.449 365.76 191.153C366.446 190.857 367.035 190.364 367.525 189.673C368.309 190.265 369.289 190.758 370.171 191.054C371.25 191.449 372.426 191.646 373.602 191.646H374.484C375.367 191.646 376.151 191.548 376.935 191.252C377.621 190.956 378.111 190.561 378.601 190.068C379.385 190.561 380.17 190.956 381.052 191.252C382.13 191.548 383.208 191.745 384.385 191.646H388.404C389.286 191.646 390.07 191.548 390.854 191.252C391.148 191.153 391.344 191.054 391.54 190.857C391.834 190.66 392.226 190.364 392.422 190.068C393.207 190.561 393.991 190.956 394.873 191.252C395.951 191.548 397.128 191.745 398.206 191.646H454.667C456.529 191.843 458.392 190.956 459.47 189.278ZM461.724 183.753C462.018 182.964 462.313 182.273 462.803 181.582C463.195 180.99 463.685 180.497 464.175 180.102C464.665 179.708 465.253 179.51 465.939 179.51C466.528 179.51 467.116 179.708 467.704 180.004C468.194 180.3 468.586 180.694 468.978 181.188C469.272 181.681 469.566 182.174 469.762 182.668C469.958 183.161 469.958 183.654 470.056 184.148C470.056 184.74 469.958 185.332 469.762 185.825C469.566 186.318 469.272 186.713 468.88 187.009C468.488 187.305 467.998 187.502 467.508 187.601C466.528 187.897 465.449 187.897 464.469 187.7C463.979 187.601 463.587 187.502 463.097 187.305C462.705 187.206 462.313 187.009 461.92 186.812C461.626 186.713 461.332 186.516 461.136 186.318C461.136 185.43 461.43 184.542 461.724 183.753Z" fill="#002256"/>
<path d="M443.099 48.9383H352.134C334.686 48.9383 320.571 63.1462 320.571 80.7087C320.571 80.7087 320.571 88.898 320.571 89.3913H305.28C304.888 73.8021 292.243 61.2715 276.657 61.2715H272.05V84.458C271.756 87.3193 269.403 89.49 266.561 89.49H254.602C253.034 63.6395 230.979 43.9063 205.297 45.485C181.771 46.8663 162.951 65.8102 161.481 89.49H148.934C146.483 89.49 145.699 88.898 145.503 88.7007C145.503 88.7007 144.719 87.9114 144.719 84.3594V29.2051C144.719 13.0239 131.682 0 115.606 0H111.293V92.9433C111.293 101.725 113.253 108.335 117.076 112.676C121.095 117.215 127.467 119.583 136.093 119.583H154.619C155.795 119.583 156.971 119.583 158.148 119.386C158.54 119.386 158.932 119.287 159.52 119.287C162.069 119.09 164.617 118.596 167.068 117.708C167.558 117.511 167.95 117.412 168.44 117.215C182.065 139.02 210.59 145.73 232.449 132.311L233.037 131.916C233.233 131.818 233.429 131.62 233.723 131.522C239.507 127.871 244.506 122.938 248.133 117.116C248.623 117.314 249.015 117.511 249.505 117.61C251.367 118.202 253.328 118.695 255.19 118.991C255.974 119.09 256.857 119.188 257.641 119.287C259.601 119.484 261.562 119.484 263.424 119.583H264.012H270.384C274.01 119.583 277.735 119.484 281.362 119.09C284.107 118.892 286.753 118.103 289.106 116.722C291.458 118.103 294.105 118.892 296.85 119.09C300.183 119.386 304.103 119.583 308.71 119.583H438.786H442.903C460.351 119.583 474.467 105.375 474.467 87.9113V80.8074C474.663 63.1462 460.547 48.9383 443.099 48.9383ZM228.234 93.634C227.548 104.783 217.942 113.268 206.767 112.479C195.592 111.69 187.26 102.119 187.947 90.97C188.633 80.8074 196.671 72.7168 206.767 72.1248C217.942 71.4341 227.45 79.9194 228.136 91.1673C228.234 91.9566 228.234 92.8446 228.234 93.634ZM439.571 92.8446H356.055C351.252 92.9433 347.331 89.194 347.233 84.458C347.135 79.7221 350.86 75.6768 355.663 75.5781C355.859 75.5781 355.957 75.5781 356.153 75.5781H439.571C444.374 75.6768 448.099 79.7221 448.001 84.458C447.805 89.0953 444.178 92.746 439.571 92.8446Z" fill="url(#paint1_linear)"/>
<path d="M50.7141 37.9863C57.9678 38.4796 64.2413 32.9543 64.7314 25.653C65.2215 18.3518 59.7322 12.0371 52.3805 11.5438C45.1268 11.0505 38.8534 16.5758 38.3633 23.8771C38.3633 24.4691 38.3633 25.061 38.3633 25.653C38.8534 32.2637 44.0486 37.5916 50.7141 37.9863Z" fill="url(#paint2_linear)"/>
<path d="M73.0641 49.1357H68.7511V88.2074C68.7511 97.8767 61.0073 105.671 51.303 105.671C51.205 105.671 51.107 105.671 51.009 105.671C41.5988 105.573 33.855 97.5807 33.855 87.9114V78.4395C33.855 62.2583 20.818 49.2344 4.84033 49.2344H0.527344V87.8128C0.527344 116.031 23.1706 139.119 50.911 139.316H51.205C79.2395 139.316 101.883 116.525 101.883 88.3061V78.4395C102.177 62.1596 89.1398 49.1357 73.0641 49.1357Z" fill="url(#paint3_linear)"/>
<defs>
<linearGradient id="paint0_linear" x1="-2.7059" y1="25.2276" x2="473.758" y2="25.2276" gradientUnits="userSpaceOnUse">
<stop offset="0.01" stop-color="#0067B1"/>
<stop offset="0.17" stop-color="#056DB1"/>
<stop offset="0.39" stop-color="#157FB1"/>
<stop offset="0.65" stop-color="#2D9DB1"/>
<stop offset="0.9" stop-color="#4BC0B1"/>
</linearGradient>
<linearGradient id="paint1_linear" x1="-2.70514" y1="69.5968" x2="473.759" y2="69.5968" gradientUnits="userSpaceOnUse">
<stop offset="0.01" stop-color="#0067B1"/>
<stop offset="0.17" stop-color="#056DB1"/>
<stop offset="0.39" stop-color="#157FB1"/>
<stop offset="0.65" stop-color="#2D9DB1"/>
<stop offset="0.9" stop-color="#4BC0B1"/>
</linearGradient>
<linearGradient id="paint2_linear" x1="-2.70606" y1="24.7959" x2="473.758" y2="24.7959" gradientUnits="userSpaceOnUse">
<stop offset="0.01" stop-color="#1B6DB5"/>
<stop offset="0.19" stop-color="#1E73B2"/>
<stop offset="0.43" stop-color="#2885AB"/>
<stop offset="0.71" stop-color="#37A39F"/>
<stop offset="0.9" stop-color="#43BB95"/>
</linearGradient>
<linearGradient id="paint3_linear" x1="-2.70525" y1="94.1234" x2="473.759" y2="94.1234" gradientUnits="userSpaceOnUse">
<stop offset="0.01" stop-color="#0067B1"/>
<stop offset="0.17" stop-color="#056DB1"/>
<stop offset="0.39" stop-color="#157FB1"/>
<stop offset="0.65" stop-color="#2D9DB1"/>
<stop offset="0.9" stop-color="#4BC0B1"/>
</linearGradient>
</defs>
</svg>
