<svg xmlns="http://www.w3.org/2000/svg" width="55" height="55" viewBox="0 0 55 55">
  <g id="Group_4879" data-name="Group 4879" transform="translate(-1139.5 -845)">
    <g id="Group_114" data-name="Group 114" transform="translate(1139.5 845)">
      <rect id="Rectangle_25" data-name="Rectangle 25" width="55" height="55" rx="15" fill="#f4f7fb"/>
    </g>
    <g id="Group_4920" data-name="Group 4920" transform="translate(316.5 273.75)">
      <path id="business-card" d="M31,84H2.2A2.2,2.2,0,0,0,0,86.195v17.913a2.2,2.2,0,0,0,2.2,2.2H31a2.2,2.2,0,0,0,2.2-2.2V86.195A2.2,2.2,0,0,0,31,84Zm1.158,20.108A1.159,1.159,0,0,1,31,105.266H2.2a1.159,1.159,0,0,1-1.158-1.158V86.195A1.159,1.159,0,0,1,2.2,85.037H31a1.159,1.159,0,0,1,1.158,1.158ZM15.085,88.782H3.382a.519.519,0,0,0-.519.519V101a.519.519,0,0,0,.519.519h11.7A.519.519,0,0,0,15.6,101V89.3A.519.519,0,0,0,15.085,88.782Zm-3.141,11.7H6.523V99.76a2.71,2.71,0,0,1,5.42,0Zm2.622,0H12.981V99.76a3.748,3.748,0,0,0-7.5,0v.724H3.9V89.819H14.566v10.665ZM9.234,95.552a2.266,2.266,0,1,0-2.266-2.266A2.268,2.268,0,0,0,9.234,95.552Zm0-3.494a1.228,1.228,0,1,1-1.228,1.228A1.23,1.23,0,0,1,9.234,92.059ZM20.08,93.345a.519.519,0,0,1-.519.519h-1.9a.519.519,0,1,1,0-1.037h1.9A.519.519,0,0,1,20.08,93.345Zm10.252,0a.519.519,0,0,1-.519.519H21.442a.519.519,0,1,1,0-1.037h8.372A.519.519,0,0,1,30.332,93.345ZM20.08,99.889a.519.519,0,0,1-.519.519h-1.9a.519.519,0,0,1,0-1.037h1.9A.519.519,0,0,1,20.08,99.889Zm10.252,0a.519.519,0,0,1-.519.519H21.442a.519.519,0,0,1,0-1.037h8.372A.519.519,0,0,1,30.332,99.889Zm0-3.272a.519.519,0,0,1-.519.519H21.442a.519.519,0,1,1,0-1.037h8.372A.519.519,0,0,1,30.332,96.617Zm-10.252,0a.519.519,0,0,1-.519.519h-1.9a.519.519,0,1,1,0-1.037h1.9A.519.519,0,0,1,20.08,96.617Zm10.252-6.544a.519.519,0,0,1-.519.519H21.442a.519.519,0,1,1,0-1.037h8.372A.519.519,0,0,1,30.332,90.073Zm-10.252,0a.519.519,0,0,1-.519.519h-1.9a.519.519,0,1,1,0-1.037h1.9A.519.519,0,0,1,20.08,90.073Z" transform="translate(832 506.197)" fill="#306db5"/>
      <g id="Group_4920-2" data-name="Group 4920" transform="translate(722 585.467)">
        <g id="Ellipse_4" data-name="Ellipse 4" transform="translate(134 -0.467)" fill="#f4f7fb" stroke="#306db5" stroke-width="1.3">
          <circle cx="6.5" cy="6.5" r="6.5" stroke="none"/>
          <circle cx="6.5" cy="6.5" r="5.85" fill="none"/>
        </g>
        <g id="Group_4918" data-name="Group 4918" transform="translate(137.355 3.964)">
          <g id="Group_4914" data-name="Group 4914">
            <path id="Path_8941" data-name="Path 8941" d="M337.84,91.222a.758.758,0,0,0-1.072,0l-2.5,2.5-.98-.98a.758.758,0,0,0-1.072,1.072l1.516,1.516a.758.758,0,0,0,1.072,0l3.031-3.031A.758.758,0,0,0,337.84,91.222Z" transform="translate(-332 -91)" fill="#7eb7db"/>
          </g>
        </g>
      </g>
    </g>
  </g>
</svg>
