<svg xmlns="http://www.w3.org/2000/svg" width="55" height="55" viewBox="0 0 55 55">
  <g id="Group_5040" data-name="Group 5040" transform="translate(-820 -949)">
    <g id="Group_4879" data-name="Group 4879" transform="translate(-319.5 104.081)">
      <g id="Group_114" data-name="Group 114" transform="translate(1139.5 844.919)">
        <rect id="Rectangle_25" data-name="Rectangle 25" width="55" height="55" rx="15" fill="#f4f7fb"/>
      </g>
    </g>
    <g id="medical-report" transform="translate(780.667 960)">
      <g id="Group_4922" data-name="Group 4922" transform="translate(57.557)">
        <g id="Group_4921" data-name="Group 4921" transform="translate(0)">
          <path id="Path_8954" data-name="Path 8954" d="M134.933,6.336h-.7V4.928a1.409,1.409,0,0,0-1.408-1.408h-2.17a4.225,4.225,0,0,0-8.331,0h-2.17a1.409,1.409,0,0,0-1.408,1.408V6.336h-.7a.7.7,0,1,0,0,1.408h16.9a.7.7,0,0,0,0-1.408Zm-2.112,0H120.149V4.928h2.816a.7.7,0,0,0,.7-.7,2.816,2.816,0,1,1,5.632,0,.7.7,0,0,0,.7.7h2.816Z" transform="translate(-117.333)" fill="#306db5"/>
        </g>
      </g>
      <g id="Group_4924" data-name="Group 4924" transform="translate(56.149 9.152)">
        <g id="Group_4923" data-name="Group 4923">
          <path id="Path_8955" data-name="Path 8955" d="M116.416,138.667H96.7a.7.7,0,0,0-.7.7v19.712a1.409,1.409,0,0,0,1.408,1.408h18.3a1.409,1.409,0,0,0,1.408-1.408V139.371A.7.7,0,0,0,116.416,138.667Zm-.7,20.416h-18.3V140.075h18.3v19.008Z" transform="translate(-96 -138.667)" fill="#306db5"/>
        </g>
      </g>
      <g id="Group_4926" data-name="Group 4926" transform="translate(65.301 3.52)">
        <g id="Group_4925" data-name="Group 4925">
          <path id="Path_8956" data-name="Path 8956" d="M236.779,53.333h-1.408a.7.7,0,0,0,0,1.408h1.408a.7.7,0,0,0,0-1.408Z" transform="translate(-234.667 -53.333)" fill="#7eb7db"/>
        </g>
      </g>
      <g id="Group_4928" data-name="Group 4928" transform="translate(58.965 21.12)">
        <g id="Group_4927" data-name="Group 4927" transform="translate(0)">
          <path id="Path_8957" data-name="Path 8957" d="M153.45,322.814h-2.525l-2.61-2.61a.7.7,0,0,0-1,0l-3.726,3.726-1.614-1.614a.7.7,0,0,0-.5-.206H139.37a.7.7,0,1,0,0,1.408h1.821l1.906,1.906a.7.7,0,0,0,1,0l3.726-3.726,2.318,2.318a.7.7,0,0,0,.5.206h2.816a.7.7,0,1,0,0-1.408Z" transform="translate(-138.666 -319.998)" fill="#7eb7db"/>
        </g>
      </g>
      <g id="Group_4930" data-name="Group 4930" transform="translate(53.333 4.224)">
        <g id="Group_4929" data-name="Group 4929">
          <path id="Path_8958" data-name="Path 8958" d="M77.269,64a.7.7,0,1,0,0,1.408,1.409,1.409,0,0,1,1.408,1.408V90.752a1.409,1.409,0,0,1-1.408,1.408H56.149a1.409,1.409,0,0,1-1.408-1.408V66.816a1.409,1.409,0,0,1,1.408-1.408.7.7,0,0,0,0-1.408,2.819,2.819,0,0,0-2.816,2.816V90.752a2.819,2.819,0,0,0,2.816,2.816h21.12a2.819,2.819,0,0,0,2.816-2.816V66.816A2.819,2.819,0,0,0,77.269,64Z" transform="translate(-53.333 -64)" fill="#306db5"/>
        </g>
      </g>
      <g id="Group_4932" data-name="Group 4932" transform="translate(59.669 12.672)">
        <g id="Group_4931" data-name="Group 4931" transform="translate(0)">
          <path id="Path_8959" data-name="Path 8959" d="M154.966,192h-4.224a1.409,1.409,0,0,0-1.408,1.408v1.408a1.409,1.409,0,0,0,1.408,1.408h4.224a1.409,1.409,0,0,0,1.408-1.408v-1.408A1.409,1.409,0,0,0,154.966,192Zm0,2.816-4.224,0v-1.406h4.224Z" transform="translate(-149.334 -192)" fill="#7eb7db"/>
        </g>
      </g>
      <g id="Group_4934" data-name="Group 4934" transform="translate(68.117 14.08)">
        <g id="Group_4933" data-name="Group 4933">
          <path id="Path_8960" data-name="Path 8960" d="M280.853,213.333h-2.816a.7.7,0,0,0,0,1.408h2.112v2.112a.7.7,0,1,0,1.408,0v-2.816A.7.7,0,0,0,280.853,213.333Z" transform="translate(-277.333 -213.333)" fill="#7eb7db"/>
        </g>
      </g>
      <g id="Group_4936" data-name="Group 4936" transform="translate(59.669 18.304)">
        <g id="Group_4935" data-name="Group 4935" transform="translate(0)">
          <path id="Path_8961" data-name="Path 8961" d="M155.669,277.333h-5.632a.7.7,0,0,0,0,1.408h5.632a.7.7,0,1,0,0-1.408Z" transform="translate(-149.333 -277.333)" fill="#7eb7db"/>
        </g>
      </g>
    </g>
  </g>
</svg>
