<svg xmlns="http://www.w3.org/2000/svg" width="55" height="55" viewBox="0 0 55 55">
  <g id="Group_5042" data-name="Group 5042" transform="translate(-1120 -1216)">
    <g id="Group_4879" data-name="Group 4879" transform="translate(-19.5 371.081)">
      <g id="Group_114" data-name="Group 114" transform="translate(1139.5 844.919)">
        <rect id="Rectangle_25" data-name="Rectangle 25" width="55" height="55" rx="15" fill="#f4f7fb"/>
      </g>
    </g>
    <g id="clipboard" transform="translate(1088 1227)">
      <g id="Group_4950" data-name="Group 4950" transform="translate(47.037 0)">
        <g id="Group_4949" data-name="Group 4949" transform="translate(-0.037 1)">
          <path id="Path_8985" data-name="Path 8985" d="M68.387,4.08H65.57V2.82c0-.408-.445-.593-.852-.593H62.531A3.316,3.316,0,0,0,59.232,0a3.373,3.373,0,0,0-3.3,2.224h-2.15c-.408,0-.815.185-.815.593V4.08H50.151a3.151,3.151,0,0,0-3.114,3V28.321a2.982,2.982,0,0,0,3.114,2.817H68.387A2.982,2.982,0,0,0,71.5,28.321V7.082A3.151,3.151,0,0,0,68.387,4.08ZM54.45,3.709h2.039a.816.816,0,0,0,.7-.667,2.15,2.15,0,0,1,2.039-1.668,2.113,2.113,0,0,1,2,1.668.815.815,0,0,0,.741.667h2.113V6.674H54.45ZM70.018,28.321a1.5,1.5,0,0,1-1.631,1.334H50.151a1.5,1.5,0,0,1-1.631-1.334V7.082a1.668,1.668,0,0,1,1.631-1.52h2.817v1.89a.778.778,0,0,0,.815.7H64.717a.815.815,0,0,0,.852-.7V5.562h2.817a1.668,1.668,0,0,1,1.631,1.52V28.321Z" transform="translate(-47.037 0)" fill="#306db5"/>
          <path id="Path_8986" data-name="Path 8986" d="M105.045,230.543a.741.741,0,0,0-1.038-.037l-2.372,2.261-1-1.038a.741.741,0,0,0-1.038-.037.778.778,0,0,0,0,1.075l1.52,1.557a.667.667,0,0,0,.519.222.741.741,0,0,0,.519-.222l2.891-2.743a.7.7,0,0,0,.043-1C105.074,230.57,105.06,230.556,105.045,230.543Z" transform="translate(-95.667 -213.972)" fill="#7eb7db"/>
          <path id="Path_8987" data-name="Path 8987" d="M207.814,256.034h-8.525a.741.741,0,1,0,0,1.483h8.525a.741.741,0,1,0,0-1.483Z" transform="translate(-187.799 -237.869)" fill="#7eb7db"/>
          <path id="Path_8988" data-name="Path 8988" d="M105.045,146.951a.741.741,0,0,0-1.038-.037l-2.372,2.261-1-1.038A.741.741,0,0,0,99.6,148.1a.778.778,0,0,0,0,1.075l1.52,1.557a.667.667,0,0,0,.519.222.741.741,0,0,0,.519-.222l2.891-2.743a.7.7,0,0,0,.043-1C105.074,146.978,105.06,146.964,105.045,146.951Z" transform="translate(-95.667 -136.31)" fill="#7eb7db"/>
          <path id="Path_8989" data-name="Path 8989" d="M207.814,172.442h-8.525a.741.741,0,1,0,0,1.483h8.525a.741.741,0,0,0,0-1.483Z" transform="translate(-187.799 -160.208)" fill="#7eb7db"/>
          <path id="Path_8990" data-name="Path 8990" d="M105.045,314.134a.741.741,0,0,0-1.038-.037l-2.372,2.261-1-1.038a.741.741,0,0,0-1.038-.037.778.778,0,0,0,0,1.075l1.52,1.557a.667.667,0,0,0,.519.222.741.741,0,0,0,.519-.222l2.891-2.743a.7.7,0,0,0,.043-1C105.074,314.162,105.06,314.148,105.045,314.134Z" transform="translate(-95.667 -291.633)" fill="#7eb7db"/>
          <path id="Path_8991" data-name="Path 8991" d="M207.814,339.626h-8.525a.741.741,0,1,0,0,1.483h8.525a.741.741,0,1,0,0-1.483Z" transform="translate(-187.799 -315.531)" fill="#7eb7db"/>
        </g>
      </g>
    </g>
  </g>
</svg>
