<svg width="14" height="15" viewBox="0 0 14 15" fill="none" xmlns="http://www.w3.org/2000/svg">
<path fill-rule="evenodd" clip-rule="evenodd" d="M11.9602 2.27071C10.6442 0.953543 8.89393 0.227791 7.02923 0.227051C3.18704 0.227051 0.0599782 3.35292 0.0584405 7.19512C0.057928 8.42329 0.378928 9.62217 0.988904 10.6789L-7.62939e-06 14.29L3.69531 13.321C4.71343 13.8761 5.85977 14.1687 7.02644 14.1692H7.0293C10.8711 14.1692 13.9984 11.0429 14 7.20068C14.0007 5.33869 13.2763 3.58787 11.9602 2.27071ZM7.0293 12.9922H7.02693C5.98731 12.9918 4.96761 12.7126 4.07808 12.1849L3.86649 12.0594L1.67367 12.6344L2.25899 10.4971L2.12121 10.278C1.54125 9.35579 1.23492 8.28992 1.23538 7.19556C1.23665 4.00207 3.83576 1.40399 7.0316 1.40399C8.5791 1.40458 10.0338 2.00783 11.1277 3.10261C12.2216 4.19739 12.8237 5.65261 12.8231 7.20023C12.8217 10.3939 10.2227 12.9922 7.0293 12.9922ZM10.2073 8.65437C10.0331 8.56722 9.17681 8.14597 9.01715 8.08787C8.8575 8.02976 8.7414 8.00072 8.62527 8.17504C8.50917 8.34934 8.17537 8.74154 8.07374 8.85773C7.97216 8.97395 7.87056 8.98849 7.69638 8.90132C7.52221 8.81417 6.961 8.63032 6.29571 8.03711C5.77795 7.57544 5.42836 7.0052 5.32677 6.8309C5.22517 6.65658 5.31597 6.56233 5.40316 6.47554C5.4815 6.39752 5.57732 6.27218 5.66442 6.17049C5.75149 6.06881 5.78052 5.99618 5.83856 5.87999C5.89663 5.76378 5.86761 5.66209 5.82406 5.57494C5.78052 5.48779 5.4322 4.63075 5.28704 4.28213C5.14567 3.9426 5.00207 3.98854 4.89515 3.98322C4.79367 3.97817 4.67744 3.97709 4.56134 3.97709C4.44522 3.97709 4.25653 4.02068 4.09687 4.19498C3.93722 4.3693 3.48729 4.79055 3.48729 5.64756C3.48729 6.50458 4.11139 7.33254 4.19848 7.44875C4.28556 7.56497 5.42666 9.32371 7.17387 10.0779C7.58943 10.2573 7.91386 10.3644 8.16681 10.4447C8.58407 10.5772 8.96377 10.5585 9.26389 10.5137C9.59852 10.4637 10.2944 10.0925 10.4395 9.68573C10.5847 9.279 10.5847 8.93038 10.5411 8.85775C10.4976 8.78513 10.3815 8.74154 10.2073 8.65437Z" fill="white"/>
</svg>