<svg xmlns="http://www.w3.org/2000/svg" width="18" height="18" viewBox="0 0 18 18">
  <g id="Group_4247" data-name="Group 4247" transform="translate(-326 -6335)">
    <path id="youtube" d="M6.848,12.169V9.444l2.62,1.368-2.62,1.358Zm5.754-3.2a2.094,2.094,0,0,0-.386-.963,1.388,1.388,0,0,0-.972-.411c-1.357-.1-3.393-.1-3.393-.1h0s-2.036,0-3.393.1a1.388,1.388,0,0,0-.972.411,2.1,2.1,0,0,0-.386.963,14.673,14.673,0,0,0-.1,1.57v.736a14.681,14.681,0,0,0,.1,1.57,2.094,2.094,0,0,0,.386.963,1.641,1.641,0,0,0,1.07.414c.776.074,3.3.1,3.3.1s2.038,0,3.4-.1a1.387,1.387,0,0,0,.972-.411,2.1,2.1,0,0,0,.386-.963,14.681,14.681,0,0,0,.1-1.57v-.736a14.665,14.665,0,0,0-.1-1.57Z" transform="translate(327 6333.5)" fill="#f0f3f8" fill-rule="evenodd"/>
    <g id="Path_8137" data-name="Path 8137" transform="translate(326 6335)" fill="none" opacity="0">
      <path d="M9,0A9,9,0,1,1,0,9,9,9,0,0,1,9,0Z" stroke="none"/>
      <path d="M 9.000004768371582 0.4999980926513672 C 4.313084602355957 0.4999980926513672 0.4999942779541016 4.31309700012207 0.4999942779541016 9.00003719329834 C 0.4999942779541016 13.68697738647461 4.313084602355957 17.50007629394531 9.000004768371582 17.50007629394531 C 13.68692493438721 17.50007629394531 17.50000381469727 13.68697738647461 17.50000381469727 9.00003719329834 C 17.50000381469727 4.31309700012207 13.68692493438721 0.4999980926513672 9.000004768371582 0.4999980926513672 M 9.000004768371582 -1.9073486328125e-06 C 13.97056484222412 -1.9073486328125e-06 18.00000381469727 4.029457092285156 18.00000381469727 9.00003719329834 C 18.00000381469727 13.97061729431152 13.97056484222412 18.00007629394531 9.000004768371582 18.00007629394531 C 4.029444694519043 18.00007629394531 -5.7220458984375e-06 13.97061729431152 -5.7220458984375e-06 9.00003719329834 C -5.7220458984375e-06 4.029457092285156 4.029444694519043 -1.9073486328125e-06 9.000004768371582 -1.9073486328125e-06 Z" stroke="none" fill="#f0f3f8"/>
    </g>
  </g>
</svg>
